{
.appVersion = "1286";
customParameters = (
{
name = Axes;
value = (
{
Name = Weight;
Tag = wght;
},
{
Name = "Optical size";
Tag = opsz;
}
);
},
{
name = "Variable Font File Name";
value = FKGoogleConceptAVariable;
},
{
name = "Variable Font Family Name";
value = "FK Google Concept A Variable";
}
);
date = "2020-01-07 21:22:47 +0000";
familyName = "FK Writer Higher Contrast";
featurePrefixes = (
{
automatic = 1;
code = "languagesystem DFLT dflt;\012";
name = Languagesystems;
}
);
features = (
{
automatic = 1;
code = "lookupflag IgnoreMarks;\012sub t t by t_t.liga;\012";
name = liga;
}
);
fontMaster = (
{
alignmentZones = (
"{760, 20}",
"{720, 10}",
"{560, 10}",
"{0, -10}",
"{-190, -10}"
);
ascender = 760;
capHeight = 720;
custom = Text;
descender = -200;
iconName = Light_SemiExtended;
id = "D79F8ED9-6C56-4538-8DF1-62DD23430BF9";
weight = Light;
weightValue = 300;
widthValue = 0;
xHeight = 560;
},
{
alignmentZones = (
"{760, 20}",
"{720, 10}",
"{560, 10}",
"{0, -10}",
"{-190, -10}"
);
ascender = 760;
capHeight = 720;
custom = Text;
descender = -200;
iconName = Bold_SemiExtended;
id = "EA87A73E-C0FE-4015-8704-0B2406CC7903";
weight = Bold;
weightValue = 700;
widthValue = 0;
xHeight = 560;
},
{
alignmentZones = (
"{760, 20}",
"{720, 10}",
"{560, 10}",
"{0, -10}",
"{-190, -10}"
);
ascender = 760;
capHeight = 720;
custom = Display;
descender = -200;
id = "46ED8887-C39F-4CE4-BD5B-7A231A6BF840";
weight = Light;
weightValue = 300;
xHeight = 560;
},
{
alignmentZones = (
"{760, 20}",
"{720, 10}",
"{560, 10}",
"{0, -10}",
"{-190, -10}"
);
ascender = 760;
capHeight = 720;
custom = Display;
descender = -200;
id = "DBCC401B-C3AE-4436-9575-31462D2FF699";
weight = Bold;
weightValue = 700;
xHeight = 560;
}
);
glyphs = (
{
glyphname = A;
lastChange = "2020-02-18 12:14:45 +0000";
layers = (
{
layerId = "D79F8ED9-6C56-4538-8DF1-62DD23430BF9";
paths = (
{
closed = 1;
nodes = (
"110 52 LINE",
"172 52 LINE",
"407 666 LINE",
"418 720 LINE",
"368 720 LINE"
);
},
{
closed = 1;
nodes = (
"402 720 LINE",
"390 673 LINE",
"627 52 LINE",
"691 52 LINE",
"434 720 LINE"
);
},
{
closed = 1;
nodes = (
"20 0 LINE",
"312 0 LINE",
"312 52 LINE",
"20 52 LINE"
);
},
{
closed = 1;
nodes = (
"467 0 LINE",
"781 0 LINE",
"781 52 LINE",
"467 52 LINE"
);
},
{
closed = 1;
nodes = (
"251 270 LINE",
"560 270 LINE",
"560 322 LINE",
"251 322 LINE"
);
}
);
width = 801;
},
{
layerId = "EA87A73E-C0FE-4015-8704-0B2406CC7903";
paths = (
{
closed = 1;
nodes = (
"100 54 LINE",
"163 54 LINE",
"407 636 LINE",
"429 720 LINE",
"382 720 LINE"
);
},
{
closed = 1;
nodes = (
"402 720 LINE",
"360 587 LINE",
"575 54 LINE",
"730 54 LINE",
"446 720 LINE"
);
},
{
closed = 1;
nodes = (
"20 0 LINE",
"303 0 LINE",
"303 54 LINE",
"20 54 LINE"
);
},
{
closed = 1;
nodes = (
"415 0 LINE",
"810 0 LINE",
"810 54 LINE",
"415 54 LINE"
);
},
{
closed = 1;
nodes = (
"221 230 LINE",
"530 230 LINE",
"530 284 LINE",
"221 284 LINE"
);
}
);
width = 830;
},
{
associatedMasterId = "EA87A73E-C0FE-4015-8704-0B2406CC7903";
layerId = "13F37EB2-E697-41BF-9953-A3221F9AB421";
name = "Feb 18 20, 10:13";
paths = (
{
closed = 1;
nodes = (
"100 54 LINE",
"162 54 LINE",
"419 720 LINE",
"357 720 LINE"
);
},
{
closed = 1;
nodes = (
"377 720 LINE",
"358 639 LINE",
"575 54 LINE",
"730 54 LINE",
"472 720 LINE"
);
},
{
closed = 1;
nodes = (
"20 0 LINE",
"302 0 LINE",
"302 54 LINE",
"20 54 LINE"
);
},
{
closed = 1;
nodes = (
"415 0 LINE",
"810 0 LINE",
"810 54 LINE",
"415 54 LINE"
);
},
{
closed = 1;
nodes = (
"241 270 LINE",
"550 270 LINE",
"550 324 LINE",
"241 324 LINE"
);
}
);
width = 830;
},
{
layerId = "DBCC401B-C3AE-4436-9575-31462D2FF699";
paths = (
{
closed = 1;
nodes = (
"100 54 LINE",
"163 54 LINE",
"407 636 LINE",
"429 720 LINE",
"382 720 LINE"
);
},
{
closed = 1;
nodes = (
"402 720 LINE",
"360 587 LINE",
"575 54 LINE",
"730 54 LINE",
"446 720 LINE"
);
},
{
closed = 1;
nodes = (
"20 0 LINE",
"303 0 LINE",
"303 54 LINE",
"20 54 LINE"
);
},
{
closed = 1;
nodes = (
"415 0 LINE",
"810 0 LINE",
"810 54 LINE",
"415 54 LINE"
);
},
{
closed = 1;
nodes = (
"221 230 LINE",
"530 230 LINE",
"530 284 LINE",
"221 284 LINE"
);
}
);
width = 830;
},
{
associatedMasterId = "DBCC401B-C3AE-4436-9575-31462D2FF699";
layerId = "BB7855CB-2591-411C-B390-1094296D197C";
name = "Feb 18 20, 10:13";
paths = (
{
closed = 1;
nodes = (
"100 54 LINE",
"162 54 LINE",
"419 720 LINE",
"357 720 LINE"
);
},
{
closed = 1;
nodes = (
"377 720 LINE",
"358 639 LINE",
"575 54 LINE",
"730 54 LINE",
"472 720 LINE"
);
},
{
closed = 1;
nodes = (
"20 0 LINE",
"302 0 LINE",
"302 54 LINE",
"20 54 LINE"
);
},
{
closed = 1;
nodes = (
"415 0 LINE",
"810 0 LINE",
"810 54 LINE",
"415 54 LINE"
);
},
{
closed = 1;
nodes = (
"241 270 LINE",
"550 270 LINE",
"550 324 LINE",
"241 324 LINE"
);
}
);
width = 830;
},
{
layerId = "46ED8887-C39F-4CE4-BD5B-7A231A6BF840";
paths = (
{
closed = 1;
nodes = (
"110 52 LINE",
"172 52 LINE",
"407 666 LINE",
"418 720 LINE",
"368 720 LINE"
);
},
{
closed = 1;
nodes = (
"402 720 LINE",
"390 673 LINE",
"627 52 LINE",
"691 52 LINE",
"434 720 LINE"
);
},
{
closed = 1;
nodes = (
"20 0 LINE",
"312 0 LINE",
"312 52 LINE",
"20 52 LINE"
);
},
{
closed = 1;
nodes = (
"467 0 LINE",
"781 0 LINE",
"781 52 LINE",
"467 52 LINE"
);
},
{
closed = 1;
nodes = (
"251 270 LINE",
"560 270 LINE",
"560 322 LINE",
"251 322 LINE"
);
}
);
width = 801;
}
);
leftKerningGroup = A;
rightKerningGroup = A;
unicode = 0041;
},
{
glyphname = B;
lastChange = "2020-02-18 12:14:45 +0000";
layers = (
{
layerId = "D79F8ED9-6C56-4538-8DF1-62DD23430BF9";
paths = (
{
closed = 1;
nodes = (
"175 0 LINE",
"235 0 LINE",
"235 720 LINE",
"175 720 LINE"
);
},
{
closed = 1;
nodes = (
"49 668 LINE",
"205 668 LINE",
"205 720 LINE",
"49 720 LINE"
);
},
{
closed = 1;
nodes = (
"45 0 LINE",
"205 0 LINE",
"205 52 LINE",
"45 52 LINE"
);
},
{
closed = 1;
nodes = (
"205 668 LINE",
"425 668 LINE SMOOTH",
"522 668 OFFCURVE",
"593 639 OFFCURVE",
"593 539 CURVE SMOOTH",
"593 451 OFFCURVE",
"529 409 OFFCURVE",
"427 409 CURVE SMOOTH",
"205 409 LINE",
"205 373 LINE",
"431 373 LINE SMOOTH",
"565 373 OFFCURVE",
"653 434 OFFCURVE",
"653 545 CURVE SMOOTH",
"653 672 OFFCURVE",
"555 720 OFFCURVE",
"421 720 CURVE SMOOTH",
"205 720 LINE"
);
},
{
closed = 1;
nodes = (
"205 357 LINE",
"449 357 LINE SMOOTH",
"551 357 OFFCURVE",
"615 306 OFFCURVE",
"615 205 CURVE SMOOTH",
"615 104 OFFCURVE",
"551 52 OFFCURVE",
"449 52 CURVE SMOOTH",
"205 52 LINE",
"205 0 LINE",
"453 0 LINE SMOOTH",
"587 0 OFFCURVE",
"675 74 OFFCURVE",
"675 206 CURVE SMOOTH",
"675 331 OFFCURVE",
"587 400 OFFCURVE",
"453 400 CURVE SMOOTH",
"205 400 LINE"
);
}
);
width = 740;
},
{
layerId = "EA87A73E-C0FE-4015-8704-0B2406CC7903";
paths = (
{
closed = 1;
nodes = (
"150 0 LINE",
"290 0 LINE",
"290 720 LINE",
"150 720 LINE"
);
},
{
closed = 1;
nodes = (
"44 666 LINE",
"260 666 LINE",
"260 720 LINE",
"44 720 LINE"
);
},
{
closed = 1;
nodes = (
"40 0 LINE",
"260 0 LINE",
"260 54 LINE",
"40 54 LINE"
);
},
{
closed = 1;
nodes = (
"260 666 LINE",
"400 666 LINE SMOOTH",
"498 666 OFFCURVE",
"570 636 OFFCURVE",
"570 532 CURVE SMOOTH",
"570 449 OFFCURVE",
"508 410 OFFCURVE",
"410 410 CURVE SMOOTH",
"260 410 LINE",
"260 380 LINE",
"448 380 LINE SMOOTH",
"605 380 OFFCURVE",
"708 436 OFFCURVE",
"708 550 CURVE SMOOTH",
"708 669 OFFCURVE",
"594 720 OFFCURVE",
"438 720 CURVE SMOOTH",
"260 720 LINE"
);
},
{
closed = 1;
nodes = (
"260 356 LINE",
"424 356 LINE SMOOTH",
"526 356 OFFCURVE",
"590 303 OFFCURVE",
"590 200 CURVE SMOOTH",
"590 103 OFFCURVE",
"526 54 OFFCURVE",
"424 54 CURVE SMOOTH",
"260 54 LINE",
"260 0 LINE",
"468 0 LINE SMOOTH",
"626 0 OFFCURVE",
"730 73 OFFCURVE",
"730 204 CURVE SMOOTH",
"730 325 OFFCURVE",
"626 392 OFFCURVE",
"468 392 CURVE SMOOTH",
"260 392 LINE"
);
}
);
width = 790;
},
{
layerId = "DBCC401B-C3AE-4436-9575-31462D2FF699";
paths = (
{
closed = 1;
nodes = (
"150 0 LINE",
"290 0 LINE",
"290 720 LINE",
"150 720 LINE"
);
},
{
closed = 1;
nodes = (
"44 666 LINE",
"260 666 LINE",
"260 720 LINE",
"44 720 LINE"
);
},
{
closed = 1;
nodes = (
"40 0 LINE",
"260 0 LINE",
"260 54 LINE",
"40 54 LINE"
);
},
{
closed = 1;
nodes = (
"260 666 LINE",
"400 666 LINE SMOOTH",
"498 666 OFFCURVE",
"570 636 OFFCURVE",
"570 532 CURVE SMOOTH",
"570 449 OFFCURVE",
"508 410 OFFCURVE",
"410 410 CURVE SMOOTH",
"260 410 LINE",
"260 380 LINE",
"448 380 LINE SMOOTH",
"605 380 OFFCURVE",
"708 436 OFFCURVE",
"708 550 CURVE SMOOTH",
"708 669 OFFCURVE",
"594 720 OFFCURVE",
"438 720 CURVE SMOOTH",
"260 720 LINE"
);
},
{
closed = 1;
nodes = (
"260 356 LINE",
"424 356 LINE SMOOTH",
"526 356 OFFCURVE",
"590 303 OFFCURVE",
"590 200 CURVE SMOOTH",
"590 103 OFFCURVE",
"526 54 OFFCURVE",
"424 54 CURVE SMOOTH",
"260 54 LINE",
"260 0 LINE",
"468 0 LINE SMOOTH",
"626 0 OFFCURVE",
"730 73 OFFCURVE",
"730 204 CURVE SMOOTH",
"730 325 OFFCURVE",
"626 392 OFFCURVE",
"468 392 CURVE SMOOTH",
"260 392 LINE"
);
}
);
width = 790;
},
{
layerId = "46ED8887-C39F-4CE4-BD5B-7A231A6BF840";
paths = (
{
closed = 1;
nodes = (
"175 0 LINE",
"235 0 LINE",
"235 720 LINE",
"175 720 LINE"
);
},
{
closed = 1;
nodes = (
"49 668 LINE",
"205 668 LINE",
"205 720 LINE",
"49 720 LINE"
);
},
{
closed = 1;
nodes = (
"45 0 LINE",
"205 0 LINE",
"205 52 LINE",
"45 52 LINE"
);
},
{
closed = 1;
nodes = (
"205 668 LINE",
"425 668 LINE SMOOTH",
"522 668 OFFCURVE",
"593 639 OFFCURVE",
"593 539 CURVE SMOOTH",
"593 451 OFFCURVE",
"529 409 OFFCURVE",
"427 409 CURVE SMOOTH",
"205 409 LINE",
"205 373 LINE",
"431 373 LINE SMOOTH",
"565 373 OFFCURVE",
"653 434 OFFCURVE",
"653 545 CURVE SMOOTH",
"653 672 OFFCURVE",
"555 720 OFFCURVE",
"421 720 CURVE SMOOTH",
"205 720 LINE"
);
},
{
closed = 1;
nodes = (
"205 357 LINE",
"449 357 LINE SMOOTH",
"551 357 OFFCURVE",
"615 306 OFFCURVE",
"615 205 CURVE SMOOTH",
"615 104 OFFCURVE",
"551 52 OFFCURVE",
"449 52 CURVE SMOOTH",
"205 52 LINE",
"205 0 LINE",
"453 0 LINE SMOOTH",
"587 0 OFFCURVE",
"675 74 OFFCURVE",
"675 206 CURVE SMOOTH",
"675 331 OFFCURVE",
"587 400 OFFCURVE",
"453 400 CURVE SMOOTH",
"205 400 LINE"
);
}
);
width = 740;
}
);
leftKerningGroup = H;
leftMetricsKey = H;
rightKerningGroup = B;
unicode = 0042;
},
{
glyphname = C;
lastChange = "2020-02-18 13:51:03 +0000";
layers = (
{
layerId = "D79F8ED9-6C56-4538-8DF1-62DD23430BF9";
paths = (
{
closed = 1;
nodes = (
"702 450 LINE",
"691 660 OFFCURVE",
"570 730 OFFCURVE",
"408 730 CURVE SMOOTH",
"207 730 OFFCURVE",
"70 584 OFFCURVE",
"70 360 CURVE SMOOTH",
"70 136 OFFCURVE",
"207 -10 OFFCURVE",
"408 -10 CURVE SMOOTH",
"613 -10 OFFCURVE",
"710 117 OFFCURVE",
"716 278 CURVE",
"656 280 LINE",
"650 140 OFFCURVE",
"565 44 OFFCURVE",
"408 44 CURVE SMOOTH",
"245 44 OFFCURVE",
"130 174 OFFCURVE",
"130 360 CURVE SMOOTH",
"130 550 OFFCURVE",
"247 676 OFFCURVE",
"408 676 CURVE SMOOTH",
"570 676 OFFCURVE",
"642 593 OFFCURVE",
"652 450 CURVE"
);
},
{
closed = 1;
nodes = (
"656 720 LINE",
"656 582 LINE",
"702 450 LINE",
"714 450 LINE",
"714 720 LINE"
);
}
);
width = 802;
},
{
layerId = "EA87A73E-C0FE-4015-8704-0B2406CC7903";
paths = (
{
closed = 1;
nodes = (
"730 450 LINE",
"727 645 OFFCURVE",
"599 730 OFFCURVE",
"430 730 CURVE SMOOTH",
"207 730 OFFCURVE",
"56 582 OFFCURVE",
"56 356 CURVE SMOOTH",
"56 134 OFFCURVE",
"208 -10 OFFCURVE",
"430 -10 CURVE SMOOTH",
"637 -10 OFFCURVE",
"737 117 OFFCURVE",
"742 278 CURVE",
"682 280 LINE",
"676 154 OFFCURVE",
"598 68 OFFCURVE",
"454 68 CURVE SMOOTH",
"309 68 OFFCURVE",
"206 191 OFFCURVE",
"206 370 CURVE SMOOTH",
"206 552 OFFCURVE",
"305 674 OFFCURVE",
"442 674 CURVE SMOOTH",
"590 674 OFFCURVE",
"668 592 OFFCURVE",
"678 450 CURVE"
);
},
{
closed = 1;
nodes = (
"684 720 LINE",
"684 582 LINE",
"730 450 LINE",
"742 450 LINE",
"742 720 LINE"
);
}
);
width = 806;
},
{
layerId = "DBCC401B-C3AE-4436-9575-31462D2FF699";
paths = (
{
closed = 1;
nodes = (
"730 430 LINE",
"727 639 OFFCURVE",
"599 730 OFFCURVE",
"430 730 CURVE SMOOTH",
"207 730 OFFCURVE",
"56 582 OFFCURVE",
"56 356 CURVE SMOOTH",
"56 134 OFFCURVE",
"208 -10 OFFCURVE",
"430 -10 CURVE SMOOTH",
"637 -10 OFFCURVE",
"737 126 OFFCURVE",
"742 298 CURVE",
"682 300 LINE",
"676 162 OFFCURVE",
"598 68 OFFCURVE",
"454 68 CURVE SMOOTH",
"309 68 OFFCURVE",
"206 191 OFFCURVE",
"206 370 CURVE SMOOTH",
"206 552 OFFCURVE",
"305 674 OFFCURVE",
"442 674 CURVE SMOOTH",
"590 674 OFFCURVE",
"668 585 OFFCURVE",
"678 430 CURVE"
);
},
{
closed = 1;
nodes = (
"684 720 LINE",
"684 582 LINE",
"730 430 LINE",
"742 430 LINE",
"742 720 LINE"
);
}
);
width = 806;
},
{
layerId = "46ED8887-C39F-4CE4-BD5B-7A231A6BF840";
paths = (
{
closed = 1;
nodes = (
"702 430 LINE",
"691 655 OFFCURVE",
"570 730 OFFCURVE",
"408 730 CURVE SMOOTH",
"207 730 OFFCURVE",
"70 584 OFFCURVE",
"70 360 CURVE SMOOTH",
"70 136 OFFCURVE",
"207 -10 OFFCURVE",
"408 -10 CURVE SMOOTH",
"613 -10 OFFCURVE",
"710 126 OFFCURVE",
"716 298 CURVE",
"656 300 LINE",
"650 148 OFFCURVE",
"565 44 OFFCURVE",
"408 44 CURVE SMOOTH",
"245 44 OFFCURVE",
"130 174 OFFCURVE",
"130 360 CURVE SMOOTH",
"130 550 OFFCURVE",
"247 676 OFFCURVE",
"408 676 CURVE SMOOTH",
"570 676 OFFCURVE",
"642 586 OFFCURVE",
"652 430 CURVE"
);
},
{
closed = 1;
nodes = (
"656 720 LINE",
"656 582 LINE",
"702 430 LINE",
"714 430 LINE",
"714 720 LINE"
);
}
);
width = 802;
}
);
leftKerningGroup = O;
leftMetricsKey = O;
rightKerningGroup = C;
unicode = 0043;
},
{
glyphname = D;
lastChange = "2020-02-18 12:14:45 +0000";
layers = (
{
layerId = "D79F8ED9-6C56-4538-8DF1-62DD23430BF9";
paths = (
{
closed = 1;
nodes = (
"371 668 LINE",
"561 668 OFFCURVE",
"681 549 OFFCURVE",
"681 368 CURVE SMOOTH",
"681 175 OFFCURVE",
"560 52 OFFCURVE",
"375 52 CURVE",
"373 0 LINE",
"596 0 OFFCURVE",
"741 143 OFFCURVE",
"741 368 CURVE SMOOTH",
"741 583 OFFCURVE",
"596 720 OFFCURVE",
"373 720 CURVE"
);
},
{
closed = 1;
nodes = (
"175 0 LINE",
"235 0 LINE",
"235 720 LINE",
"175 720 LINE"
);
},
{
closed = 1;
nodes = (
"45 0 LINE",
"373 0 LINE",
"375 52 LINE",
"45 52 LINE"
);
},
{
closed = 1;
nodes = (
"49 668 LINE",
"371 668 LINE",
"373 720 LINE",
"49 720 LINE"
);
}
);
width = 811;
},
{
layerId = "EA87A73E-C0FE-4015-8704-0B2406CC7903";
paths = (
{
closed = 1;
nodes = (
"352 666 LINE",
"532 666 OFFCURVE",
"646 544 OFFCURVE",
"646 358 CURVE SMOOTH",
"646 172 OFFCURVE",
"536 54 OFFCURVE",
"368 54 CURVE",
"380 0 LINE",
"629 0 OFFCURVE",
"792 145 OFFCURVE",
"792 372 CURVE SMOOTH",
"792 585 OFFCURVE",
"629 720 OFFCURVE",
"380 720 CURVE"
);
},
{
closed = 1;
nodes = (
"150 0 LINE",
"290 0 LINE",
"290 720 LINE",
"150 720 LINE"
);
},
{
closed = 1;
nodes = (
"40 0 LINE",
"380 0 LINE",
"368 54 LINE",
"40 54 LINE"
);
},
{
closed = 1;
nodes = (
"44 666 LINE",
"352 666 LINE",
"380 720 LINE",
"44 720 LINE"
);
}
);
width = 848;
},
{
layerId = "DBCC401B-C3AE-4436-9575-31462D2FF699";
paths = (
{
closed = 1;
nodes = (
"352 666 LINE",
"532 666 OFFCURVE",
"646 544 OFFCURVE",
"646 358 CURVE SMOOTH",
"646 172 OFFCURVE",
"536 54 OFFCURVE",
"368 54 CURVE",
"380 0 LINE",
"629 0 OFFCURVE",
"792 145 OFFCURVE",
"792 372 CURVE SMOOTH",
"792 585 OFFCURVE",
"629 720 OFFCURVE",
"380 720 CURVE"
);
},
{
closed = 1;
nodes = (
"150 0 LINE",
"290 0 LINE",
"290 720 LINE",
"150 720 LINE"
);
},
{
closed = 1;
nodes = (
"40 0 LINE",
"380 0 LINE",
"368 54 LINE",
"40 54 LINE"
);
},
{
closed = 1;
nodes = (
"44 666 LINE",
"352 666 LINE",
"380 720 LINE",
"44 720 LINE"
);
}
);
width = 848;
},
{
layerId = "46ED8887-C39F-4CE4-BD5B-7A231A6BF840";
paths = (
{
closed = 1;
nodes = (
"371 668 LINE",
"561 668 OFFCURVE",
"681 549 OFFCURVE",
"681 368 CURVE SMOOTH",
"681 175 OFFCURVE",
"560 52 OFFCURVE",
"375 52 CURVE",
"373 0 LINE",
"596 0 OFFCURVE",
"741 143 OFFCURVE",
"741 368 CURVE SMOOTH",
"741 583 OFFCURVE",
"596 720 OFFCURVE",
"373 720 CURVE"
);
},
{
closed = 1;
nodes = (
"175 0 LINE",
"235 0 LINE",
"235 720 LINE",
"175 720 LINE"
);
},
{
closed = 1;
nodes = (
"45 0 LINE",
"373 0 LINE",
"375 52 LINE",
"45 52 LINE"
);
},
{
closed = 1;
nodes = (
"49 668 LINE",
"371 668 LINE",
"373 720 LINE",
"49 720 LINE"
);
}
);
width = 811;
}
);
leftKerningGroup = H;
leftMetricsKey = H;
rightKerningGroup = O;
rightMetricsKey = O;
unicode = 0044;
},
{
glyphname = E;
lastChange = "2020-02-18 12:42:03 +0000";
layers = (
{
layerId = "D79F8ED9-6C56-4538-8DF1-62DD23430BF9";
paths = (
{
closed = 1;
nodes = (
"175 0 LINE",
"235 0 LINE",
"235 720 LINE",
"175 720 LINE"
);
},
{
closed = 1;
nodes = (
"45 0 LINE",
"665 0 LINE",
"665 52 LINE",
"45 52 LINE"
);
},
{
closed = 1;
nodes = (
"49 668 LINE",
"655 668 LINE",
"655 720 LINE",
"49 720 LINE"
);
},
{
closed = 1;
nodes = (
"235 359 LINE",
"475 359 LINE",
"475 411 LINE",
"235 411 LINE"
);
},
{
closed = 1;
nodes = (
"665 52 LINE",
"665 230 LINE",
"609 230 LINE",
"609 122 LINE SMOOTH",
"609 68 OFFCURVE",
"597 52 OFFCURVE",
"539 52 CURVE"
);
},
{
closed = 1;
nodes = (
"587 668 OFFCURVE",
"599 652 OFFCURVE",
"599 598 CURVE SMOOTH",
"599 510 LINE",
"655 510 LINE",
"655 668 LINE",
"529 668 LINE"
);
},
{
closed = 1;
nodes = (
"475 411 LINE",
"475 528 LINE",
"421 528 LINE",
"421 481 LINE SMOOTH",
"421 427 OFFCURVE",
"409 411 OFFCURVE",
"351 411 CURVE"
);
},
{
closed = 1;
nodes = (
"409 359 OFFCURVE",
"421 343 OFFCURVE",
"421 289 CURVE SMOOTH",
"421 229 LINE",
"475 229 LINE",
"475 359 LINE",
"351 359 LINE"
);
}
);
width = 740;
},
{
layerId = "EA87A73E-C0FE-4015-8704-0B2406CC7903";
paths = (
{
closed = 1;
nodes = (
"150 0 LINE",
"290 0 LINE",
"290 720 LINE",
"150 720 LINE"
);
},
{
closed = 1;
nodes = (
"40 0 LINE",
"680 0 LINE",
"680 54 LINE",
"40 54 LINE"
);
},
{
closed = 1;
nodes = (
"44 666 LINE",
"670 666 LINE",
"670 720 LINE",
"44 720 LINE"
);
},
{
closed = 1;
nodes = (
"290 352 LINE",
"500 352 LINE",
"500 406 LINE",
"290 406 LINE"
);
},
{
closed = 1;
nodes = (
"680 54 LINE",
"680 240 LINE",
"622 240 LINE",
"622 184 LINE SMOOTH",
"622 83 OFFCURVE",
"599 54 OFFCURVE",
"492 54 CURVE"
);
},
{
closed = 1;
nodes = (
"589 666 OFFCURVE",
"612 637 OFFCURVE",
"612 536 CURVE SMOOTH",
"612 495 LINE",
"670 495 LINE",
"670 666 LINE",
"482 666 LINE"
);
},
{
closed = 1;
nodes = (
"500 406 LINE",
"500 538 LINE",
"444 538 LINE",
"444 526 LINE SMOOTH",
"444 433 OFFCURVE",
"423 406 OFFCURVE",
"324 406 CURVE"
);
},
{
closed = 1;
nodes = (
"423 352 OFFCURVE",
"444 327 OFFCURVE",
"444 242 CURVE SMOOTH",
"444 204 LINE",
"500 204 LINE",
"500 352 LINE",
"324 352 LINE"
);
}
);
width = 750;
},
{
layerId = "DBCC401B-C3AE-4436-9575-31462D2FF699";
paths = (
{
closed = 1;
nodes = (
"150 0 LINE",
"290 0 LINE",
"290 720 LINE",
"150 720 LINE"
);
},
{
closed = 1;
nodes = (
"40 0 LINE",
"680 0 LINE",
"680 54 LINE",
"40 54 LINE"
);
},
{
closed = 1;
nodes = (
"44 666 LINE",
"670 666 LINE",
"670 720 LINE",
"44 720 LINE"
);
},
{
closed = 1;
nodes = (
"290 357 LINE",
"505 357 LINE",
"505 411 LINE",
"290 411 LINE"
);
},
{
closed = 1;
nodes = (
"680 54 LINE",
"680 310 LINE",
"622 310 LINE",
"622 184 LINE SMOOTH",
"622 83 OFFCURVE",
"599 54 OFFCURVE",
"492 54 CURVE"
);
},
{
closed = 1;
nodes = (
"589 666 OFFCURVE",
"612 637 OFFCURVE",
"612 536 CURVE SMOOTH",
"612 440 LINE",
"670 440 LINE",
"670 666 LINE",
"482 666 LINE"
);
},
{
closed = 1;
nodes = (
"505 411 LINE",
"505 578 LINE",
"449 578 LINE",
"449 541 LINE SMOOTH",
"449 440 OFFCURVE",
"426 411 OFFCURVE",
"319 411 CURVE"
);
},
{
closed = 1;
nodes = (
"426 357 OFFCURVE",
"449 328 OFFCURVE",
"449 227 CURVE SMOOTH",
"449 149 LINE",
"505 149 LINE",
"505 357 LINE",
"319 357 LINE"
);
}
);
width = 750;
},
{
layerId = "46ED8887-C39F-4CE4-BD5B-7A231A6BF840";
paths = (
{
closed = 1;
nodes = (
"175 0 LINE",
"235 0 LINE",
"235 720 LINE",
"175 720 LINE"
);
},
{
closed = 1;
nodes = (
"45 0 LINE",
"665 0 LINE",
"665 52 LINE",
"45 52 LINE"
);
},
{
closed = 1;
nodes = (
"49 668 LINE",
"655 668 LINE",
"655 720 LINE",
"49 720 LINE"
);
},
{
closed = 1;
nodes = (
"235 359 LINE",
"485 359 LINE",
"485 411 LINE",
"235 411 LINE"
);
},
{
closed = 1;
nodes = (
"665 52 LINE",
"665 310 LINE",
"609 310 LINE",
"609 122 LINE SMOOTH",
"609 68 OFFCURVE",
"597 52 OFFCURVE",
"539 52 CURVE"
);
},
{
closed = 1;
nodes = (
"587 668 OFFCURVE",
"599 652 OFFCURVE",
"599 598 CURVE SMOOTH",
"599 440 LINE",
"655 440 LINE",
"655 668 LINE",
"529 668 LINE"
);
},
{
closed = 1;
nodes = (
"485 411 LINE",
"485 578 LINE",
"431 578 LINE",
"431 481 LINE SMOOTH",
"431 427 OFFCURVE",
"419 411 OFFCURVE",
"361 411 CURVE"
);
},
{
closed = 1;
nodes = (
"419 359 OFFCURVE",
"431 343 OFFCURVE",
"431 289 CURVE SMOOTH",
"431 154 LINE",
"485 154 LINE",
"485 359 LINE",
"361 359 LINE"
);
}
);
width = 740;
}
);
leftKerningGroup = H;
leftMetricsKey = H;
rightKerningGroup = E;
unicode = 0045;
},
{
glyphname = F;
lastChange = "2020-02-18 13:44:27 +0000";
layers = (
{
layerId = "D79F8ED9-6C56-4538-8DF1-62DD23430BF9";
paths = (
{
closed = 1;
nodes = (
"175 0 LINE",
"235 0 LINE",
"235 720 LINE",
"175 720 LINE"
);
},
{
closed = 1;
nodes = (
"45 0 LINE",
"395 0 LINE",
"395 52 LINE",
"45 52 LINE"
);
},
{
closed = 1;
nodes = (
"49 668 LINE",
"655 668 LINE",
"655 720 LINE",
"49 720 LINE"
);
},
{
closed = 1;
nodes = (
"234 344 LINE",
"479 344 LINE",
"479 396 LINE",
"234 396 LINE"
);
},
{
closed = 1;
nodes = (
"587 668 OFFCURVE",
"599 652 OFFCURVE",
"599 598 CURVE SMOOTH",
"599 490 LINE",
"655 490 LINE",
"655 668 LINE",
"529 668 LINE"
);
},
{
closed = 1;
nodes = (
"479 396 LINE",
"479 503 LINE",
"425 503 LINE",
"425 466 LINE SMOOTH",
"425 412 OFFCURVE",
"413 396 OFFCURVE",
"355 396 CURVE"
);
},
{
closed = 1;
nodes = (
"413 344 OFFCURVE",
"425 328 OFFCURVE",
"425 274 CURVE SMOOTH",
"425 234 LINE",
"479 234 LINE",
"479 344 LINE",
"355 344 LINE"
);
}
);
width = 710;
},
{
layerId = "EA87A73E-C0FE-4015-8704-0B2406CC7903";
paths = (
{
closed = 1;
nodes = (
"150 0 LINE",
"290 0 LINE",
"290 720 LINE",
"150 720 LINE"
);
},
{
closed = 1;
nodes = (
"40 0 LINE",
"430 0 LINE",
"430 54 LINE",
"40 54 LINE"
);
},
{
closed = 1;
nodes = (
"44 666 LINE",
"670 666 LINE",
"670 720 LINE",
"44 720 LINE"
);
},
{
closed = 1;
nodes = (
"289 332 LINE",
"499 332 LINE",
"499 386 LINE",
"289 386 LINE"
);
},
{
closed = 1;
nodes = (
"589 666 OFFCURVE",
"612 637 OFFCURVE",
"612 536 CURVE SMOOTH",
"612 485 LINE",
"670 485 LINE",
"670 666 LINE",
"482 666 LINE"
);
},
{
closed = 1;
nodes = (
"499 386 LINE",
"499 528 LINE",
"443 528 LINE",
"443 516 LINE SMOOTH",
"443 415 OFFCURVE",
"421 386 OFFCURVE",
"318 386 CURVE"
);
},
{
closed = 1;
nodes = (
"421 332 OFFCURVE",
"443 303 OFFCURVE",
"443 202 CURVE SMOOTH",
"443 184 LINE",
"499 184 LINE",
"499 332 LINE",
"318 332 LINE"
);
}
);
width = 720;
},
{
layerId = "DBCC401B-C3AE-4436-9575-31462D2FF699";
paths = (
{
closed = 1;
nodes = (
"150 0 LINE",
"290 0 LINE",
"290 720 LINE",
"150 720 LINE"
);
},
{
closed = 1;
nodes = (
"40 0 LINE",
"480 0 LINE",
"480 54 LINE",
"40 54 LINE"
);
},
{
closed = 1;
nodes = (
"44 666 LINE",
"670 666 LINE",
"670 720 LINE",
"44 720 LINE"
);
},
{
closed = 1;
nodes = (
"289 342 LINE",
"504 342 LINE",
"504 396 LINE",
"289 396 LINE"
);
},
{
closed = 1;
nodes = (
"589 666 OFFCURVE",
"612 637 OFFCURVE",
"612 536 CURVE SMOOTH",
"612 420 LINE",
"670 420 LINE",
"670 666 LINE",
"482 666 LINE"
);
},
{
closed = 1;
nodes = (
"504 396 LINE",
"504 568 LINE",
"448 568 LINE",
"448 526 LINE SMOOTH",
"448 425 OFFCURVE",
"425 396 OFFCURVE",
"318 396 CURVE"
);
},
{
closed = 1;
nodes = (
"425 342 OFFCURVE",
"448 313 OFFCURVE",
"448 212 CURVE SMOOTH",
"448 154 LINE",
"504 154 LINE",
"504 342 LINE",
"318 342 LINE"
);
}
);
width = 720;
},
{
layerId = "46ED8887-C39F-4CE4-BD5B-7A231A6BF840";
paths = (
{
closed = 1;
nodes = (
"175 0 LINE",
"235 0 LINE",
"235 720 LINE",
"175 720 LINE"
);
},
{
closed = 1;
nodes = (
"45 0 LINE",
"455 0 LINE",
"455 52 LINE",
"45 52 LINE"
);
},
{
closed = 1;
nodes = (
"49 668 LINE",
"655 668 LINE",
"655 720 LINE",
"49 720 LINE"
);
},
{
closed = 1;
nodes = (
"234 344 LINE",
"484 344 LINE",
"484 396 LINE",
"234 396 LINE"
);
},
{
closed = 1;
nodes = (
"587 668 OFFCURVE",
"599 652 OFFCURVE",
"599 598 CURVE SMOOTH",
"599 420 LINE",
"655 420 LINE",
"655 668 LINE",
"529 668 LINE"
);
},
{
closed = 1;
nodes = (
"484 396 LINE",
"484 568 LINE",
"430 568 LINE",
"430 466 LINE SMOOTH",
"430 412 OFFCURVE",
"418 396 OFFCURVE",
"360 396 CURVE"
);
},
{
closed = 1;
nodes = (
"418 344 OFFCURVE",
"430 328 OFFCURVE",
"430 274 CURVE SMOOTH",
"430 154 LINE",
"484 154 LINE",
"484 344 LINE",
"360 344 LINE"
);
}
);
width = 710;
}
);
leftKerningGroup = H;
leftMetricsKey = H;
rightKerningGroup = F;
unicode = 0046;
},
{
glyphname = G;
lastChange = "2020-02-18 13:51:16 +0000";
layers = (
{
layerId = "D79F8ED9-6C56-4538-8DF1-62DD23430BF9";
paths = (
{
closed = 1;
nodes = (
"70 360 LINE",
"70 134 OFFCURVE",
"214 -10 OFFCURVE",
"402 -10 CURVE SMOOTH",
"593 -10 OFFCURVE",
"690 103 OFFCURVE",
"690 306 CURVE",
"646 306 LINE",
"646 160 OFFCURVE",
"574 44 OFFCURVE",
"408 44 CURVE SMOOTH",
"248 44 OFFCURVE",
"130 162 OFFCURVE",
"130 360 CURVE"
);
},
{
closed = 1;
nodes = (
"420 306 LINE",
"820 306 LINE",
"820 358 LINE",
"420 358 LINE"
);
},
{
closed = 1;
nodes = (
"662 306 LINE",
"662 0 LINE",
"720 0 LINE",
"720 306 LINE"
);
},
{
closed = 1;
nodes = (
"642 720 LINE",
"642 599 LINE",
"678 490 LINE",
"700 490 LINE",
"700 720 LINE"
);
},
{
closed = 1;
nodes = (
"678 490 LINE",
"666 656 OFFCURVE",
"560 730 OFFCURVE",
"408 730 CURVE SMOOTH",
"213 730 OFFCURVE",
"70 586 OFFCURVE",
"70 360 CURVE",
"130 360 LINE",
"130 554 OFFCURVE",
"249 676 OFFCURVE",
"408 676 CURVE SMOOTH",
"559 676 OFFCURVE",
"625 591 OFFCURVE",
"636 490 CURVE"
);
}
);
width = 860;
},
{
layerId = "EA87A73E-C0FE-4015-8704-0B2406CC7903";
paths = (
{
closed = 1;
nodes = (
"56 356 LINE",
"56 134 OFFCURVE",
"208 -10 OFFCURVE",
"433 -10 CURVE SMOOTH",
"622 -10 OFFCURVE",
"726 109 OFFCURVE",
"726 306 CURVE",
"666 306 LINE",
"666 168 OFFCURVE",
"597 68 OFFCURVE",
"452 68 CURVE SMOOTH",
"309 68 OFFCURVE",
"206 194 OFFCURVE",
"206 370 CURVE"
);
},
{
closed = 1;
nodes = (
"408 306 LINE",
"856 306 LINE",
"856 360 LINE",
"408 360 LINE"
);
},
{
closed = 1;
nodes = (
"696 306 LINE",
"696 0 LINE",
"756 0 LINE",
"756 306 LINE"
);
},
{
closed = 1;
nodes = (
"678 720 LINE",
"678 599 LINE",
"722 485 LINE",
"736 485 LINE",
"736 720 LINE"
);
},
{
closed = 1;
nodes = (
"722 485 LINE",
"710 642 OFFCURVE",
"595 730 OFFCURVE",
"434 730 CURVE SMOOTH",
"209 730 OFFCURVE",
"56 582 OFFCURVE",
"56 356 CURVE",
"206 370 LINE",
"206 553 OFFCURVE",
"307 674 OFFCURVE",
"443 674 CURVE SMOOTH",
"586 674 OFFCURVE",
"659 588 OFFCURVE",
"672 485 CURVE"
);
}
);
width = 881;
},
{
layerId = "DBCC401B-C3AE-4436-9575-31462D2FF699";
paths = (
{
closed = 1;
nodes = (
"56 356 LINE",
"56 134 OFFCURVE",
"208 -10 OFFCURVE",
"433 -10 CURVE SMOOTH",
"622 -10 OFFCURVE",
"726 109 OFFCURVE",
"726 306 CURVE",
"666 306 LINE",
"666 168 OFFCURVE",
"597 68 OFFCURVE",
"452 68 CURVE SMOOTH",
"309 68 OFFCURVE",
"206 194 OFFCURVE",
"206 370 CURVE"
);
},
{
closed = 1;
nodes = (
"408 306 LINE",
"856 306 LINE",
"856 360 LINE",
"408 360 LINE"
);
},
{
closed = 1;
nodes = (
"696 306 LINE",
"696 0 LINE",
"756 0 LINE",
"756 306 LINE"
);
},
{
closed = 1;
nodes = (
"678 720 LINE",
"678 599 LINE",
"722 470 LINE",
"736 470 LINE",
"736 720 LINE"
);
},
{
closed = 1;
nodes = (
"722 470 LINE",
"710 637 OFFCURVE",
"595 730 OFFCURVE",
"434 730 CURVE SMOOTH",
"209 730 OFFCURVE",
"56 582 OFFCURVE",
"56 356 CURVE",
"206 370 LINE",
"206 553 OFFCURVE",
"307 674 OFFCURVE",
"443 674 CURVE SMOOTH",
"586 674 OFFCURVE",
"659 581 OFFCURVE",
"672 470 CURVE"
);
}
);
width = 881;
},
{
layerId = "46ED8887-C39F-4CE4-BD5B-7A231A6BF840";
paths = (
{
closed = 1;
nodes = (
"70 360 LINE",
"70 134 OFFCURVE",
"214 -10 OFFCURVE",
"402 -10 CURVE SMOOTH",
"593 -10 OFFCURVE",
"690 103 OFFCURVE",
"690 306 CURVE",
"646 306 LINE",
"646 160 OFFCURVE",
"574 44 OFFCURVE",
"408 44 CURVE SMOOTH",
"248 44 OFFCURVE",
"130 162 OFFCURVE",
"130 360 CURVE"
);
},
{
closed = 1;
nodes = (
"380 306 LINE",
"820 306 LINE",
"820 358 LINE",
"380 358 LINE"
);
},
{
closed = 1;
nodes = (
"662 306 LINE",
"662 0 LINE",
"720 0 LINE",
"720 306 LINE"
);
},
{
closed = 1;
nodes = (
"642 720 LINE",
"642 599 LINE",
"678 470 LINE",
"700 470 LINE",
"700 720 LINE"
);
},
{
closed = 1;
nodes = (
"678 470 LINE",
"666 650 OFFCURVE",
"560 730 OFFCURVE",
"408 730 CURVE SMOOTH",
"213 730 OFFCURVE",
"70 586 OFFCURVE",
"70 360 CURVE",
"130 360 LINE",
"130 554 OFFCURVE",
"249 676 OFFCURVE",
"408 676 CURVE SMOOTH",
"559 676 OFFCURVE",
"625 582 OFFCURVE",
"636 470 CURVE"
);
}
);
width = 860;
}
);
leftKerningGroup = O;
leftMetricsKey = O;
rightKerningGroup = G;
unicode = 0047;
},
{
glyphname = H;
lastChange = "2020-02-18 12:14:45 +0000";
layers = (
{
layerId = "D79F8ED9-6C56-4538-8DF1-62DD23430BF9";
paths = (
{
closed = 1;
nodes = (
"175 0 LINE",
"235 0 LINE",
"235 720 LINE",
"175 720 LINE"
);
},
{
closed = 1;
nodes = (
"45 0 LINE",
"375 0 LINE",
"375 52 LINE",
"45 52 LINE"
);
},
{
closed = 1;
nodes = (
"49 668 LINE",
"371 668 LINE",
"371 720 LINE",
"49 720 LINE"
);
},
{
closed = 1;
nodes = (
"635 0 LINE",
"695 0 LINE",
"695 720 LINE",
"635 720 LINE"
);
},
{
closed = 1;
nodes = (
"495 0 LINE",
"825 0 LINE",
"825 52 LINE",
"495 52 LINE"
);
},
{
closed = 1;
nodes = (
"499 668 LINE",
"821 668 LINE",
"821 720 LINE",
"499 720 LINE"
);
},
{
closed = 1;
nodes = (
"235 346 LINE",
"635 346 LINE",
"635 398 LINE",
"235 398 LINE"
);
}
);
width = 870;
},
{
layerId = "EA87A73E-C0FE-4015-8704-0B2406CC7903";
paths = (
{
closed = 1;
nodes = (
"150 0 LINE",
"290 0 LINE",
"290 720 LINE",
"150 720 LINE"
);
},
{
closed = 1;
nodes = (
"40 0 LINE",
"410 0 LINE",
"410 54 LINE",
"40 54 LINE"
);
},
{
closed = 1;
nodes = (
"44 666 LINE",
"406 666 LINE",
"406 720 LINE",
"44 720 LINE"
);
},
{
closed = 1;
nodes = (
"610 0 LINE",
"750 0 LINE",
"750 720 LINE",
"610 720 LINE"
);
},
{
closed = 1;
nodes = (
"490 0 LINE",
"860 0 LINE",
"860 54 LINE",
"490 54 LINE"
);
},
{
closed = 1;
nodes = (
"494 666 LINE",
"856 666 LINE",
"856 720 LINE",
"494 720 LINE"
);
},
{
closed = 1;
nodes = (
"290 346 LINE",
"610 346 LINE",
"610 400 LINE",
"290 400 LINE"
);
}
);
width = 900;
},
{
layerId = "DBCC401B-C3AE-4436-9575-31462D2FF699";
paths = (
{
closed = 1;
nodes = (
"150 0 LINE",
"290 0 LINE",
"290 720 LINE",
"150 720 LINE"
);
},
{
closed = 1;
nodes = (
"40 0 LINE",
"410 0 LINE",
"410 54 LINE",
"40 54 LINE"
);
},
{
closed = 1;
nodes = (
"44 666 LINE",
"406 666 LINE",
"406 720 LINE",
"44 720 LINE"
);
},
{
closed = 1;
nodes = (
"610 0 LINE",
"750 0 LINE",
"750 720 LINE",
"610 720 LINE"
);
},
{
closed = 1;
nodes = (
"490 0 LINE",
"860 0 LINE",
"860 54 LINE",
"490 54 LINE"
);
},
{
closed = 1;
nodes = (
"494 666 LINE",
"856 666 LINE",
"856 720 LINE",
"494 720 LINE"
);
},
{
closed = 1;
nodes = (
"290 346 LINE",
"610 346 LINE",
"610 400 LINE",
"290 400 LINE"
);
}
);
width = 900;
},
{
layerId = "46ED8887-C39F-4CE4-BD5B-7A231A6BF840";
paths = (
{
closed = 1;
nodes = (
"175 0 LINE",
"235 0 LINE",
"235 720 LINE",
"175 720 LINE"
);
},
{
closed = 1;
nodes = (
"45 0 LINE",
"375 0 LINE",
"375 52 LINE",
"45 52 LINE"
);
},
{
closed = 1;
nodes = (
"49 668 LINE",
"371 668 LINE",
"371 720 LINE",
"49 720 LINE"
);
},
{
closed = 1;
nodes = (
"635 0 LINE",
"695 0 LINE",
"695 720 LINE",
"635 720 LINE"
);
},
{
closed = 1;
nodes = (
"495 0 LINE",
"825 0 LINE",
"825 52 LINE",
"495 52 LINE"
);
},
{
closed = 1;
nodes = (
"499 668 LINE",
"821 668 LINE",
"821 720 LINE",
"499 720 LINE"
);
},
{
closed = 1;
nodes = (
"235 346 LINE",
"635 346 LINE",
"635 398 LINE",
"235 398 LINE"
);
}
);
width = 870;
}
);
leftKerningGroup = H;
rightKerningGroup = H;
unicode = 0048;
},
{
glyphname = I;
lastChange = "2020-02-18 12:14:45 +0000";
layers = (
{
layerId = "D79F8ED9-6C56-4538-8DF1-62DD23430BF9";
paths = (
{
closed = 1;
nodes = (
"205 0 LINE",
"265 0 LINE",
"265 720 LINE",
"205 720 LINE"
);
},
{
closed = 1;
nodes = (
"45 0 LINE",
"425 0 LINE",
"425 52 LINE",
"45 52 LINE"
);
},
{
closed = 1;
nodes = (
"49 668 LINE",
"421 668 LINE",
"421 720 LINE",
"49 720 LINE"
);
}
);
width = 470;
},
{
layerId = "EA87A73E-C0FE-4015-8704-0B2406CC7903";
paths = (
{
closed = 1;
nodes = (
"170 0 LINE",
"310 0 LINE",
"310 720 LINE",
"170 720 LINE"
);
},
{
closed = 1;
nodes = (
"40 0 LINE",
"440 0 LINE",
"440 54 LINE",
"40 54 LINE"
);
},
{
closed = 1;
nodes = (
"44 666 LINE",
"436 666 LINE",
"436 720 LINE",
"44 720 LINE"
);
}
);
width = 480;
},
{
layerId = "DBCC401B-C3AE-4436-9575-31462D2FF699";
paths = (
{
closed = 1;
nodes = (
"170 0 LINE",
"310 0 LINE",
"310 720 LINE",
"170 720 LINE"
);
},
{
closed = 1;
nodes = (
"40 0 LINE",
"440 0 LINE",
"440 54 LINE",
"40 54 LINE"
);
},
{
closed = 1;
nodes = (
"44 666 LINE",
"436 666 LINE",
"436 720 LINE",
"44 720 LINE"
);
}
);
width = 480;
},
{
layerId = "46ED8887-C39F-4CE4-BD5B-7A231A6BF840";
paths = (
{
closed = 1;
nodes = (
"205 0 LINE",
"265 0 LINE",
"265 720 LINE",
"205 720 LINE"
);
},
{
closed = 1;
nodes = (
"45 0 LINE",
"425 0 LINE",
"425 52 LINE",
"45 52 LINE"
);
},
{
closed = 1;
nodes = (
"49 668 LINE",
"421 668 LINE",
"421 720 LINE",
"49 720 LINE"
);
}
);
width = 470;
}
);
leftKerningGroup = I;
leftMetricsKey = H;
rightKerningGroup = I;
rightMetricsKey = H;
unicode = 0049;
},
{
glyphname = J;
lastChange = "2020-02-18 13:44:30 +0000";
layers = (
{
layerId = "D79F8ED9-6C56-4538-8DF1-62DD23430BF9";
paths = (
{
closed = 1;
nodes = (
"398 720 LINE",
"398 196 LINE SMOOTH",
"398 100 OFFCURVE",
"346 44 OFFCURVE",
"258 44 CURVE SMOOTH",
"170 44 OFFCURVE",
"118 100 OFFCURVE",
"118 196 CURVE SMOOTH",
"118 250 LINE",
"60 250 LINE",
"60 196 LINE SMOOTH",
"60 68 OFFCURVE",
"131 -10 OFFCURVE",
"259 -10 CURVE SMOOTH",
"387 -10 OFFCURVE",
"458 68 OFFCURVE",
"458 196 CURVE SMOOTH",
"458 720 LINE"
);
},
{
closed = 1;
nodes = (
"182 668 LINE",
"584 668 LINE",
"584 720 LINE",
"182 720 LINE"
);
}
);
width = 619;
},
{
layerId = "EA87A73E-C0FE-4015-8704-0B2406CC7903";
paths = (
{
closed = 1;
nodes = (
"335 720 LINE",
"335 200 LINE SMOOTH",
"335 116 OFFCURVE",
"298 62 OFFCURVE",
"220 62 CURVE SMOOTH",
"142 62 OFFCURVE",
"105 116 OFFCURVE",
"105 200 CURVE SMOOTH",
"105 310 LINE",
"45 310 LINE",
"45 202 LINE SMOOTH",
"45 84 OFFCURVE",
"104 -10 OFFCURVE",
"260 -10 CURVE SMOOTH",
"416 -10 OFFCURVE",
"475 84 OFFCURVE",
"475 202 CURVE SMOOTH",
"475 720 LINE"
);
},
{
closed = 1;
nodes = (
"165 666 LINE",
"581 666 LINE",
"581 720 LINE",
"165 720 LINE"
);
}
);
width = 606;
},
{
layerId = "DBCC401B-C3AE-4436-9575-31462D2FF699";
paths = (
{
closed = 1;
nodes = (
"335 720 LINE",
"335 200 LINE SMOOTH",
"335 116 OFFCURVE",
"298 62 OFFCURVE",
"220 62 CURVE SMOOTH",
"142 62 OFFCURVE",
"105 116 OFFCURVE",
"105 200 CURVE SMOOTH",
"105 310 LINE",
"45 310 LINE",
"45 202 LINE SMOOTH",
"45 84 OFFCURVE",
"104 -10 OFFCURVE",
"260 -10 CURVE SMOOTH",
"416 -10 OFFCURVE",
"475 84 OFFCURVE",
"475 202 CURVE SMOOTH",
"475 720 LINE"
);
},
{
closed = 1;
nodes = (
"115 666 LINE",
"581 666 LINE",
"581 720 LINE",
"115 720 LINE"
);
}
);
width = 606;
},
{
layerId = "46ED8887-C39F-4CE4-BD5B-7A231A6BF840";
paths = (
{
closed = 1;
nodes = (
"398 720 LINE",
"398 196 LINE SMOOTH",
"398 100 OFFCURVE",
"346 44 OFFCURVE",
"258 44 CURVE SMOOTH",
"170 44 OFFCURVE",
"118 100 OFFCURVE",
"118 196 CURVE SMOOTH",
"118 310 LINE",
"60 310 LINE",
"60 196 LINE SMOOTH",
"60 68 OFFCURVE",
"131 -10 OFFCURVE",
"259 -10 CURVE SMOOTH",
"387 -10 OFFCURVE",
"458 68 OFFCURVE",
"458 196 CURVE SMOOTH",
"458 720 LINE"
);
},
{
closed = 1;
nodes = (
"142 668 LINE",
"584 668 LINE",
"584 720 LINE",
"142 720 LINE"
);
}
);
width = 619;
}
);
leftKerningGroup = J;
rightKerningGroup = U;
rightMetricsKey = U;
unicode = 004A;
},
{
glyphname = K;
lastChange = "2020-02-18 12:14:45 +0000";
layers = (
{
layerId = "D79F8ED9-6C56-4538-8DF1-62DD23430BF9";
paths = (
{
closed = 1;
nodes = (
"175 0 LINE",
"235 0 LINE",
"235 720 LINE",
"175 720 LINE"
);
},
{
closed = 1;
nodes = (
"45 0 LINE",
"375 0 LINE",
"375 52 LINE",
"45 52 LINE"
);
},
{
closed = 1;
nodes = (
"49 668 LINE",
"371 668 LINE",
"371 720 LINE",
"49 720 LINE"
);
},
{
closed = 1;
nodes = (
"721 668 LINE",
"634 668 LINE",
"188 293 LINE",
"225 251 LINE"
);
},
{
closed = 1;
nodes = (
"817 720 LINE",
"498 720 LINE",
"498 668 LINE",
"817 668 LINE"
);
},
{
closed = 1;
nodes = (
"506 52 LINE",
"506 0 LINE",
"827 0 LINE",
"827 52 LINE"
);
},
{
closed = 1;
nodes = (
"354 379 LINE",
"646 52 LINE",
"727 52 LINE",
"398 417 LINE"
);
}
);
width = 842;
},
{
layerId = "EA87A73E-C0FE-4015-8704-0B2406CC7903";
paths = (
{
closed = 1;
nodes = (
"150 0 LINE",
"290 0 LINE",
"290 720 LINE",
"150 720 LINE"
);
},
{
closed = 1;
nodes = (
"40 0 LINE",
"410 0 LINE",
"410 54 LINE",
"40 54 LINE"
);
},
{
closed = 1;
nodes = (
"44 666 LINE",
"406 666 LINE",
"406 720 LINE",
"44 720 LINE"
);
},
{
closed = 1;
nodes = (
"756 666 LINE",
"665 666 LINE",
"217 294 LINE",
"257 252 LINE"
);
},
{
closed = 1;
nodes = (
"832 720 LINE",
"549 720 LINE",
"549 666 LINE",
"832 666 LINE"
);
},
{
closed = 1;
nodes = (
"480 54 LINE",
"480 0 LINE",
"852 0 LINE",
"852 54 LINE"
);
},
{
closed = 1;
nodes = (
"353 379 LINE",
"600 54 LINE",
"772 54 LINE",
"452 466 LINE"
);
}
);
width = 872;
},
{
layerId = "DBCC401B-C3AE-4436-9575-31462D2FF699";
paths = (
{
closed = 1;
nodes = (
"150 0 LINE",
"290 0 LINE",
"290 720 LINE",
"150 720 LINE"
);
},
{
closed = 1;
nodes = (
"40 0 LINE",
"410 0 LINE",
"410 54 LINE",
"40 54 LINE"
);
},
{
closed = 1;
nodes = (
"44 666 LINE",
"406 666 LINE",
"406 720 LINE",
"44 720 LINE"
);
},
{
closed = 1;
nodes = (
"756 666 LINE",
"665 666 LINE",
"217 294 LINE",
"257 252 LINE"
);
},
{
closed = 1;
nodes = (
"832 720 LINE",
"549 720 LINE",
"549 666 LINE",
"832 666 LINE"
);
},
{
closed = 1;
nodes = (
"480 54 LINE",
"480 0 LINE",
"852 0 LINE",
"852 54 LINE"
);
},
{
closed = 1;
nodes = (
"353 379 LINE",
"600 54 LINE",
"772 54 LINE",
"452 466 LINE"
);
}
);
width = 872;
},
{
layerId = "46ED8887-C39F-4CE4-BD5B-7A231A6BF840";
paths = (
{
closed = 1;
nodes = (
"175 0 LINE",
"235 0 LINE",
"235 720 LINE",
"175 720 LINE"
);
},
{
closed = 1;
nodes = (
"45 0 LINE",
"375 0 LINE",
"375 52 LINE",
"45 52 LINE"
);
},
{
closed = 1;
nodes = (
"49 668 LINE",
"371 668 LINE",
"371 720 LINE",
"49 720 LINE"
);
},
{
closed = 1;
nodes = (
"721 668 LINE",
"634 668 LINE",
"188 293 LINE",
"225 251 LINE"
);
},
{
closed = 1;
nodes = (
"817 720 LINE",
"498 720 LINE",
"498 668 LINE",
"817 668 LINE"
);
},
{
closed = 1;
nodes = (
"506 52 LINE",
"506 0 LINE",
"827 0 LINE",
"827 52 LINE"
);
},
{
closed = 1;
nodes = (
"354 379 LINE",
"646 52 LINE",
"727 52 LINE",
"398 417 LINE"
);
}
);
width = 842;
}
);
leftKerningGroup = H;
leftMetricsKey = H;
rightKerningGroup = K;
unicode = 004B;
},
{
glyphname = L;
lastChange = "2020-02-18 13:44:33 +0000";
layers = (
{
layerId = "D79F8ED9-6C56-4538-8DF1-62DD23430BF9";
paths = (
{
closed = 1;
nodes = (
"175 0 LINE",
"235 0 LINE",
"235 720 LINE",
"175 720 LINE"
);
},
{
closed = 1;
nodes = (
"45 0 LINE",
"655 0 LINE",
"655 52 LINE",
"45 52 LINE"
);
},
{
closed = 1;
nodes = (
"49 668 LINE",
"381 668 LINE",
"381 720 LINE",
"49 720 LINE"
);
},
{
closed = 1;
nodes = (
"655 52 LINE",
"655 230 LINE",
"597 230 LINE",
"597 122 LINE SMOOTH",
"597 68 OFFCURVE",
"585 52 OFFCURVE",
"527 52 CURVE"
);
}
);
width = 710;
},
{
layerId = "EA87A73E-C0FE-4015-8704-0B2406CC7903";
paths = (
{
closed = 1;
nodes = (
"150 0 LINE",
"290 0 LINE",
"290 720 LINE",
"150 720 LINE"
);
},
{
closed = 1;
nodes = (
"40 0 LINE",
"670 0 LINE",
"670 54 LINE",
"40 54 LINE"
);
},
{
closed = 1;
nodes = (
"44 666 LINE",
"406 666 LINE",
"406 720 LINE",
"44 720 LINE"
);
},
{
closed = 1;
nodes = (
"670 54 LINE",
"670 240 LINE",
"612 240 LINE",
"612 174 LINE SMOOTH",
"612 81 OFFCURVE",
"591 54 OFFCURVE",
"492 54 CURVE"
);
}
);
width = 720;
},
{
layerId = "DBCC401B-C3AE-4436-9575-31462D2FF699";
paths = (
{
closed = 1;
nodes = (
"150 0 LINE",
"290 0 LINE",
"290 720 LINE",
"150 720 LINE"
);
},
{
closed = 1;
nodes = (
"40 0 LINE",
"670 0 LINE",
"670 54 LINE",
"40 54 LINE"
);
},
{
closed = 1;
nodes = (
"44 666 LINE",
"456 666 LINE",
"456 720 LINE",
"44 720 LINE"
);
},
{
closed = 1;
nodes = (
"670 54 LINE",
"670 310 LINE",
"612 310 LINE",
"612 174 LINE SMOOTH",
"612 81 OFFCURVE",
"591 54 OFFCURVE",
"492 54 CURVE"
);
}
);
width = 720;
},
{
layerId = "46ED8887-C39F-4CE4-BD5B-7A231A6BF840";
paths = (
{
closed = 1;
nodes = (
"175 0 LINE",
"235 0 LINE",
"235 720 LINE",
"175 720 LINE"
);
},
{
closed = 1;
nodes = (
"45 0 LINE",
"655 0 LINE",
"655 52 LINE",
"45 52 LINE"
);
},
{
closed = 1;
nodes = (
"49 668 LINE",
"441 668 LINE",
"441 720 LINE",
"49 720 LINE"
);
},
{
closed = 1;
nodes = (
"655 52 LINE",
"655 310 LINE",
"597 310 LINE",
"597 122 LINE SMOOTH",
"597 68 OFFCURVE",
"585 52 OFFCURVE",
"527 52 CURVE"
);
}
);
width = 710;
}
);
leftKerningGroup = H;
leftMetricsKey = H;
rightKerningGroup = L;
unicode = 004C;
},
{
glyphname = M;
lastChange = "2020-02-18 12:14:45 +0000";
layers = (
{
layerId = "D79F8ED9-6C56-4538-8DF1-62DD23430BF9";
paths = (
{
closed = 1;
nodes = (
"175 0 LINE",
"235 0 LINE",
"235 668 LINE",
"175 668 LINE"
);
},
{
closed = 1;
nodes = (
"45 0 LINE",
"370 0 LINE",
"370 52 LINE",
"45 52 LINE"
);
},
{
closed = 1;
nodes = (
"49 668 LINE",
"235 668 LINE",
"235 720 LINE",
"49 720 LINE"
);
},
{
closed = 1;
nodes = (
"181 720 LINE",
"519 0 LINE",
"561 0 LINE",
"558 58 LINE",
"247 720 LINE"
);
},
{
closed = 1;
nodes = (
"542 80 LINE",
"537 0 LINE",
"569 0 LINE",
"905 720 LINE",
"841 720 LINE"
);
},
{
closed = 1;
nodes = (
"851 0 LINE",
"911 0 LINE",
"911 720 LINE",
"851 720 LINE"
);
},
{
closed = 1;
nodes = (
"716 0 LINE",
"1041 0 LINE",
"1041 52 LINE",
"716 52 LINE"
);
},
{
closed = 1;
nodes = (
"887 668 LINE",
"1037 668 LINE",
"1037 720 LINE",
"887 720 LINE"
);
}
);
width = 1086;
},
{
layerId = "EA87A73E-C0FE-4015-8704-0B2406CC7903";
paths = (
{
closed = 1;
nodes = (
"170 0 LINE",
"230 0 LINE",
"230 666 LINE",
"170 666 LINE"
);
},
{
closed = 1;
nodes = (
"40 0 LINE",
"360 0 LINE",
"360 54 LINE",
"40 54 LINE"
);
},
{
closed = 1;
nodes = (
"44 666 LINE",
"230 666 LINE",
"230 720 LINE",
"44 720 LINE"
);
},
{
closed = 1;
nodes = (
"166 720 LINE",
"504 0 LINE",
"546 0 LINE",
"594 119 LINE",
"312 720 LINE"
);
},
{
closed = 1;
nodes = (
"529 80 LINE",
"522 0 LINE",
"556 0 LINE",
"892 720 LINE",
"828 720 LINE"
);
},
{
closed = 1;
nodes = (
"828 0 LINE",
"968 0 LINE",
"968 720 LINE",
"828 720 LINE"
);
},
{
closed = 1;
nodes = (
"698 0 LINE",
"1098 0 LINE",
"1098 54 LINE",
"698 54 LINE"
);
},
{
closed = 1;
nodes = (
"864 666 LINE",
"1094 666 LINE",
"1094 720 LINE",
"864 720 LINE"
);
}
);
width = 1138;
},
{
layerId = "DBCC401B-C3AE-4436-9575-31462D2FF699";
paths = (
{
closed = 1;
nodes = (
"170 0 LINE",
"230 0 LINE",
"230 666 LINE",
"170 666 LINE"
);
},
{
closed = 1;
nodes = (
"40 0 LINE",
"360 0 LINE",
"360 54 LINE",
"40 54 LINE"
);
},
{
closed = 1;
nodes = (
"44 666 LINE",
"230 666 LINE",
"230 720 LINE",
"44 720 LINE"
);
},
{
closed = 1;
nodes = (
"166 720 LINE",
"504 0 LINE",
"546 0 LINE",
"594 119 LINE",
"312 720 LINE"
);
},
{
closed = 1;
nodes = (
"529 80 LINE",
"522 0 LINE",
"556 0 LINE",
"892 720 LINE",
"828 720 LINE"
);
},
{
closed = 1;
nodes = (
"828 0 LINE",
"968 0 LINE",
"968 720 LINE",
"828 720 LINE"
);
},
{
closed = 1;
nodes = (
"698 0 LINE",
"1098 0 LINE",
"1098 54 LINE",
"698 54 LINE"
);
},
{
closed = 1;
nodes = (
"864 666 LINE",
"1094 666 LINE",
"1094 720 LINE",
"864 720 LINE"
);
}
);
width = 1138;
},
{
layerId = "46ED8887-C39F-4CE4-BD5B-7A231A6BF840";
paths = (
{
closed = 1;
nodes = (
"175 0 LINE",
"235 0 LINE",
"235 668 LINE",
"175 668 LINE"
);
},
{
closed = 1;
nodes = (
"45 0 LINE",
"370 0 LINE",
"370 52 LINE",
"45 52 LINE"
);
},
{
closed = 1;
nodes = (
"49 668 LINE",
"235 668 LINE",
"235 720 LINE",
"49 720 LINE"
);
},
{
closed = 1;
nodes = (
"181 720 LINE",
"519 0 LINE",
"561 0 LINE",
"558 58 LINE",
"247 720 LINE"
);
},
{
closed = 1;
nodes = (
"542 80 LINE",
"537 0 LINE",
"569 0 LINE",
"905 720 LINE",
"841 720 LINE"
);
},
{
closed = 1;
nodes = (
"851 0 LINE",
"911 0 LINE",
"911 720 LINE",
"851 720 LINE"
);
},
{
closed = 1;
nodes = (
"716 0 LINE",
"1041 0 LINE",
"1041 52 LINE",
"716 52 LINE"
);
},
{
closed = 1;
nodes = (
"887 668 LINE",
"1037 668 LINE",
"1037 720 LINE",
"887 720 LINE"
);
}
);
width = 1086;
}
);
leftKerningGroup = H;
leftMetricsKey = H;
rightKerningGroup = H;
rightMetricsKey = H;
unicode = 004D;
},
{
glyphname = N;
lastChange = "2020-02-18 12:14:45 +0000";
layers = (
{
layerId = "D79F8ED9-6C56-4538-8DF1-62DD23430BF9";
paths = (
{
closed = 1;
nodes = (
"175 0 LINE",
"235 0 LINE",
"235 668 LINE",
"175 668 LINE"
);
},
{
closed = 1;
nodes = (
"45 0 LINE",
"375 0 LINE",
"375 52 LINE",
"45 52 LINE"
);
},
{
closed = 1;
nodes = (
"49 668 LINE",
"235 668 LINE",
"235 720 LINE",
"49 720 LINE"
);
},
{
closed = 1;
nodes = (
"165 720 LINE",
"671 0 LINE",
"705 53 LINE",
"236 720 LINE"
);
},
{
closed = 1;
nodes = (
"671 0 LINE",
"731 0 LINE",
"731 668 LINE",
"671 668 LINE"
);
},
{
closed = 1;
nodes = (
"535 668 LINE",
"857 668 LINE",
"857 720 LINE",
"535 720 LINE"
);
}
);
width = 892;
},
{
layerId = "EA87A73E-C0FE-4015-8704-0B2406CC7903";
paths = (
{
closed = 1;
nodes = (
"150 0 LINE",
"210 0 LINE",
"210 666 LINE",
"150 666 LINE"
);
},
{
closed = 1;
nodes = (
"40 0 LINE",
"330 0 LINE",
"330 54 LINE",
"40 54 LINE"
);
},
{
closed = 1;
nodes = (
"44 666 LINE",
"210 666 LINE",
"210 720 LINE",
"44 720 LINE"
);
},
{
closed = 1;
nodes = (
"110 720 LINE",
"676 0 LINE",
"699 191 LINE",
"283 720 LINE"
);
},
{
closed = 1;
nodes = (
"676 0 LINE",
"736 0 LINE",
"736 666 LINE",
"676 666 LINE"
);
},
{
closed = 1;
nodes = (
"560 666 LINE",
"842 666 LINE",
"842 720 LINE",
"560 720 LINE"
);
}
);
width = 867;
},
{
layerId = "DBCC401B-C3AE-4436-9575-31462D2FF699";
paths = (
{
closed = 1;
nodes = (
"150 0 LINE",
"210 0 LINE",
"210 666 LINE",
"150 666 LINE"
);
},
{
closed = 1;
nodes = (
"40 0 LINE",
"330 0 LINE",
"330 54 LINE",
"40 54 LINE"
);
},
{
closed = 1;
nodes = (
"44 666 LINE",
"210 666 LINE",
"210 720 LINE",
"44 720 LINE"
);
},
{
closed = 1;
nodes = (
"110 720 LINE",
"676 0 LINE",
"699 191 LINE",
"283 720 LINE"
);
},
{
closed = 1;
nodes = (
"676 0 LINE",
"736 0 LINE",
"736 666 LINE",
"676 666 LINE"
);
},
{
closed = 1;
nodes = (
"560 666 LINE",
"842 666 LINE",
"842 720 LINE",
"560 720 LINE"
);
}
);
width = 867;
},
{
layerId = "46ED8887-C39F-4CE4-BD5B-7A231A6BF840";
paths = (
{
closed = 1;
nodes = (
"175 0 LINE",
"235 0 LINE",
"235 668 LINE",
"175 668 LINE"
);
},
{
closed = 1;
nodes = (
"45 0 LINE",
"375 0 LINE",
"375 52 LINE",
"45 52 LINE"
);
},
{
closed = 1;
nodes = (
"49 668 LINE",
"235 668 LINE",
"235 720 LINE",
"49 720 LINE"
);
},
{
closed = 1;
nodes = (
"165 720 LINE",
"671 0 LINE",
"705 53 LINE",
"236 720 LINE"
);
},
{
closed = 1;
nodes = (
"671 0 LINE",
"731 0 LINE",
"731 668 LINE",
"671 668 LINE"
);
},
{
closed = 1;
nodes = (
"535 668 LINE",
"857 668 LINE",
"857 720 LINE",
"535 720 LINE"
);
}
);
width = 892;
}
);
leftKerningGroup = H;
leftMetricsKey = H;
rightKerningGroup = N;
rightMetricsKey = U;
unicode = 004E;
},
{
glyphname = O;
lastChange = "2020-02-18 12:14:45 +0000";
layers = (
{
layerId = "D79F8ED9-6C56-4538-8DF1-62DD23430BF9";
paths = (
{
closed = 1;
nodes = (
"634 -10 OFFCURVE",
"782 134 OFFCURVE",
"782 360 CURVE SMOOTH",
"782 586 OFFCURVE",
"634 730 OFFCURVE",
"426 730 CURVE SMOOTH",
"218 730 OFFCURVE",
"70 586 OFFCURVE",
"70 360 CURVE SMOOTH",
"70 134 OFFCURVE",
"218 -10 OFFCURVE",
"426 -10 CURVE SMOOTH"
);
},
{
closed = 1;
nodes = (
"253 44 OFFCURVE",
"130 170 OFFCURVE",
"130 362 CURVE SMOOTH",
"130 554 OFFCURVE",
"254 676 OFFCURVE",
"424 676 CURVE SMOOTH",
"599 676 OFFCURVE",
"722 550 OFFCURVE",
"722 358 CURVE SMOOTH",
"722 166 OFFCURVE",
"598 44 OFFCURVE",
"428 44 CURVE SMOOTH"
);
}
);
width = 852;
},
{
layerId = "EA87A73E-C0FE-4015-8704-0B2406CC7903";
paths = (
{
closed = 1;
nodes = (
"676 -10 OFFCURVE",
"836 134 OFFCURVE",
"836 360 CURVE SMOOTH",
"836 586 OFFCURVE",
"676 730 OFFCURVE",
"446 730 CURVE SMOOTH",
"216 730 OFFCURVE",
"56 586 OFFCURVE",
"56 360 CURVE SMOOTH",
"56 134 OFFCURVE",
"216 -10 OFFCURVE",
"446 -10 CURVE SMOOTH"
);
},
{
closed = 1;
nodes = (
"308 46 OFFCURVE",
"206 175 OFFCURVE",
"206 372 CURVE SMOOTH",
"206 557 OFFCURVE",
"303 674 OFFCURVE",
"438 674 CURVE SMOOTH",
"584 674 OFFCURVE",
"686 545 OFFCURVE",
"686 348 CURVE SMOOTH",
"686 163 OFFCURVE",
"589 46 OFFCURVE",
"454 46 CURVE SMOOTH"
);
}
);
width = 892;
},
{
layerId = "DBCC401B-C3AE-4436-9575-31462D2FF699";
paths = (
{
closed = 1;
nodes = (
"676 -10 OFFCURVE",
"836 134 OFFCURVE",
"836 360 CURVE SMOOTH",
"836 586 OFFCURVE",
"676 730 OFFCURVE",
"446 730 CURVE SMOOTH",
"216 730 OFFCURVE",
"56 586 OFFCURVE",
"56 360 CURVE SMOOTH",
"56 134 OFFCURVE",
"216 -10 OFFCURVE",
"446 -10 CURVE SMOOTH"
);
},
{
closed = 1;
nodes = (
"308 46 OFFCURVE",
"206 175 OFFCURVE",
"206 372 CURVE SMOOTH",
"206 557 OFFCURVE",
"303 674 OFFCURVE",
"438 674 CURVE SMOOTH",
"584 674 OFFCURVE",
"686 545 OFFCURVE",
"686 348 CURVE SMOOTH",
"686 163 OFFCURVE",
"589 46 OFFCURVE",
"454 46 CURVE SMOOTH"
);
}
);
width = 892;
},
{
layerId = "46ED8887-C39F-4CE4-BD5B-7A231A6BF840";
paths = (
{
closed = 1;
nodes = (
"634 -10 OFFCURVE",
"782 134 OFFCURVE",
"782 360 CURVE SMOOTH",
"782 586 OFFCURVE",
"634 730 OFFCURVE",
"426 730 CURVE SMOOTH",
"218 730 OFFCURVE",
"70 586 OFFCURVE",
"70 360 CURVE SMOOTH",
"70 134 OFFCURVE",
"218 -10 OFFCURVE",
"426 -10 CURVE SMOOTH"
);
},
{
closed = 1;
nodes = (
"253 44 OFFCURVE",
"130 170 OFFCURVE",
"130 362 CURVE SMOOTH",
"130 554 OFFCURVE",
"254 676 OFFCURVE",
"424 676 CURVE SMOOTH",
"599 676 OFFCURVE",
"722 550 OFFCURVE",
"722 358 CURVE SMOOTH",
"722 166 OFFCURVE",
"598 44 OFFCURVE",
"428 44 CURVE SMOOTH"
);
}
);
width = 852;
}
);
leftKerningGroup = O;
rightKerningGroup = O;
unicode = 004F;
},
{
glyphname = P;
lastChange = "2020-02-18 13:44:37 +0000";
layers = (
{
layerId = "D79F8ED9-6C56-4538-8DF1-62DD23430BF9";
paths = (
{
closed = 1;
nodes = (
"175 0 LINE",
"235 0 LINE",
"235 720 LINE",
"175 720 LINE"
);
},
{
closed = 1;
nodes = (
"49 668 LINE",
"205 668 LINE",
"205 720 LINE",
"49 720 LINE"
);
},
{
closed = 1;
nodes = (
"45 0 LINE",
"395 0 LINE",
"395 52 LINE",
"45 52 LINE"
);
},
{
closed = 1;
nodes = (
"205 668 LINE",
"455 668 LINE SMOOTH",
"557 668 OFFCURVE",
"621 617 OFFCURVE",
"621 520 CURVE SMOOTH",
"621 422 OFFCURVE",
"557 372 OFFCURVE",
"455 372 CURVE SMOOTH",
"205 372 LINE",
"205 320 LINE",
"459 320 LINE SMOOTH",
"593 320 OFFCURVE",
"681 392 OFFCURVE",
"681 520 CURVE SMOOTH",
"681 648 OFFCURVE",
"593 720 OFFCURVE",
"459 720 CURVE SMOOTH",
"205 720 LINE"
);
}
);
width = 721;
},
{
layerId = "EA87A73E-C0FE-4015-8704-0B2406CC7903";
paths = (
{
closed = 1;
nodes = (
"150 0 LINE",
"290 0 LINE",
"290 720 LINE",
"150 720 LINE"
);
},
{
closed = 1;
nodes = (
"44 666 LINE",
"260 666 LINE",
"260 720 LINE",
"44 720 LINE"
);
},
{
closed = 1;
nodes = (
"40 0 LINE",
"430 0 LINE",
"430 54 LINE",
"40 54 LINE"
);
},
{
closed = 1;
nodes = (
"260 666 LINE",
"422 666 LINE SMOOTH",
"519 666 OFFCURVE",
"580 614 OFFCURVE",
"580 512 CURVE SMOOTH",
"580 421 OFFCURVE",
"521 374 OFFCURVE",
"426 374 CURVE SMOOTH",
"260 374 LINE",
"260 320 LINE",
"458 320 LINE SMOOTH",
"616 320 OFFCURVE",
"720 394 OFFCURVE",
"720 528 CURVE SMOOTH",
"720 650 OFFCURVE",
"616 720 OFFCURVE",
"458 720 CURVE SMOOTH",
"260 720 LINE"
);
}
);
width = 750;
},
{
layerId = "DBCC401B-C3AE-4436-9575-31462D2FF699";
paths = (
{
closed = 1;
nodes = (
"150 0 LINE",
"290 0 LINE",
"290 720 LINE",
"150 720 LINE"
);
},
{
closed = 1;
nodes = (
"44 666 LINE",
"260 666 LINE",
"260 720 LINE",
"44 720 LINE"
);
},
{
closed = 1;
nodes = (
"40 0 LINE",
"480 0 LINE",
"480 54 LINE",
"40 54 LINE"
);
},
{
closed = 1;
nodes = (
"260 666 LINE",
"422 666 LINE SMOOTH",
"519 666 OFFCURVE",
"580 614 OFFCURVE",
"580 512 CURVE SMOOTH",
"580 421 OFFCURVE",
"521 374 OFFCURVE",
"426 374 CURVE SMOOTH",
"260 374 LINE",
"260 320 LINE",
"458 320 LINE SMOOTH",
"616 320 OFFCURVE",
"720 394 OFFCURVE",
"720 528 CURVE SMOOTH",
"720 650 OFFCURVE",
"616 720 OFFCURVE",
"458 720 CURVE SMOOTH",
"260 720 LINE"
);
}
);
width = 750;
},
{
layerId = "46ED8887-C39F-4CE4-BD5B-7A231A6BF840";
paths = (
{
closed = 1;
nodes = (
"175 0 LINE",
"235 0 LINE",
"235 720 LINE",
"175 720 LINE"
);
},
{
closed = 1;
nodes = (
"49 668 LINE",
"205 668 LINE",
"205 720 LINE",
"49 720 LINE"
);
},
{
closed = 1;
nodes = (
"45 0 LINE",
"455 0 LINE",
"455 52 LINE",
"45 52 LINE"
);
},
{
closed = 1;
nodes = (
"205 668 LINE",
"455 668 LINE SMOOTH",
"557 668 OFFCURVE",
"621 617 OFFCURVE",
"621 520 CURVE SMOOTH",
"621 422 OFFCURVE",
"557 372 OFFCURVE",
"455 372 CURVE SMOOTH",
"205 372 LINE",
"205 320 LINE",
"459 320 LINE SMOOTH",
"593 320 OFFCURVE",
"681 392 OFFCURVE",
"681 520 CURVE SMOOTH",
"681 648 OFFCURVE",
"593 720 OFFCURVE",
"459 720 CURVE SMOOTH",
"205 720 LINE"
);
}
);
width = 721;
}
);
leftKerningGroup = H;
leftMetricsKey = H;
rightKerningGroup = P;
unicode = 0050;
},
{
glyphname = Q;
lastChange = "2020-02-18 12:36:34 +0000";
layers = (
{
layerId = "D79F8ED9-6C56-4538-8DF1-62DD23430BF9";
paths = (
{
closed = 1;
nodes = (
"634 -10 OFFCURVE",
"782 134 OFFCURVE",
"782 360 CURVE SMOOTH",
"782 586 OFFCURVE",
"634 730 OFFCURVE",
"426 730 CURVE SMOOTH",
"218 730 OFFCURVE",
"70 586 OFFCURVE",
"70 360 CURVE SMOOTH",
"70 134 OFFCURVE",
"218 -10 OFFCURVE",
"426 -10 CURVE SMOOTH"
);
},
{
closed = 1;
nodes = (
"253 44 OFFCURVE",
"130 170 OFFCURVE",
"130 362 CURVE SMOOTH",
"130 554 OFFCURVE",
"254 676 OFFCURVE",
"424 676 CURVE SMOOTH",
"599 676 OFFCURVE",
"722 550 OFFCURVE",
"722 358 CURVE SMOOTH",
"722 166 OFFCURVE",
"598 44 OFFCURVE",
"428 44 CURVE SMOOTH"
);
},
{
closed = 1;
nodes = (
"572 40 LINE",
"572 86 LINE SMOOTH",
"572 167 OFFCURVE",
"538 214 OFFCURVE",
"467 214 CURVE SMOOTH",
"399 214 OFFCURVE",
"357 167 OFFCURVE",
"357 86 CURVE SMOOTH",
"357 30 LINE",
"411 30 LINE",
"411 100 LINE SMOOTH",
"411 136 OFFCURVE",
"429 162 OFFCURVE",
"465 162 CURVE SMOOTH",
"502 162 OFFCURVE",
"516 136 OFFCURVE",
"516 100 CURVE SMOOTH",
"516 40 LINE"
);
},
{
closed = 1;
nodes = (
"516 40 LINE",
"516 -64 LINE SMOOTH",
"516 -132 OFFCURVE",
"544 -180 OFFCURVE",
"615 -180 CURVE SMOOTH",
"679 -180 OFFCURVE",
"711 -132 OFFCURVE",
"711 -64 CURVE SMOOTH",
"711 -40 LINE",
"657 -40 LINE",
"657 -78 LINE SMOOTH",
"657 -107 OFFCURVE",
"644 -128 OFFCURVE",
"616 -128 CURVE SMOOTH",
"587 -128 OFFCURVE",
"572 -107 OFFCURVE",
"572 -78 CURVE SMOOTH",
"572 40 LINE"
);
}
);
width = 852;
},
{
layerId = "EA87A73E-C0FE-4015-8704-0B2406CC7903";
paths = (
{
closed = 1;
nodes = (
"676 -10 OFFCURVE",
"836 134 OFFCURVE",
"836 360 CURVE SMOOTH",
"836 586 OFFCURVE",
"676 730 OFFCURVE",
"446 730 CURVE SMOOTH",
"216 730 OFFCURVE",
"56 586 OFFCURVE",
"56 360 CURVE SMOOTH",
"56 134 OFFCURVE",
"216 -10 OFFCURVE",
"446 -10 CURVE SMOOTH"
);
},
{
closed = 1;
nodes = (
"308 46 OFFCURVE",
"206 175 OFFCURVE",
"206 372 CURVE SMOOTH",
"206 557 OFFCURVE",
"303 674 OFFCURVE",
"438 674 CURVE SMOOTH",
"584 674 OFFCURVE",
"686 545 OFFCURVE",
"686 348 CURVE SMOOTH",
"686 163 OFFCURVE",
"589 46 OFFCURVE",
"454 46 CURVE SMOOTH"
);
},
{
closed = 1;
nodes = (
"607 40 LINE",
"607 88 LINE SMOOTH",
"607 160 OFFCURVE",
"567 214 OFFCURVE",
"485 214 CURVE SMOOTH",
"403 214 OFFCURVE",
"363 160 OFFCURVE",
"363 88 CURVE SMOOTH",
"363 30 LINE",
"419 30 LINE",
"419 96 LINE SMOOTH",
"419 124 OFFCURVE",
"432 144 OFFCURVE",
"459 144 CURVE SMOOTH",
"486 144 OFFCURVE",
"499 124 OFFCURVE",
"499 96 CURVE SMOOTH",
"499 40 LINE"
);
},
{
closed = 1;
nodes = (
"499 40 LINE",
"499 -54 LINE SMOOTH",
"499 -126 OFFCURVE",
"539 -180 OFFCURVE",
"621 -180 CURVE SMOOTH",
"703 -180 OFFCURVE",
"743 -126 OFFCURVE",
"743 -54 CURVE SMOOTH",
"743 -30 LINE",
"687 -30 LINE",
"687 -62 LINE SMOOTH",
"687 -90 OFFCURVE",
"674 -110 OFFCURVE",
"647 -110 CURVE SMOOTH",
"620 -110 OFFCURVE",
"607 -90 OFFCURVE",
"607 -62 CURVE SMOOTH",
"607 40 LINE"
);
}
);
width = 892;
},
{
layerId = "DBCC401B-C3AE-4436-9575-31462D2FF699";
paths = (
{
closed = 1;
nodes = (
"676 -10 OFFCURVE",
"836 134 OFFCURVE",
"836 360 CURVE SMOOTH",
"836 586 OFFCURVE",
"676 730 OFFCURVE",
"446 730 CURVE SMOOTH",
"216 730 OFFCURVE",
"56 586 OFFCURVE",
"56 360 CURVE SMOOTH",
"56 134 OFFCURVE",
"216 -10 OFFCURVE",
"446 -10 CURVE SMOOTH"
);
},
{
closed = 1;
nodes = (
"308 46 OFFCURVE",
"206 175 OFFCURVE",
"206 372 CURVE SMOOTH",
"206 557 OFFCURVE",
"303 674 OFFCURVE",
"438 674 CURVE SMOOTH",
"584 674 OFFCURVE",
"686 545 OFFCURVE",
"686 348 CURVE SMOOTH",
"686 163 OFFCURVE",
"589 46 OFFCURVE",
"454 46 CURVE SMOOTH"
);
},
{
closed = 1;
nodes = (
"607 40 LINE",
"607 88 LINE SMOOTH",
"607 160 OFFCURVE",
"567 214 OFFCURVE",
"485 214 CURVE SMOOTH",
"403 214 OFFCURVE",
"363 160 OFFCURVE",
"363 88 CURVE SMOOTH",
"363 30 LINE",
"419 30 LINE",
"419 96 LINE SMOOTH",
"419 124 OFFCURVE",
"432 144 OFFCURVE",
"459 144 CURVE SMOOTH",
"486 144 OFFCURVE",
"499 124 OFFCURVE",
"499 96 CURVE SMOOTH",
"499 40 LINE"
);
},
{
closed = 1;
nodes = (
"499 40 LINE",
"499 -54 LINE SMOOTH",
"499 -126 OFFCURVE",
"539 -180 OFFCURVE",
"621 -180 CURVE SMOOTH",
"703 -180 OFFCURVE",
"743 -126 OFFCURVE",
"743 -54 CURVE SMOOTH",
"743 -20 LINE",
"687 -20 LINE",
"687 -62 LINE SMOOTH",
"687 -90 OFFCURVE",
"674 -110 OFFCURVE",
"647 -110 CURVE SMOOTH",
"620 -110 OFFCURVE",
"607 -90 OFFCURVE",
"607 -62 CURVE SMOOTH",
"607 40 LINE"
);
}
);
width = 892;
},
{
layerId = "46ED8887-C39F-4CE4-BD5B-7A231A6BF840";
paths = (
{
closed = 1;
nodes = (
"634 -10 OFFCURVE",
"782 134 OFFCURVE",
"782 360 CURVE SMOOTH",
"782 586 OFFCURVE",
"634 730 OFFCURVE",
"426 730 CURVE SMOOTH",
"218 730 OFFCURVE",
"70 586 OFFCURVE",
"70 360 CURVE SMOOTH",
"70 134 OFFCURVE",
"218 -10 OFFCURVE",
"426 -10 CURVE SMOOTH"
);
},
{
closed = 1;
nodes = (
"253 44 OFFCURVE",
"130 170 OFFCURVE",
"130 362 CURVE SMOOTH",
"130 554 OFFCURVE",
"254 676 OFFCURVE",
"424 676 CURVE SMOOTH",
"599 676 OFFCURVE",
"722 550 OFFCURVE",
"722 358 CURVE SMOOTH",
"722 166 OFFCURVE",
"598 44 OFFCURVE",
"428 44 CURVE SMOOTH"
);
},
{
closed = 1;
nodes = (
"572 40 LINE",
"572 86 LINE SMOOTH",
"572 167 OFFCURVE",
"538 214 OFFCURVE",
"467 214 CURVE SMOOTH",
"399 214 OFFCURVE",
"357 167 OFFCURVE",
"357 86 CURVE SMOOTH",
"357 30 LINE",
"411 30 LINE",
"411 100 LINE SMOOTH",
"411 136 OFFCURVE",
"429 162 OFFCURVE",
"465 162 CURVE SMOOTH",
"502 162 OFFCURVE",
"516 136 OFFCURVE",
"516 100 CURVE SMOOTH",
"516 40 LINE"
);
},
{
closed = 1;
nodes = (
"516 40 LINE",
"516 -64 LINE SMOOTH",
"516 -132 OFFCURVE",
"544 -180 OFFCURVE",
"615 -180 CURVE SMOOTH",
"679 -180 OFFCURVE",
"711 -132 OFFCURVE",
"711 -64 CURVE SMOOTH",
"711 -20 LINE",
"657 -20 LINE",
"657 -78 LINE SMOOTH",
"657 -107 OFFCURVE",
"644 -128 OFFCURVE",
"616 -128 CURVE SMOOTH",
"587 -128 OFFCURVE",
"572 -107 OFFCURVE",
"572 -78 CURVE SMOOTH",
"572 40 LINE"
);
}
);
width = 852;
}
);
leftKerningGroup = O;
leftMetricsKey = O;
rightKerningGroup = O;
rightMetricsKey = O;
unicode = 0051;
},
{
glyphname = R;
lastChange = "2020-02-18 13:44:43 +0000";
layers = (
{
layerId = "D79F8ED9-6C56-4538-8DF1-62DD23430BF9";
paths = (
{
closed = 1;
nodes = (
"175 0 LINE",
"235 0 LINE",
"235 720 LINE",
"175 720 LINE"
);
},
{
closed = 1;
nodes = (
"49 668 LINE",
"205 668 LINE",
"205 720 LINE",
"49 720 LINE"
);
},
{
closed = 1;
nodes = (
"45 0 LINE",
"365 0 LINE",
"365 52 LINE",
"45 52 LINE"
);
},
{
closed = 1;
nodes = (
"204 668 LINE",
"474 668 LINE SMOOTH",
"565 668 OFFCURVE",
"625 619 OFFCURVE",
"625 530 CURVE SMOOTH",
"625 440 OFFCURVE",
"566 392 OFFCURVE",
"474 392 CURVE SMOOTH",
"204 392 LINE",
"204 346 LINE",
"477 346 LINE SMOOTH",
"601 346 OFFCURVE",
"685 410 OFFCURVE",
"685 530 CURVE SMOOTH",
"685 652 OFFCURVE",
"601 720 OFFCURVE",
"477 720 CURVE SMOOTH",
"204 720 LINE"
);
},
{
closed = 1;
nodes = (
"204 340 LINE",
"348 340 LINE SMOOTH",
"423 340 OFFCURVE",
"464 303 OFFCURVE",
"464 214 CURVE SMOOTH",
"464 110 LINE SMOOTH",
"464 36 OFFCURVE",
"507 -6 OFFCURVE",
"573 -6 CURVE SMOOTH",
"639 -6 OFFCURVE",
"680 36 OFFCURVE",
"680 110 CURVE SMOOTH",
"680 190 LINE",
"624 190 LINE",
"624 104 LINE SMOOTH",
"624 69 OFFCURVE",
"607 46 OFFCURVE",
"575 46 CURVE SMOOTH",
"542 46 OFFCURVE",
"524 69 OFFCURVE",
"524 104 CURVE SMOOTH",
"524 214 LINE SMOOTH",
"524 316 OFFCURVE",
"475 361 OFFCURVE",
"373 360 CURVE SMOOTH",
"204 359 LINE"
);
}
);
width = 745;
},
{
layerId = "EA87A73E-C0FE-4015-8704-0B2406CC7903";
paths = (
{
closed = 1;
nodes = (
"150 0 LINE",
"290 0 LINE",
"290 720 LINE",
"150 720 LINE"
);
},
{
closed = 1;
nodes = (
"44 666 LINE",
"260 666 LINE",
"260 720 LINE",
"44 720 LINE"
);
},
{
closed = 1;
nodes = (
"40 0 LINE",
"395 0 LINE",
"395 54 LINE",
"40 54 LINE"
);
},
{
closed = 1;
nodes = (
"259 666 LINE",
"462 666 LINE SMOOTH",
"546 666 OFFCURVE",
"600 617 OFFCURVE",
"600 526 CURVE SMOOTH",
"600 440 OFFCURVE",
"547 394 OFFCURVE",
"463 394 CURVE SMOOTH",
"259 394 LINE",
"259 346 LINE",
"492 346 LINE SMOOTH",
"640 346 OFFCURVE",
"740 413 OFFCURVE",
"740 538 CURVE SMOOTH",
"740 655 OFFCURVE",
"640 720 OFFCURVE",
"492 720 CURVE SMOOTH",
"259 720 LINE"
);
},
{
closed = 1;
nodes = (
"259 340 LINE",
"359 340 LINE SMOOTH",
"436 340 OFFCURVE",
"461 303 OFFCURVE",
"461 214 CURVE SMOOTH",
"461 132 LINE SMOOTH",
"461 46 OFFCURVE",
"510 -8 OFFCURVE",
"604 -8 CURVE SMOOTH",
"698 -8 OFFCURVE",
"745 46 OFFCURVE",
"745 132 CURVE SMOOTH",
"745 200 LINE",
"687 200 LINE",
"687 126 LINE SMOOTH",
"687 96 OFFCURVE",
"672 76 OFFCURVE",
"642 76 CURVE SMOOTH",
"612 76 OFFCURVE",
"597 96 OFFCURVE",
"597 126 CURVE SMOOTH",
"597 214 LINE SMOOTH",
"597 315 OFFCURVE",
"537 357 OFFCURVE",
"414 357 CURVE SMOOTH",
"259 357 LINE"
);
}
);
width = 795;
},
{
layerId = "DBCC401B-C3AE-4436-9575-31462D2FF699";
paths = (
{
closed = 1;
nodes = (
"150 0 LINE",
"290 0 LINE",
"290 720 LINE",
"150 720 LINE"
);
},
{
closed = 1;
nodes = (
"44 666 LINE",
"260 666 LINE",
"260 720 LINE",
"44 720 LINE"
);
},
{
closed = 1;
nodes = (
"40 0 LINE",
"400 0 LINE",
"400 54 LINE",
"40 54 LINE"
);
},
{
closed = 1;
nodes = (
"259 666 LINE",
"462 666 LINE SMOOTH",
"546 666 OFFCURVE",
"600 617 OFFCURVE",
"600 526 CURVE SMOOTH",
"600 440 OFFCURVE",
"547 394 OFFCURVE",
"463 394 CURVE SMOOTH",
"259 394 LINE",
"259 346 LINE",
"492 346 LINE SMOOTH",
"640 346 OFFCURVE",
"740 413 OFFCURVE",
"740 538 CURVE SMOOTH",
"740 655 OFFCURVE",
"640 720 OFFCURVE",
"492 720 CURVE SMOOTH",
"259 720 LINE"
);
},
{
closed = 1;
nodes = (
"259 340 LINE",
"347 340 LINE SMOOTH",
"423 340 OFFCURVE",
"451 303 OFFCURVE",
"451 214 CURVE SMOOTH",
"451 132 LINE SMOOTH",
"451 46 OFFCURVE",
"499 -8 OFFCURVE",
"593 -8 CURVE SMOOTH",
"687 -8 OFFCURVE",
"735 46 OFFCURVE",
"735 132 CURVE SMOOTH",
"735 290 LINE",
"677 290 LINE",
"677 126 LINE SMOOTH",
"677 96 OFFCURVE",
"662 76 OFFCURVE",
"632 76 CURVE SMOOTH",
"602 76 OFFCURVE",
"587 96 OFFCURVE",
"587 126 CURVE SMOOTH",
"587 214 LINE SMOOTH",
"587 315 OFFCURVE",
"527 357 OFFCURVE",
"404 357 CURVE SMOOTH",
"259 357 LINE"
);
}
);
width = 795;
},
{
layerId = "46ED8887-C39F-4CE4-BD5B-7A231A6BF840";
paths = (
{
closed = 1;
nodes = (
"175 0 LINE",
"235 0 LINE",
"235 720 LINE",
"175 720 LINE"
);
},
{
closed = 1;
nodes = (
"49 668 LINE",
"205 668 LINE",
"205 720 LINE",
"49 720 LINE"
);
},
{
closed = 1;
nodes = (
"45 0 LINE",
"395 0 LINE",
"395 52 LINE",
"45 52 LINE"
);
},
{
closed = 1;
nodes = (
"204 668 LINE",
"474 668 LINE SMOOTH",
"565 668 OFFCURVE",
"625 619 OFFCURVE",
"625 530 CURVE SMOOTH",
"625 440 OFFCURVE",
"566 392 OFFCURVE",
"474 392 CURVE SMOOTH",
"204 392 LINE",
"204 346 LINE",
"477 346 LINE SMOOTH",
"601 346 OFFCURVE",
"685 410 OFFCURVE",
"685 530 CURVE SMOOTH",
"685 652 OFFCURVE",
"601 720 OFFCURVE",
"477 720 CURVE SMOOTH",
"204 720 LINE"
);
},
{
closed = 1;
nodes = (
"204 340 LINE",
"343 340 LINE SMOOTH",
"418 340 OFFCURVE",
"459 303 OFFCURVE",
"459 214 CURVE SMOOTH",
"459 110 LINE SMOOTH",
"459 36 OFFCURVE",
"502 -6 OFFCURVE",
"568 -6 CURVE SMOOTH",
"634 -6 OFFCURVE",
"675 36 OFFCURVE",
"675 110 CURVE SMOOTH",
"675 290 LINE",
"619 290 LINE",
"619 104 LINE SMOOTH",
"619 69 OFFCURVE",
"602 46 OFFCURVE",
"570 46 CURVE SMOOTH",
"537 46 OFFCURVE",
"519 69 OFFCURVE",
"519 104 CURVE SMOOTH",
"519 214 LINE SMOOTH",
"519 316 OFFCURVE",
"470 360 OFFCURVE",
"368 360 CURVE SMOOTH",
"204 359 LINE"
);
}
);
width = 745;
}
);
leftKerningGroup = H;
leftMetricsKey = H;
rightKerningGroup = R;
unicode = 0052;
},
{
glyphname = S;
lastChange = "2020-02-18 13:51:34 +0000";
layers = (
{
layerId = "D79F8ED9-6C56-4538-8DF1-62DD23430BF9";
paths = (
{
closed = 1;
nodes = (
"100 423 OFFCURVE",
"188 377 OFFCURVE",
"317 349 CURVE SMOOTH",
"428 325 LINE SMOOTH",
"543 300 OFFCURVE",
"610 260 OFFCURVE",
"610 184 CURVE SMOOTH",
"610 106 OFFCURVE",
"538 44 OFFCURVE",
"417 44 CURVE SMOOTH",
"302 44 OFFCURVE",
"199 96 OFFCURVE",
"144 230 CURVE",
"94 230 LINE",
"147 64 OFFCURVE",
"263 -10 OFFCURVE",
"421 -10 CURVE SMOOTH",
"573 -10 OFFCURVE",
"670 72 OFFCURVE",
"670 186 CURVE SMOOTH",
"670 300 OFFCURVE",
"580 352 OFFCURVE",
"443 382 CURVE SMOOTH",
"332 406 LINE SMOOTH",
"224 429 OFFCURVE",
"160 468 OFFCURVE",
"160 544 CURVE SMOOTH",
"160 620 OFFCURVE",
"228 676 OFFCURVE",
"343 676 CURVE SMOOTH",
"454 676 OFFCURVE",
"546 626 OFFCURVE",
"588 514 CURVE",
"636 514 LINE",
"590 670 OFFCURVE",
"476 730 OFFCURVE",
"339 730 CURVE SMOOTH",
"210 730 OFFCURVE",
"100 660 OFFCURVE",
"100 542 CURVE SMOOTH"
);
},
{
closed = 1;
nodes = (
"594 720 LINE",
"594 582 LINE",
"636 514 LINE",
"652 514 LINE",
"652 720 LINE"
);
},
{
closed = 1;
nodes = (
"138 0 LINE",
"138 181 LINE",
"94 230 LINE",
"80 230 LINE",
"80 0 LINE"
);
}
);
width = 750;
},
{
layerId = "EA87A73E-C0FE-4015-8704-0B2406CC7903";
paths = (
{
closed = 1;
nodes = (
"86 400 OFFCURVE",
"187 340 OFFCURVE",
"328 309 CURVE SMOOTH",
"428 287 LINE SMOOTH",
"529 265 OFFCURVE",
"590 230 OFFCURVE",
"590 164 CURVE SMOOTH",
"590 102 OFFCURVE",
"536 50 OFFCURVE",
"417 50 CURVE SMOOTH",
"297 50 OFFCURVE",
"188 122 OFFCURVE",
"140 240 CURVE",
"84 240 LINE",
"134 84 OFFCURVE",
"253 -10 OFFCURVE",
"433 -10 CURVE SMOOTH",
"613 -10 OFFCURVE",
"712 86 OFFCURVE",
"712 204 CURVE SMOOTH",
"712 330 OFFCURVE",
"608 388 OFFCURVE",
"460 421 CURVE SMOOTH",
"360 443 LINE SMOOTH",
"270 463 OFFCURVE",
"208 489 OFFCURVE",
"208 560 CURVE SMOOTH",
"208 629 OFFCURVE",
"272 670 OFFCURVE",
"369 670 CURVE SMOOTH",
"468 670 OFFCURVE",
"586 613 OFFCURVE",
"628 504 CURVE",
"684 504 LINE",
"641 657 OFFCURVE",
"501 730 OFFCURVE",
"349 730 CURVE SMOOTH",
"203 730 OFFCURVE",
"86 656 OFFCURVE",
"86 528 CURVE SMOOTH"
);
},
{
closed = 1;
nodes = (
"638 720 LINE",
"638 582 LINE",
"684 504 LINE",
"696 504 LINE",
"696 720 LINE"
);
},
{
closed = 1;
nodes = (
"130 0 LINE",
"130 181 LINE",
"84 240 LINE",
"72 240 LINE",
"72 0 LINE"
);
}
);
width = 786;
},
{
associatedMasterId = "D79F8ED9-6C56-4538-8DF1-62DD23430BF9";
layerId = "D8DE155A-ED2E-4586-B898-2E19F2C731ED";
name = "Jan 7 20, 21:07";
paths = (
{
closed = 1;
nodes = (
"84 418 OFFCURVE",
"172 370 OFFCURVE",
"311 340 CURVE SMOOTH",
"422 316 LINE SMOOTH",
"531 292 OFFCURVE",
"594 260 OFFCURVE",
"594 182 CURVE SMOOTH",
"594 104 OFFCURVE",
"526 44 OFFCURVE",
"406 44 CURVE SMOOTH",
"286 44 OFFCURVE",
"183 102 OFFCURVE",
"128 250 CURVE",
"78 250 LINE",
"131 70 OFFCURVE",
"247 -10 OFFCURVE",
"410 -10 CURVE SMOOTH",
"573 -10 OFFCURVE",
"674 70 OFFCURVE",
"674 188 CURVE SMOOTH",
"674 306 OFFCURVE",
"590 357 OFFCURVE",
"437 390 CURVE SMOOTH",
"326 414 LINE SMOOTH",
"224 436 OFFCURVE",
"164 468 OFFCURVE",
"164 544 CURVE SMOOTH",
"164 620 OFFCURVE",
"228 676 OFFCURVE",
"342 676 CURVE SMOOTH",
"458 676 OFFCURVE",
"550 620 OFFCURVE",
"592 494 CURVE",
"640 494 LINE",
"594 664 OFFCURVE",
"480 730 OFFCURVE",
"338 730 CURVE SMOOTH",
"198 730 OFFCURVE",
"84 658 OFFCURVE",
"84 538 CURVE SMOOTH"
);
},
{
closed = 1;
nodes = (
"596 720 LINE",
"596 582 LINE",
"640 494 LINE",
"656 494 LINE",
"656 720 LINE"
);
},
{
closed = 1;
nodes = (
"124 0 LINE",
"124 181 LINE",
"78 250 LINE",
"64 250 LINE",
"64 0 LINE"
);
}
);
width = 736;
},
{
layerId = "DBCC401B-C3AE-4436-9575-31462D2FF699";
paths = (
{
closed = 1;
nodes = (
"86 400 OFFCURVE",
"187 340 OFFCURVE",
"328 309 CURVE SMOOTH",
"428 287 LINE SMOOTH",
"529 265 OFFCURVE",
"590 230 OFFCURVE",
"590 164 CURVE SMOOTH",
"590 102 OFFCURVE",
"536 50 OFFCURVE",
"417 50 CURVE SMOOTH",
"297 50 OFFCURVE",
"188 130 OFFCURVE",
"140 260 CURVE",
"84 260 LINE",
"134 92 OFFCURVE",
"253 -10 OFFCURVE",
"433 -10 CURVE SMOOTH",
"613 -10 OFFCURVE",
"712 86 OFFCURVE",
"712 204 CURVE SMOOTH",
"712 330 OFFCURVE",
"608 388 OFFCURVE",
"460 421 CURVE SMOOTH",
"360 443 LINE SMOOTH",
"270 463 OFFCURVE",
"208 489 OFFCURVE",
"208 560 CURVE SMOOTH",
"208 629 OFFCURVE",
"272 670 OFFCURVE",
"369 670 CURVE SMOOTH",
"468 670 OFFCURVE",
"586 606 OFFCURVE",
"628 484 CURVE",
"684 484 LINE",
"641 651 OFFCURVE",
"501 730 OFFCURVE",
"349 730 CURVE SMOOTH",
"203 730 OFFCURVE",
"86 656 OFFCURVE",
"86 528 CURVE SMOOTH"
);
},
{
closed = 1;
nodes = (
"638 720 LINE",
"638 582 LINE",
"684 484 LINE",
"696 484 LINE",
"696 720 LINE"
);
},
{
closed = 1;
nodes = (
"130 0 LINE",
"130 181 LINE",
"84 260 LINE",
"72 260 LINE",
"72 0 LINE"
);
}
);
width = 786;
},
{
layerId = "46ED8887-C39F-4CE4-BD5B-7A231A6BF840";
paths = (
{
closed = 1;
nodes = (
"100 423 OFFCURVE",
"188 377 OFFCURVE",
"317 349 CURVE SMOOTH",
"428 325 LINE SMOOTH",
"543 300 OFFCURVE",
"610 260 OFFCURVE",
"610 184 CURVE SMOOTH",
"610 106 OFFCURVE",
"538 44 OFFCURVE",
"417 44 CURVE SMOOTH",
"302 44 OFFCURVE",
"199 102 OFFCURVE",
"144 250 CURVE",
"94 250 LINE",
"147 70 OFFCURVE",
"263 -10 OFFCURVE",
"421 -10 CURVE SMOOTH",
"573 -10 OFFCURVE",
"670 72 OFFCURVE",
"670 186 CURVE SMOOTH",
"670 300 OFFCURVE",
"580 352 OFFCURVE",
"443 382 CURVE SMOOTH",
"332 406 LINE SMOOTH",
"224 429 OFFCURVE",
"160 468 OFFCURVE",
"160 544 CURVE SMOOTH",
"160 620 OFFCURVE",
"228 676 OFFCURVE",
"343 676 CURVE SMOOTH",
"454 676 OFFCURVE",
"546 620 OFFCURVE",
"588 494 CURVE",
"636 494 LINE",
"590 664 OFFCURVE",
"476 730 OFFCURVE",
"339 730 CURVE SMOOTH",
"210 730 OFFCURVE",
"100 660 OFFCURVE",
"100 542 CURVE SMOOTH"
);
},
{
closed = 1;
nodes = (
"594 720 LINE",
"594 582 LINE",
"636 494 LINE",
"652 494 LINE",
"652 720 LINE"
);
},
{
closed = 1;
nodes = (
"138 0 LINE",
"138 181 LINE",
"94 250 LINE",
"80 250 LINE",
"80 0 LINE"
);
}
);
width = 750;
},
{
associatedMasterId = "46ED8887-C39F-4CE4-BD5B-7A231A6BF840";
layerId = "6421DB4A-5A9A-40D5-8F1E-C4E0EB3EF850";
name = "Jan 7 20, 21:07";
paths = (
{
closed = 1;
nodes = (
"84 418 OFFCURVE",
"172 370 OFFCURVE",
"311 340 CURVE SMOOTH",
"422 316 LINE SMOOTH",
"531 292 OFFCURVE",
"594 260 OFFCURVE",
"594 182 CURVE SMOOTH",
"594 104 OFFCURVE",
"526 44 OFFCURVE",
"406 44 CURVE SMOOTH",
"286 44 OFFCURVE",
"183 102 OFFCURVE",
"128 250 CURVE",
"78 250 LINE",
"131 70 OFFCURVE",
"247 -10 OFFCURVE",
"410 -10 CURVE SMOOTH",
"573 -10 OFFCURVE",
"674 70 OFFCURVE",
"674 188 CURVE SMOOTH",
"674 306 OFFCURVE",
"590 357 OFFCURVE",
"437 390 CURVE SMOOTH",
"326 414 LINE SMOOTH",
"224 436 OFFCURVE",
"164 468 OFFCURVE",
"164 544 CURVE SMOOTH",
"164 620 OFFCURVE",
"228 676 OFFCURVE",
"342 676 CURVE SMOOTH",
"458 676 OFFCURVE",
"550 620 OFFCURVE",
"592 494 CURVE",
"640 494 LINE",
"594 664 OFFCURVE",
"480 730 OFFCURVE",
"338 730 CURVE SMOOTH",
"198 730 OFFCURVE",
"84 658 OFFCURVE",
"84 538 CURVE SMOOTH"
);
},
{
closed = 1;
nodes = (
"596 720 LINE",
"596 582 LINE",
"640 494 LINE",
"656 494 LINE",
"656 720 LINE"
);
},
{
closed = 1;
nodes = (
"124 0 LINE",
"124 181 LINE",
"78 250 LINE",
"64 250 LINE",
"64 0 LINE"
);
}
);
width = 736;
}
);
leftKerningGroup = S;
rightKerningGroup = S;
unicode = 0053;
},
{
glyphname = T;
lastChange = "2020-02-18 13:45:04 +0000";
layers = (
{
layerId = "D79F8ED9-6C56-4538-8DF1-62DD23430BF9";
paths = (
{
closed = 1;
nodes = (
"355 0 LINE",
"415 0 LINE",
"415 720 LINE",
"355 720 LINE"
);
},
{
closed = 1;
nodes = (
"215 0 LINE",
"555 0 LINE",
"555 52 LINE",
"215 52 LINE"
);
},
{
closed = 1;
nodes = (
"55 720 LINE",
"55 668 LINE",
"355 668 LINE",
"355 720 LINE"
);
},
{
closed = 1;
nodes = (
"55 668 LINE",
"55 510 LINE",
"111 510 LINE",
"111 598 LINE SMOOTH",
"111 652 OFFCURVE",
"123 668 OFFCURVE",
"181 668 CURVE"
);
},
{
closed = 1;
nodes = (
"415 668 LINE",
"715 668 LINE",
"715 720 LINE",
"415 720 LINE"
);
},
{
closed = 1;
nodes = (
"647 668 OFFCURVE",
"659 652 OFFCURVE",
"659 598 CURVE SMOOTH",
"659 510 LINE",
"715 510 LINE",
"715 668 LINE",
"589 668 LINE"
);
}
);
width = 770;
},
{
layerId = "EA87A73E-C0FE-4015-8704-0B2406CC7903";
paths = (
{
closed = 1;
nodes = (
"330 0 LINE",
"470 0 LINE",
"470 720 LINE",
"330 720 LINE"
);
},
{
closed = 1;
nodes = (
"210 0 LINE",
"590 0 LINE",
"590 54 LINE",
"210 54 LINE"
);
},
{
closed = 1;
nodes = (
"50 720 LINE",
"50 666 LINE",
"330 666 LINE",
"330 720 LINE"
);
},
{
closed = 1;
nodes = (
"50 666 LINE",
"50 495 LINE",
"108 495 LINE",
"108 536 LINE SMOOTH",
"108 637 OFFCURVE",
"131 666 OFFCURVE",
"238 666 CURVE"
);
},
{
closed = 1;
nodes = (
"470 666 LINE",
"750 666 LINE",
"750 720 LINE",
"470 720 LINE"
);
},
{
closed = 1;
nodes = (
"669 666 OFFCURVE",
"692 637 OFFCURVE",
"692 536 CURVE SMOOTH",
"692 495 LINE",
"750 495 LINE",
"750 666 LINE",
"562 666 LINE"
);
}
);
width = 800;
},
{
layerId = "DBCC401B-C3AE-4436-9575-31462D2FF699";
paths = (
{
closed = 1;
nodes = (
"330 0 LINE",
"470 0 LINE",
"470 720 LINE",
"330 720 LINE"
);
},
{
closed = 1;
nodes = (
"150 0 LINE",
"650 0 LINE",
"650 54 LINE",
"150 54 LINE"
);
},
{
closed = 1;
nodes = (
"50 720 LINE",
"50 666 LINE",
"330 666 LINE",
"330 720 LINE"
);
},
{
closed = 1;
nodes = (
"50 666 LINE",
"50 440 LINE",
"108 440 LINE",
"108 536 LINE SMOOTH",
"108 637 OFFCURVE",
"131 666 OFFCURVE",
"238 666 CURVE"
);
},
{
closed = 1;
nodes = (
"470 666 LINE",
"750 666 LINE",
"750 720 LINE",
"470 720 LINE"
);
},
{
closed = 1;
nodes = (
"669 666 OFFCURVE",
"692 637 OFFCURVE",
"692 536 CURVE SMOOTH",
"692 440 LINE",
"750 440 LINE",
"750 666 LINE",
"562 666 LINE"
);
}
);
width = 800;
},
{
layerId = "46ED8887-C39F-4CE4-BD5B-7A231A6BF840";
paths = (
{
closed = 1;
nodes = (
"355 0 LINE",
"415 0 LINE",
"415 720 LINE",
"355 720 LINE"
);
},
{
closed = 1;
nodes = (
"155 0 LINE",
"615 0 LINE",
"615 52 LINE",
"155 52 LINE"
);
},
{
closed = 1;
nodes = (
"55 720 LINE",
"55 668 LINE",
"355 668 LINE",
"355 720 LINE"
);
},
{
closed = 1;
nodes = (
"55 668 LINE",
"55 440 LINE",
"111 440 LINE",
"111 598 LINE SMOOTH",
"111 652 OFFCURVE",
"123 668 OFFCURVE",
"181 668 CURVE"
);
},
{
closed = 1;
nodes = (
"415 668 LINE",
"715 668 LINE",
"715 720 LINE",
"415 720 LINE"
);
},
{
closed = 1;
nodes = (
"647 668 OFFCURVE",
"659 652 OFFCURVE",
"659 598 CURVE SMOOTH",
"659 440 LINE",
"715 440 LINE",
"715 668 LINE",
"589 668 LINE"
);
}
);
width = 770;
}
);
leftKerningGroup = T;
rightKerningGroup = T;
unicode = 0054;
},
{
glyphname = U;
lastChange = "2020-02-18 12:14:45 +0000";
layers = (
{
layerId = "D79F8ED9-6C56-4538-8DF1-62DD23430BF9";
paths = (
{
closed = 1;
nodes = (
"161 260 LINE",
"221 240 LINE",
"221 720 LINE",
"161 720 LINE"
);
},
{
closed = 1;
nodes = (
"35 668 LINE",
"357 668 LINE",
"357 720 LINE",
"35 720 LINE"
);
},
{
closed = 1;
nodes = (
"669 240 LINE",
"729 260 LINE",
"729 720 LINE",
"669 720 LINE"
);
},
{
closed = 1;
nodes = (
"533 668 LINE",
"855 668 LINE",
"855 720 LINE",
"533 720 LINE"
);
},
{
closed = 1;
nodes = (
"161 89 OFFCURVE",
"271 -10 OFFCURVE",
"445 -10 CURVE SMOOTH",
"619 -10 OFFCURVE",
"729 90 OFFCURVE",
"729 260 CURVE",
"669 260 LINE",
"669 128 OFFCURVE",
"588 44 OFFCURVE",
"445 44 CURVE SMOOTH",
"308 44 OFFCURVE",
"221 126 OFFCURVE",
"221 260 CURVE",
"161 260 LINE"
);
}
);
width = 890;
},
{
layerId = "EA87A73E-C0FE-4015-8704-0B2406CC7903";
paths = (
{
closed = 1;
nodes = (
"131 264 LINE",
"271 248 LINE",
"271 720 LINE",
"131 720 LINE"
);
},
{
closed = 1;
nodes = (
"25 666 LINE",
"387 666 LINE",
"387 720 LINE",
"25 720 LINE"
);
},
{
closed = 1;
nodes = (
"651 242 LINE",
"721 260 LINE",
"721 720 LINE",
"651 720 LINE"
);
},
{
closed = 1;
nodes = (
"535 666 LINE",
"827 666 LINE",
"827 720 LINE",
"535 720 LINE"
);
},
{
closed = 1;
nodes = (
"131 90 OFFCURVE",
"247 -10 OFFCURVE",
"430 -10 CURVE SMOOTH",
"611 -10 OFFCURVE",
"721 90 OFFCURVE",
"721 260 CURVE",
"651 262 LINE",
"651 136 OFFCURVE",
"583 52 OFFCURVE",
"461 52 CURVE SMOOTH",
"344 52 OFFCURVE",
"271 136 OFFCURVE",
"271 268 CURVE",
"131 264 LINE"
);
}
);
width = 852;
},
{
layerId = "DBCC401B-C3AE-4436-9575-31462D2FF699";
paths = (
{
closed = 1;
nodes = (
"131 264 LINE",
"271 248 LINE",
"271 720 LINE",
"131 720 LINE"
);
},
{
closed = 1;
nodes = (
"25 666 LINE",
"387 666 LINE",
"387 720 LINE",
"25 720 LINE"
);
},
{
closed = 1;
nodes = (
"651 242 LINE",
"721 260 LINE",
"721 720 LINE",
"651 720 LINE"
);
},
{
closed = 1;
nodes = (
"535 666 LINE",
"827 666 LINE",
"827 720 LINE",
"535 720 LINE"
);
},
{
closed = 1;
nodes = (
"131 90 OFFCURVE",
"247 -10 OFFCURVE",
"430 -10 CURVE SMOOTH",
"611 -10 OFFCURVE",
"721 90 OFFCURVE",
"721 260 CURVE",
"651 262 LINE",
"651 136 OFFCURVE",
"583 52 OFFCURVE",
"461 52 CURVE SMOOTH",
"344 52 OFFCURVE",
"271 136 OFFCURVE",
"271 268 CURVE",
"131 264 LINE"
);
}
);
width = 852;
},
{
layerId = "46ED8887-C39F-4CE4-BD5B-7A231A6BF840";
paths = (
{
closed = 1;
nodes = (
"161 260 LINE",
"221 240 LINE",
"221 720 LINE",
"161 720 LINE"
);
},
{
closed = 1;
nodes = (
"35 668 LINE",
"357 668 LINE",
"357 720 LINE",
"35 720 LINE"
);
},
{
closed = 1;
nodes = (
"669 240 LINE",
"729 260 LINE",
"729 720 LINE",
"669 720 LINE"
);
},
{
closed = 1;
nodes = (
"533 668 LINE",
"855 668 LINE",
"855 720 LINE",
"533 720 LINE"
);
},
{
closed = 1;
nodes = (
"161 89 OFFCURVE",
"271 -10 OFFCURVE",
"445 -10 CURVE SMOOTH",
"619 -10 OFFCURVE",
"729 90 OFFCURVE",
"729 260 CURVE",
"669 260 LINE",
"669 128 OFFCURVE",
"588 44 OFFCURVE",
"445 44 CURVE SMOOTH",
"308 44 OFFCURVE",
"221 126 OFFCURVE",
"221 260 CURVE",
"161 260 LINE"
);
}
);
width = 890;
}
);
leftKerningGroup = U;
rightKerningGroup = U;
unicode = 0055;
},
{
glyphname = V;
lastChange = "2020-02-18 12:14:45 +0000";
layers = (
{
layerId = "D79F8ED9-6C56-4538-8DF1-62DD23430BF9";
paths = (
{
closed = 1;
nodes = (
"691 668 LINE",
"629 668 LINE",
"394 54 LINE",
"383 0 LINE",
"433 0 LINE"
);
},
{
closed = 1;
nodes = (
"399 0 LINE",
"411 47 LINE",
"174 668 LINE",
"110 668 LINE",
"367 0 LINE"
);
},
{
closed = 1;
nodes = (
"781 720 LINE",
"489 720 LINE",
"489 668 LINE",
"781 668 LINE"
);
},
{
closed = 1;
nodes = (
"334 720 LINE",
"20 720 LINE",
"20 668 LINE",
"334 668 LINE"
);
}
);
width = 801;
},
{
layerId = "EA87A73E-C0FE-4015-8704-0B2406CC7903";
paths = (
{
closed = 1;
nodes = (
"730 666 LINE",
"667 666 LINE",
"423 84 LINE",
"401 0 LINE",
"448 0 LINE"
);
},
{
closed = 1;
nodes = (
"428 0 LINE",
"470 133 LINE",
"255 666 LINE",
"100 666 LINE",
"384 0 LINE"
);
},
{
closed = 1;
nodes = (
"810 720 LINE",
"527 720 LINE",
"527 666 LINE",
"810 666 LINE"
);
},
{
closed = 1;
nodes = (
"415 720 LINE",
"20 720 LINE",
"20 666 LINE",
"415 666 LINE"
);
}
);
width = 830;
},
{
associatedMasterId = "EA87A73E-C0FE-4015-8704-0B2406CC7903";
layerId = "1E45CBAA-9EDC-41D1-98FA-A9C0DC9DA174";
name = "Feb 18 20, 10:13";
paths = (
{
closed = 1;
nodes = (
"730 666 LINE",
"668 666 LINE",
"411 0 LINE",
"473 0 LINE"
);
},
{
closed = 1;
nodes = (
"453 0 LINE",
"472 81 LINE",
"255 666 LINE",
"100 666 LINE",
"358 0 LINE"
);
},
{
closed = 1;
nodes = (
"810 720 LINE",
"528 720 LINE",
"528 666 LINE",
"810 666 LINE"
);
},
{
closed = 1;
nodes = (
"415 720 LINE",
"20 720 LINE",
"20 666 LINE",
"415 666 LINE"
);
}
);
width = 830;
},
{
layerId = "DBCC401B-C3AE-4436-9575-31462D2FF699";
paths = (
{
closed = 1;
nodes = (
"730 666 LINE",
"667 666 LINE",
"423 84 LINE",
"401 0 LINE",
"448 0 LINE"
);
},
{
closed = 1;
nodes = (
"428 0 LINE",
"470 133 LINE",
"255 666 LINE",
"100 666 LINE",
"384 0 LINE"
);
},
{
closed = 1;
nodes = (
"810 720 LINE",
"527 720 LINE",
"527 666 LINE",
"810 666 LINE"
);
},
{
closed = 1;
nodes = (
"415 720 LINE",
"20 720 LINE",
"20 666 LINE",
"415 666 LINE"
);
}
);
width = 830;
},
{
associatedMasterId = "DBCC401B-C3AE-4436-9575-31462D2FF699";
layerId = "C10A939B-D061-43E4-AD1D-2654304437CC";
name = "Feb 18 20, 10:13";
paths = (
{
closed = 1;
nodes = (
"730 666 LINE",
"668 666 LINE",
"411 0 LINE",
"473 0 LINE"
);
},
{
closed = 1;
nodes = (
"453 0 LINE",
"472 81 LINE",
"255 666 LINE",
"100 666 LINE",
"358 0 LINE"
);
},
{
closed = 1;
nodes = (
"810 720 LINE",
"528 720 LINE",
"528 666 LINE",
"810 666 LINE"
);
},
{
closed = 1;
nodes = (
"415 720 LINE",
"20 720 LINE",
"20 666 LINE",
"415 666 LINE"
);
}
);
width = 830;
},
{
layerId = "46ED8887-C39F-4CE4-BD5B-7A231A6BF840";
paths = (
{
closed = 1;
nodes = (
"691 668 LINE",
"629 668 LINE",
"394 54 LINE",
"383 0 LINE",
"433 0 LINE"
);
},
{
closed = 1;
nodes = (
"399 0 LINE",
"411 47 LINE",
"174 668 LINE",
"110 668 LINE",
"367 0 LINE"
);
},
{
closed = 1;
nodes = (
"781 720 LINE",
"489 720 LINE",
"489 668 LINE",
"781 668 LINE"
);
},
{
closed = 1;
nodes = (
"334 720 LINE",
"20 720 LINE",
"20 668 LINE",
"334 668 LINE"
);
}
);
width = 801;
}
);
leftKerningGroup = V;
leftMetricsKey = A;
rightKerningGroup = V;
rightMetricsKey = A;
unicode = 0056;
},
{
glyphname = W;
lastChange = "2020-02-18 12:14:45 +0000";
layers = (
{
layerId = "D79F8ED9-6C56-4538-8DF1-62DD23430BF9";
paths = (
{
closed = 1;
nodes = (
"1012 668 LINE",
"953 668 LINE",
"762 41 LINE",
"749 0 LINE",
"808 0 LINE"
);
},
{
closed = 1;
nodes = (
"776 0 LINE",
"783 40 LINE",
"588 668 LINE",
"525 668 LINE",
"735 0 LINE"
);
},
{
closed = 1;
nodes = (
"1098 720 LINE",
"837 720 LINE",
"837 668 LINE",
"1098 668 LINE"
);
},
{
closed = 1;
nodes = (
"724 720 LINE",
"409 720 LINE",
"409 668 LINE",
"724 668 LINE"
);
},
{
closed = 1;
nodes = (
"594 574 LINE",
"564 668 LINE",
"373 41 LINE",
"360 0 LINE",
"419 0 LINE"
);
},
{
closed = 1;
nodes = (
"387 0 LINE",
"394 40 LINE",
"199 668 LINE",
"136 668 LINE",
"346 0 LINE"
);
},
{
closed = 1;
nodes = (
"335 720 LINE",
"20 720 LINE",
"20 668 LINE",
"335 668 LINE"
);
}
);
width = 1118;
},
{
layerId = "EA87A73E-C0FE-4015-8704-0B2406CC7903";
paths = (
{
closed = 1;
nodes = (
"1021 666 LINE",
"959 666 LINE",
"751 76 LINE",
"744 0 LINE",
"785 0 LINE"
);
},
{
closed = 1;
nodes = (
"757 0 LINE",
"809 138 LINE",
"628 666 LINE",
"483 666 LINE",
"721 0 LINE"
);
},
{
closed = 1;
nodes = (
"1101 720 LINE",
"839 720 LINE",
"839 666 LINE",
"1101 666 LINE"
);
},
{
closed = 1;
nodes = (
"739 720 LINE",
"404 720 LINE",
"404 666 LINE",
"739 666 LINE"
);
},
{
closed = 1;
nodes = (
"606 580 LINE",
"575 666 LINE",
"367 76 LINE",
"360 0 LINE",
"401 0 LINE"
);
},
{
closed = 1;
nodes = (
"373 0 LINE",
"425 138 LINE",
"244 666 LINE",
"99 666 LINE",
"337 0 LINE"
);
},
{
closed = 1;
nodes = (
"355 720 LINE",
"20 720 LINE",
"20 666 LINE",
"355 666 LINE"
);
}
);
width = 1121;
},
{
associatedMasterId = "EA87A73E-C0FE-4015-8704-0B2406CC7903";
layerId = "986F7040-E498-401C-B0ED-D70AA4F527B6";
name = "Feb 18 20, 10:13";
paths = (
{
closed = 1;
nodes = (
"400 0 LINE",
"426 85 LINE",
"249 666 LINE",
"100 666 LINE",
"310 0 LINE"
);
},
{
closed = 1;
nodes = (
"1025 666 LINE",
"962 666 LINE",
"758 0 LINE",
"821 0 LINE"
);
},
{
closed = 1;
nodes = (
"792 0 LINE",
"818 84 LINE",
"630 666 LINE",
"483 666 LINE",
"702 0 LINE"
);
},
{
closed = 1;
nodes = (
"1105 720 LINE",
"842 720 LINE",
"842 666 LINE",
"1105 666 LINE"
);
},
{
closed = 1;
nodes = (
"349 720 LINE",
"20 720 LINE",
"20 666 LINE",
"349 666 LINE"
);
},
{
closed = 1;
nodes = (
"750 720 LINE",
"413 720 LINE",
"413 666 LINE",
"750 666 LINE"
);
},
{
closed = 1;
nodes = (
"620 597 LINE",
"579 666 LINE",
"364 0 LINE",
"427 0 LINE"
);
}
);
width = 1125;
},
{
layerId = "DBCC401B-C3AE-4436-9575-31462D2FF699";
paths = (
{
closed = 1;
nodes = (
"1021 666 LINE",
"959 666 LINE",
"751 76 LINE",
"744 0 LINE",
"785 0 LINE"
);
},
{
closed = 1;
nodes = (
"757 0 LINE",
"809 138 LINE",
"628 666 LINE",
"483 666 LINE",
"721 0 LINE"
);
},
{
closed = 1;
nodes = (
"1101 720 LINE",
"839 720 LINE",
"839 666 LINE",
"1101 666 LINE"
);
},
{
closed = 1;
nodes = (
"739 720 LINE",
"404 720 LINE",
"404 666 LINE",
"739 666 LINE"
);
},
{
closed = 1;
nodes = (
"606 580 LINE",
"575 666 LINE",
"367 76 LINE",
"360 0 LINE",
"401 0 LINE"
);
},
{
closed = 1;
nodes = (
"373 0 LINE",
"425 138 LINE",
"244 666 LINE",
"99 666 LINE",
"337 0 LINE"
);
},
{
closed = 1;
nodes = (
"355 720 LINE",
"20 720 LINE",
"20 666 LINE",
"355 666 LINE"
);
}
);
width = 1121;
},
{
associatedMasterId = "DBCC401B-C3AE-4436-9575-31462D2FF699";
layerId = "0C80F564-15DE-420C-B105-8C784C834F09";
name = "Feb 18 20, 10:13";
paths = (
{
closed = 1;
nodes = (
"400 0 LINE",
"426 85 LINE",
"249 666 LINE",
"100 666 LINE",
"310 0 LINE"
);
},
{
closed = 1;
nodes = (
"1025 666 LINE",
"962 666 LINE",
"758 0 LINE",
"821 0 LINE"
);
},
{
closed = 1;
nodes = (
"792 0 LINE",
"818 84 LINE",
"630 666 LINE",
"483 666 LINE",
"702 0 LINE"
);
},
{
closed = 1;
nodes = (
"1105 720 LINE",
"842 720 LINE",
"842 666 LINE",
"1105 666 LINE"
);
},
{
closed = 1;
nodes = (
"349 720 LINE",
"20 720 LINE",
"20 666 LINE",
"349 666 LINE"
);
},
{
closed = 1;
nodes = (
"750 720 LINE",
"413 720 LINE",
"413 666 LINE",
"750 666 LINE"
);
},
{
closed = 1;
nodes = (
"620 597 LINE",
"579 666 LINE",
"364 0 LINE",
"427 0 LINE"
);
}
);
width = 1125;
},
{
layerId = "46ED8887-C39F-4CE4-BD5B-7A231A6BF840";
paths = (
{
closed = 1;
nodes = (
"1012 668 LINE",
"953 668 LINE",
"762 41 LINE",
"749 0 LINE",
"808 0 LINE"
);
},
{
closed = 1;
nodes = (
"776 0 LINE",
"783 40 LINE",
"588 668 LINE",
"525 668 LINE",
"735 0 LINE"
);
},
{
closed = 1;
nodes = (
"1098 720 LINE",
"837 720 LINE",
"837 668 LINE",
"1098 668 LINE"
);
},
{
closed = 1;
nodes = (
"724 720 LINE",
"409 720 LINE",
"409 668 LINE",
"724 668 LINE"
);
},
{
closed = 1;
nodes = (
"594 574 LINE",
"564 668 LINE",
"373 41 LINE",
"360 0 LINE",
"419 0 LINE"
);
},
{
closed = 1;
nodes = (
"387 0 LINE",
"394 40 LINE",
"199 668 LINE",
"136 668 LINE",
"346 0 LINE"
);
},
{
closed = 1;
nodes = (
"335 720 LINE",
"20 720 LINE",
"20 668 LINE",
"335 668 LINE"
);
}
);
width = 1118;
}
);
leftKerningGroup = W;
leftMetricsKey = A;
rightKerningGroup = W;
rightMetricsKey = A;
unicode = 0057;
},
{
glyphname = X;
lastChange = "2020-02-18 12:14:45 +0000";
layers = (
{
layerId = "D79F8ED9-6C56-4538-8DF1-62DD23430BF9";
paths = (
{
closed = 1;
nodes = (
"417 391 LINE",
"130 52 LINE",
"204 52 LINE",
"455 349 LINE"
);
},
{
closed = 1;
nodes = (
"815 720 LINE",
"509 720 LINE",
"509 668 LINE",
"815 668 LINE"
);
},
{
closed = 1;
nodes = (
"370 720 LINE",
"52 720 LINE",
"52 668 LINE",
"370 668 LINE"
);
},
{
closed = 1;
nodes = (
"829 52 LINE",
"503 52 LINE",
"503 0 LINE",
"829 0 LINE"
);
},
{
closed = 1;
nodes = (
"354 52 LINE",
"40 52 LINE",
"40 0 LINE",
"354 0 LINE"
);
},
{
closed = 1;
nodes = (
"459 349 LINE",
"729 668 LINE",
"655 668 LINE",
"421 391 LINE"
);
},
{
closed = 1;
nodes = (
"421 338 LINE",
"663 52 LINE",
"739 52 LINE",
"449 395 LINE"
);
},
{
closed = 1;
nodes = (
"445 395 LINE",
"214 668 LINE",
"138 668 LINE",
"417 338 LINE"
);
},
{
closed = 1;
nodes = (
"424 356 LINE",
"454 356 LINE",
"454 381 LINE",
"424 381 LINE"
);
}
);
width = 869;
},
{
layerId = "EA87A73E-C0FE-4015-8704-0B2406CC7903";
paths = (
{
closed = 1;
nodes = (
"402 391 LINE",
"115 54 LINE",
"194 54 LINE",
"445 349 LINE"
);
},
{
closed = 1;
nodes = (
"822 720 LINE",
"527 720 LINE",
"527 666 LINE",
"822 666 LINE"
);
},
{
closed = 1;
nodes = (
"427 720 LINE",
"39 720 LINE",
"39 666 LINE",
"427 666 LINE"
);
},
{
closed = 1;
nodes = (
"860 54 LINE",
"458 54 LINE",
"458 0 LINE",
"860 0 LINE"
);
},
{
closed = 1;
nodes = (
"344 54 LINE",
"35 54 LINE",
"35 0 LINE",
"344 0 LINE"
);
},
{
closed = 1;
nodes = (
"476 349 LINE",
"746 666 LINE",
"667 666 LINE",
"433 391 LINE"
);
},
{
closed = 1;
nodes = (
"381 338 LINE",
"608 54 LINE",
"780 54 LINE",
"504 395 LINE"
);
},
{
closed = 1;
nodes = (
"499 395 LINE",
"283 666 LINE",
"111 666 LINE",
"376 338 LINE"
);
},
{
closed = 1;
nodes = (
"425 356 LINE",
"455 356 LINE",
"455 381 LINE",
"425 381 LINE"
);
}
);
width = 885;
},
{
layerId = "DBCC401B-C3AE-4436-9575-31462D2FF699";
paths = (
{
closed = 1;
nodes = (
"402 391 LINE",
"115 54 LINE",
"194 54 LINE",
"445 349 LINE"
);
},
{
closed = 1;
nodes = (
"822 720 LINE",
"527 720 LINE",
"527 666 LINE",
"822 666 LINE"
);
},
{
closed = 1;
nodes = (
"427 720 LINE",
"39 720 LINE",
"39 666 LINE",
"427 666 LINE"
);
},
{
closed = 1;
nodes = (
"860 54 LINE",
"458 54 LINE",
"458 0 LINE",
"860 0 LINE"
);
},
{
closed = 1;
nodes = (
"344 54 LINE",
"35 54 LINE",
"35 0 LINE",
"344 0 LINE"
);
},
{
closed = 1;
nodes = (
"476 349 LINE",
"746 666 LINE",
"667 666 LINE",
"433 391 LINE"
);
},
{
closed = 1;
nodes = (
"381 338 LINE",
"608 54 LINE",
"780 54 LINE",
"504 395 LINE"
);
},
{
closed = 1;
nodes = (
"499 395 LINE",
"283 666 LINE",
"111 666 LINE",
"376 338 LINE"
);
},
{
closed = 1;
nodes = (
"425 356 LINE",
"455 356 LINE",
"455 381 LINE",
"425 381 LINE"
);
}
);
width = 885;
},
{
layerId = "46ED8887-C39F-4CE4-BD5B-7A231A6BF840";
paths = (
{
closed = 1;
nodes = (
"417 391 LINE",
"130 52 LINE",
"204 52 LINE",
"455 349 LINE"
);
},
{
closed = 1;
nodes = (
"815 720 LINE",
"509 720 LINE",
"509 668 LINE",
"815 668 LINE"
);
},
{
closed = 1;
nodes = (
"370 720 LINE",
"52 720 LINE",
"52 668 LINE",
"370 668 LINE"
);
},
{
closed = 1;
nodes = (
"829 52 LINE",
"503 52 LINE",
"503 0 LINE",
"829 0 LINE"
);
},
{
closed = 1;
nodes = (
"354 52 LINE",
"40 52 LINE",
"40 0 LINE",
"354 0 LINE"
);
},
{
closed = 1;
nodes = (
"459 349 LINE",
"729 668 LINE",
"655 668 LINE",
"421 391 LINE"
);
},
{
closed = 1;
nodes = (
"421 338 LINE",
"663 52 LINE",
"739 52 LINE",
"449 395 LINE"
);
},
{
closed = 1;
nodes = (
"445 395 LINE",
"214 668 LINE",
"138 668 LINE",
"417 338 LINE"
);
},
{
closed = 1;
nodes = (
"424 356 LINE",
"454 356 LINE",
"454 381 LINE",
"424 381 LINE"
);
}
);
width = 869;
}
);
leftKerningGroup = X;
rightKerningGroup = X;
unicode = 0058;
},
{
glyphname = Y;
lastChange = "2020-02-18 14:03:56 +0000";
layers = (
{
layerId = "D79F8ED9-6C56-4538-8DF1-62DD23430BF9";
paths = (
{
closed = 1;
nodes = (
"386 0 LINE",
"446 0 LINE",
"446 339 LINE",
"386 339 LINE"
);
},
{
closed = 1;
nodes = (
"721 668 LINE",
"652 668 LINE",
"395 302 LINE",
"440 273 LINE"
);
},
{
closed = 1;
nodes = (
"440 302 LINE",
"182 668 LINE",
"111 668 LINE",
"392 273 LINE"
);
},
{
closed = 1;
nodes = (
"807 720 LINE",
"516 720 LINE",
"516 668 LINE",
"807 668 LINE"
);
},
{
closed = 1;
nodes = (
"338 720 LINE",
"25 720 LINE",
"25 668 LINE",
"338 668 LINE"
);
},
{
closed = 1;
nodes = (
"246 0 LINE",
"586 0 LINE",
"586 52 LINE",
"246 52 LINE"
);
}
);
width = 832;
},
{
layerId = "EA87A73E-C0FE-4015-8704-0B2406CC7903";
paths = (
{
closed = 1;
nodes = (
"350 0 LINE",
"490 0 LINE",
"490 319 LINE",
"350 319 LINE"
);
},
{
closed = 1;
nodes = (
"730 666 LINE",
"659 666 LINE",
"389 272 LINE",
"439 243 LINE"
);
},
{
closed = 1;
nodes = (
"475 345 LINE",
"260 666 LINE",
"100 666 LINE",
"387 248 LINE"
);
},
{
closed = 1;
nodes = (
"810 720 LINE",
"509 720 LINE",
"509 666 LINE",
"810 666 LINE"
);
},
{
closed = 1;
nodes = (
"410 720 LINE",
"20 720 LINE",
"20 666 LINE",
"410 666 LINE"
);
},
{
closed = 1;
nodes = (
"230 0 LINE",
"610 0 LINE",
"610 54 LINE",
"230 54 LINE"
);
}
);
width = 830;
},
{
layerId = "DBCC401B-C3AE-4436-9575-31462D2FF699";
paths = (
{
closed = 1;
nodes = (
"350 0 LINE",
"490 0 LINE",
"490 319 LINE",
"350 319 LINE"
);
},
{
closed = 1;
nodes = (
"730 666 LINE",
"659 666 LINE",
"389 272 LINE",
"439 243 LINE"
);
},
{
closed = 1;
nodes = (
"475 345 LINE",
"260 666 LINE",
"100 666 LINE",
"387 248 LINE"
);
},
{
closed = 1;
nodes = (
"810 720 LINE",
"509 720 LINE",
"509 666 LINE",
"810 666 LINE"
);
},
{
closed = 1;
nodes = (
"410 720 LINE",
"20 720 LINE",
"20 666 LINE",
"410 666 LINE"
);
},
{
closed = 1;
nodes = (
"180 0 LINE",
"660 0 LINE",
"660 54 LINE",
"180 54 LINE"
);
}
);
width = 830;
},
{
layerId = "46ED8887-C39F-4CE4-BD5B-7A231A6BF840";
paths = (
{
closed = 1;
nodes = (
"386 0 LINE",
"446 0 LINE",
"446 339 LINE",
"386 339 LINE"
);
},
{
closed = 1;
nodes = (
"721 668 LINE",
"652 668 LINE",
"395 302 LINE",
"440 273 LINE"
);
},
{
closed = 1;
nodes = (
"440 302 LINE",
"182 668 LINE",
"111 668 LINE",
"392 273 LINE"
);
},
{
closed = 1;
nodes = (
"807 720 LINE",
"516 720 LINE",
"516 668 LINE",
"807 668 LINE"
);
},
{
closed = 1;
nodes = (
"338 720 LINE",
"25 720 LINE",
"25 668 LINE",
"338 668 LINE"
);
},
{
closed = 1;
nodes = (
"186 0 LINE",
"646 0 LINE",
"646 52 LINE",
"186 52 LINE"
);
}
);
width = 832;
}
);
leftKerningGroup = Y;
rightKerningGroup = Y;
unicode = 0059;
},
{
glyphname = Z;
lastChange = "2020-02-18 12:38:43 +0000";
layers = (
{
layerId = "D79F8ED9-6C56-4538-8DF1-62DD23430BF9";
paths = (
{
closed = 1;
nodes = (
"99 668 LINE",
"593 668 LINE",
"675 674 LINE",
"675 720 LINE",
"99 720 LINE"
);
},
{
closed = 1;
nodes = (
"85 0 LINE",
"675 0 LINE",
"675 52 LINE",
"167 52 LINE",
"85 46 LINE"
);
},
{
closed = 1;
nodes = (
"167 52 LINE",
"675 674 LINE",
"593 668 LINE",
"85 46 LINE"
);
},
{
closed = 1;
nodes = (
"99 668 LINE",
"99 510 LINE",
"155 510 LINE",
"155 598 LINE SMOOTH",
"155 652 OFFCURVE",
"167 668 OFFCURVE",
"225 668 CURVE"
);
},
{
closed = 1;
nodes = (
"675 52 LINE",
"675 230 LINE",
"619 230 LINE",
"619 122 LINE SMOOTH",
"619 68 OFFCURVE",
"607 52 OFFCURVE",
"549 52 CURVE"
);
}
);
width = 755;
},
{
layerId = "EA87A73E-C0FE-4015-8704-0B2406CC7903";
paths = (
{
closed = 1;
nodes = (
"86 666 LINE",
"512 666 LINE",
"682 670 LINE",
"682 720 LINE",
"86 720 LINE"
);
},
{
closed = 1;
nodes = (
"72 0 LINE",
"682 0 LINE",
"682 54 LINE",
"242 54 LINE",
"72 50 LINE"
);
},
{
closed = 1;
nodes = (
"242 54 LINE",
"682 670 LINE",
"512 666 LINE",
"72 50 LINE"
);
},
{
closed = 1;
nodes = (
"86 666 LINE",
"86 495 LINE",
"144 495 LINE",
"144 536 LINE SMOOTH",
"144 637 OFFCURVE",
"167 666 OFFCURVE",
"274 666 CURVE"
);
},
{
closed = 1;
nodes = (
"682 54 LINE",
"682 245 LINE",
"624 245 LINE",
"624 184 LINE SMOOTH",
"624 83 OFFCURVE",
"601 54 OFFCURVE",
"494 54 CURVE"
);
}
);
width = 752;
},
{
layerId = "DBCC401B-C3AE-4436-9575-31462D2FF699";
paths = (
{
closed = 1;
nodes = (
"86 666 LINE",
"512 666 LINE",
"682 670 LINE",
"682 720 LINE",
"86 720 LINE"
);
},
{
closed = 1;
nodes = (
"72 0 LINE",
"682 0 LINE",
"682 54 LINE",
"242 54 LINE",
"72 50 LINE"
);
},
{
closed = 1;
nodes = (
"242 54 LINE",
"682 670 LINE",
"512 666 LINE",
"72 50 LINE"
);
},
{
closed = 1;
nodes = (
"86 666 LINE",
"86 440 LINE",
"144 440 LINE",
"144 536 LINE SMOOTH",
"144 637 OFFCURVE",
"167 666 OFFCURVE",
"274 666 CURVE"
);
},
{
closed = 1;
nodes = (
"682 54 LINE",
"682 310 LINE",
"624 310 LINE",
"624 184 LINE SMOOTH",
"624 83 OFFCURVE",
"601 54 OFFCURVE",
"494 54 CURVE"
);
}
);
width = 752;
},
{
layerId = "46ED8887-C39F-4CE4-BD5B-7A231A6BF840";
paths = (
{
closed = 1;
nodes = (
"99 668 LINE",
"593 668 LINE",
"675 674 LINE",
"675 720 LINE",
"99 720 LINE"
);
},
{
closed = 1;
nodes = (
"85 0 LINE",
"675 0 LINE",
"675 52 LINE",
"167 52 LINE",
"85 46 LINE"
);
},
{
closed = 1;
nodes = (
"167 52 LINE",
"675 674 LINE",
"593 668 LINE",
"85 46 LINE"
);
},
{
closed = 1;
nodes = (
"99 668 LINE",
"99 440 LINE",
"155 440 LINE",
"155 598 LINE SMOOTH",
"155 652 OFFCURVE",
"167 668 OFFCURVE",
"225 668 CURVE"
);
},
{
closed = 1;
nodes = (
"675 52 LINE",
"675 310 LINE",
"619 310 LINE",
"619 122 LINE SMOOTH",
"619 68 OFFCURVE",
"607 52 OFFCURVE",
"549 52 CURVE"
);
}
);
width = 755;
}
);
leftKerningGroup = Z;
rightKerningGroup = Z;
unicode = 005A;
},
{
glyphname = a;
lastChange = "2020-02-18 13:48:34 +0000";
layers = (
{
anchors = (
{
name = bottom;
position = "{351, 0}";
},
{
name = ogonek;
position = "{604, 10}";
},
{
name = top;
position = "{351, 560}";
}
);
layerId = "D79F8ED9-6C56-4538-8DF1-62DD23430BF9";
paths = (
{
closed = 1;
nodes = (
"80 383 OFFCURVE",
"109 352 OFFCURVE",
"143 352 CURVE SMOOTH",
"172 352 OFFCURVE",
"188 370 OFFCURVE",
"188 391 CURVE SMOOTH",
"188 409 OFFCURVE",
"179 419 OFFCURVE",
"170 427 CURVE SMOOTH",
"160 436 OFFCURVE",
"152 443 OFFCURVE",
"152 456 CURVE SMOOTH",
"152 491 OFFCURVE",
"204 520 OFFCURVE",
"286 520 CURVE SMOOTH",
"361 520 OFFCURVE",
"421 485 OFFCURVE",
"421 424 CURVE",
"478 409 LINE",
"478 521 OFFCURVE",
"395 570 OFFCURVE",
"290 570 CURVE SMOOTH",
"173 570 OFFCURVE",
"80 509 OFFCURVE",
"80 426 CURVE SMOOTH"
);
},
{
closed = 1;
nodes = (
"308 274 LINE SMOOTH",
"368 293 OFFCURVE",
"404 309 OFFCURVE",
"421 341 CURVE",
"421 424 LINE",
"421 361 OFFCURVE",
"368 344 OFFCURVE",
"297 322 CURVE SMOOTH",
"229 301 LINE SMOOTH",
"135 272 OFFCURVE",
"68 225 OFFCURVE",
"68 135 CURVE SMOOTH",
"68 45 OFFCURVE",
"139 -10 OFFCURVE",
"235 -10 CURVE SMOOTH",
"348 -10 OFFCURVE",
"433 68 OFFCURVE",
"433 191 CURVE",
"421 311 LINE",
"421 105 OFFCURVE",
"321 42 OFFCURVE",
"240 42 CURVE SMOOTH",
"174 42 OFFCURVE",
"126 76 OFFCURVE",
"126 137 CURVE SMOOTH",
"126 197 OFFCURVE",
"176 232 OFFCURVE",
"254 257 CURVE SMOOTH"
);
},
{
closed = 1;
nodes = (
"421 194 LINE",
"424 194 LINE",
"422 116 LINE SMOOTH",
"420 39 OFFCURVE",
"462 -6 OFFCURVE",
"533 -6 CURVE SMOOTH",
"600 -6 OFFCURVE",
"642 40 OFFCURVE",
"642 116 CURVE SMOOTH",
"642 140 LINE",
"588 140 LINE",
"588 110 LINE SMOOTH",
"588 73 OFFCURVE",
"570 46 OFFCURVE",
"536 46 CURVE SMOOTH",
"498 46 OFFCURVE",
"478 72 OFFCURVE",
"478 112 CURVE SMOOTH",
"478 409 LINE",
"421 424 LINE"
);
}
);
width = 678;
},
{
associatedMasterId = "D79F8ED9-6C56-4538-8DF1-62DD23430BF9";
layerId = "E87BEC4C-A35D-433C-B0A2-FB70128DFA1E";
name = v1;
paths = (
{
closed = 1;
nodes = (
"115 370 LINE",
"122 464 OFFCURVE",
"176 510 OFFCURVE",
"264 510 CURVE SMOOTH",
"350 510 OFFCURVE",
"394 464 OFFCURVE",
"394 400 CURVE",
"466 392 LINE",
"466 508 OFFCURVE",
"382 570 OFFCURVE",
"266 570 CURVE SMOOTH",
"150 570 OFFCURVE",
"49 508 OFFCURVE",
"45 370 CURVE"
);
},
{
closed = 1;
nodes = (
"394 334 LINE",
"394 397 LINE",
"199 320 LINE SMOOTH",
"99 281 OFFCURVE",
"40 232 OFFCURVE",
"40 142 CURVE SMOOTH",
"40 53 OFFCURVE",
"108 -10 OFFCURVE",
"212 -10 CURVE SMOOTH",
"326 -10 OFFCURVE",
"387 59 OFFCURVE",
"406 138 CURVE",
"398 213 LINE",
"394 222 LINE",
"394 282 LINE",
"394 116 OFFCURVE",
"307 54 OFFCURVE",
"216 54 CURVE SMOOTH",
"149 54 OFFCURVE",
"112 94 OFFCURVE",
"112 145 CURVE SMOOTH",
"112 197 OFFCURVE",
"138 231 OFFCURVE",
"219 263 CURVE SMOOTH"
);
},
{
closed = 1;
nodes = (
"394 203 LINE",
"394 194 LINE",
"394 122 LINE SMOOTH",
"394 36 OFFCURVE",
"439 -10 OFFCURVE",
"508 -10 CURVE SMOOTH",
"576 -10 OFFCURVE",
"614 37 OFFCURVE",
"614 116 CURVE SMOOTH",
"614 260 LINE",
"556 260 LINE",
"556 110 LINE SMOOTH",
"556 78 OFFCURVE",
"540 56 OFFCURVE",
"511 56 CURVE SMOOTH",
"482 56 OFFCURVE",
"466 77 OFFCURVE",
"466 110 CURVE SMOOTH",
"466 392 LINE",
"394 400 LINE"
);
}
);
width = 654;
},
{
associatedMasterId = "D79F8ED9-6C56-4538-8DF1-62DD23430BF9";
layerId = "B385E8A2-367E-457C-A7AA-FFFE29CA5E2B";
name = v2;
paths = (
{
closed = 1;
nodes = (
"115 370 LINE",
"122 464 OFFCURVE",
"176 510 OFFCURVE",
"264 510 CURVE SMOOTH",
"350 510 OFFCURVE",
"394 464 OFFCURVE",
"394 400 CURVE",
"466 392 LINE",
"466 508 OFFCURVE",
"382 570 OFFCURVE",
"266 570 CURVE SMOOTH",
"150 570 OFFCURVE",
"49 508 OFFCURVE",
"45 370 CURVE"
);
},
{
closed = 1;
nodes = (
"394 308 LINE",
"394 366 LINE",
"217 318 LINE SMOOTH",
"113 290 OFFCURVE",
"40 243 OFFCURVE",
"40 147 CURVE SMOOTH",
"40 50 OFFCURVE",
"116 -10 OFFCURVE",
"222 -10 CURVE SMOOTH",
"330 -10 OFFCURVE",
"387 53 OFFCURVE",
"404 138 CURVE",
"398 213 LINE",
"394 222 LINE",
"394 282 LINE",
"394 116 OFFCURVE",
"315 54 OFFCURVE",
"224 54 CURVE SMOOTH",
"157 54 OFFCURVE",
"116 93 OFFCURVE",
"116 148 CURVE SMOOTH",
"116 204 OFFCURVE",
"153 242 OFFCURVE",
"237 265 CURVE SMOOTH"
);
},
{
closed = 1;
nodes = (
"394 203 LINE",
"394 194 LINE",
"394 122 LINE SMOOTH",
"394 36 OFFCURVE",
"439 -10 OFFCURVE",
"508 -10 CURVE SMOOTH",
"576 -10 OFFCURVE",
"614 37 OFFCURVE",
"614 116 CURVE SMOOTH",
"614 260 LINE",
"556 260 LINE",
"556 110 LINE SMOOTH",
"556 78 OFFCURVE",
"540 56 OFFCURVE",
"511 56 CURVE SMOOTH",
"482 56 OFFCURVE",
"466 77 OFFCURVE",
"466 110 CURVE SMOOTH",
"466 392 LINE",
"394 400 LINE"
);
}
);
width = 654;
},
{
anchors = (
{
name = bottom;
position = "{316, 0}";
},
{
name = ogonek;
position = "{569, 10}";
},
{
name = top;
position = "{316, 560}";
}
);
associatedMasterId = "D79F8ED9-6C56-4538-8DF1-62DD23430BF9";
layerId = "EC33CBEF-A667-4827-A276-B00DF80DFE49";
name = v3;
paths = (
{
closed = 1;
nodes = (
"37 359 OFFCURVE",
"66 326 OFFCURVE",
"104 326 CURVE SMOOTH",
"137 326 OFFCURVE",
"155 345 OFFCURVE",
"155 372 CURVE SMOOTH",
"155 413 OFFCURVE",
"115 411 OFFCURVE",
"115 441 CURVE SMOOTH",
"115 481 OFFCURVE",
"163 516 OFFCURVE",
"248 516 CURVE SMOOTH",
"322 516 OFFCURVE",
"378 482 OFFCURVE",
"378 422 CURVE",
"450 405 LINE",
"450 519 OFFCURVE",
"368 570 OFFCURVE",
"252 570 CURVE SMOOTH",
"137 570 OFFCURVE",
"37 512 OFFCURVE",
"37 409 CURVE SMOOTH"
);
},
{
closed = 1;
nodes = (
"276 274 LINE SMOOTH",
"335 292 OFFCURVE",
"367 310 OFFCURVE",
"378 339 CURVE",
"378 422 LINE",
"378 361 OFFCURVE",
"329 346 OFFCURVE",
"262 326 CURVE SMOOTH",
"186 303 LINE SMOOTH",
"86 273 OFFCURVE",
"24 232 OFFCURVE",
"24 134 CURVE SMOOTH",
"24 44 OFFCURVE",
"104 -10 OFFCURVE",
"198 -10 CURVE SMOOTH",
"293 -10 OFFCURVE",
"362 44 OFFCURVE",
"378 128 CURVE",
"378 311 LINE",
"378 111 OFFCURVE",
"279 54 OFFCURVE",
"203 54 CURVE SMOOTH",
"138 54 OFFCURVE",
"100 93 OFFCURVE",
"100 138 CURVE SMOOTH",
"100 203 OFFCURVE",
"146 234 OFFCURVE",
"218 256 CURVE SMOOTH"
);
},
{
closed = 1;
nodes = (
"378 122 LINE",
"378 36 OFFCURVE",
"423 -10 OFFCURVE",
"492 -10 CURVE SMOOTH",
"560 -10 OFFCURVE",
"598 37 OFFCURVE",
"598 116 CURVE SMOOTH",
"598 260 LINE",
"540 260 LINE",
"540 110 LINE SMOOTH",
"540 78 OFFCURVE",
"524 56 OFFCURVE",
"495 56 CURVE SMOOTH",
"466 56 OFFCURVE",
"450 77 OFFCURVE",
"450 110 CURVE SMOOTH",
"450 405 LINE",
"378 422 LINE"
);
}
);
width = 632;
},
{
anchors = (
{
name = bottom;
position = "{316, 0}";
},
{
name = ogonek;
position = "{569, 10}";
},
{
name = top;
position = "{316, 560}";
}
);
associatedMasterId = "D79F8ED9-6C56-4538-8DF1-62DD23430BF9";
layerId = "ECC1F2B2-0250-40C3-A9F0-170CB9A44A6F";
name = v4;
paths = (
{
closed = 1;
nodes = (
"106 369 LINE",
"110 482 OFFCURVE",
"180 516 OFFCURVE",
"252 516 CURVE SMOOTH",
"324 516 OFFCURVE",
"378 486 OFFCURVE",
"378 422 CURVE",
"450 405 LINE",
"450 519 OFFCURVE",
"368 570 OFFCURVE",
"252 570 CURVE SMOOTH",
"142 570 OFFCURVE",
"38 511 OFFCURVE",
"34 369 CURVE"
);
},
{
closed = 1;
nodes = (
"276 274 LINE SMOOTH",
"335 292 OFFCURVE",
"367 310 OFFCURVE",
"378 339 CURVE",
"378 422 LINE",
"378 361 OFFCURVE",
"329 346 OFFCURVE",
"262 326 CURVE SMOOTH",
"186 303 LINE SMOOTH",
"86 273 OFFCURVE",
"24 232 OFFCURVE",
"24 134 CURVE SMOOTH",
"24 44 OFFCURVE",
"104 -10 OFFCURVE",
"198 -10 CURVE SMOOTH",
"293 -10 OFFCURVE",
"362 44 OFFCURVE",
"378 128 CURVE",
"378 311 LINE",
"378 111 OFFCURVE",
"279 54 OFFCURVE",
"203 54 CURVE SMOOTH",
"138 54 OFFCURVE",
"100 93 OFFCURVE",
"100 138 CURVE SMOOTH",
"100 203 OFFCURVE",
"146 234 OFFCURVE",
"218 256 CURVE SMOOTH"
);
},
{
closed = 1;
nodes = (
"378 122 LINE",
"378 36 OFFCURVE",
"423 -10 OFFCURVE",
"492 -10 CURVE SMOOTH",
"560 -10 OFFCURVE",
"598 37 OFFCURVE",
"598 116 CURVE SMOOTH",
"598 260 LINE",
"540 260 LINE",
"540 110 LINE SMOOTH",
"540 78 OFFCURVE",
"524 56 OFFCURVE",
"495 56 CURVE SMOOTH",
"466 56 OFFCURVE",
"450 77 OFFCURVE",
"450 110 CURVE SMOOTH",
"450 405 LINE",
"378 422 LINE"
);
}
);
width = 632;
},
{
anchors = (
{
name = bottom;
position = "{376, 0}";
},
{
name = ogonek;
position = "{629, 0}";
},
{
name = top;
position = "{376, 560}";
}
);
layerId = "EA87A73E-C0FE-4015-8704-0B2406CC7903";
paths = (
{
closed = 1;
nodes = (
"76 377 OFFCURVE",
"111 346 OFFCURVE",
"160 346 CURVE SMOOTH",
"194 346 OFFCURVE",
"220 367 OFFCURVE",
"220 398 CURVE SMOOTH",
"220 417 OFFCURVE",
"209 429 OFFCURVE",
"199 437 CURVE SMOOTH",
"188 446 OFFCURVE",
"180 451 OFFCURVE",
"180 465 CURVE SMOOTH",
"180 494 OFFCURVE",
"232 518 OFFCURVE",
"295 518 CURVE SMOOTH",
"365 518 OFFCURVE",
"408 482 OFFCURVE",
"408 422 CURVE",
"526 389 LINE",
"526 518 OFFCURVE",
"436 570 OFFCURVE",
"317 570 CURVE SMOOTH",
"189 570 OFFCURVE",
"76 512 OFFCURVE",
"76 421 CURVE SMOOTH"
);
},
{
closed = 1;
nodes = (
"329 284 LINE SMOOTH",
"369 298 OFFCURVE",
"396 314 OFFCURVE",
"408 334 CURVE",
"408 422 LINE",
"408 368 OFFCURVE",
"364 347 OFFCURVE",
"311 332 CURVE SMOOTH",
"234 310 LINE SMOOTH",
"142 284 OFFCURVE",
"62 235 OFFCURVE",
"62 136 CURVE SMOOTH",
"62 40 OFFCURVE",
"138 -10 OFFCURVE",
"230 -10 CURVE SMOOTH",
"337 -10 OFFCURVE",
"426 66 OFFCURVE",
"426 191 CURVE",
"408 281 LINE",
"408 115 OFFCURVE",
"336 72 OFFCURVE",
"277 72 CURVE SMOOTH",
"218 72 OFFCURVE",
"188 107 OFFCURVE",
"188 156 CURVE SMOOTH",
"188 211 OFFCURVE",
"228 249 OFFCURVE",
"294 272 CURVE SMOOTH"
);
},
{
closed = 1;
nodes = (
"408 194 LINE",
"410 194 LINE",
"410 130 LINE SMOOTH",
"410 47 OFFCURVE",
"462 -8 OFFCURVE",
"543 -8 CURVE SMOOTH",
"624 -8 OFFCURVE",
"674 43 OFFCURVE",
"674 130 CURVE SMOOTH",
"674 165 LINE",
"616 165 LINE",
"616 126 LINE SMOOTH",
"616 92 OFFCURVE",
"599 70 OFFCURVE",
"569 70 CURVE SMOOTH",
"539 70 OFFCURVE",
"526 92 OFFCURVE",
"526 126 CURVE SMOOTH",
"526 389 LINE",
"408 422 LINE"
);
}
);
width = 698;
},
{
associatedMasterId = "EA87A73E-C0FE-4015-8704-0B2406CC7903";
layerId = "1EA887A6-5468-4836-9D7B-163D21340180";
name = v1;
paths = (
{
closed = 1;
nodes = (
"115 370 LINE",
"122 464 OFFCURVE",
"176 510 OFFCURVE",
"264 510 CURVE SMOOTH",
"350 510 OFFCURVE",
"394 464 OFFCURVE",
"394 400 CURVE",
"466 392 LINE",
"466 508 OFFCURVE",
"382 570 OFFCURVE",
"266 570 CURVE SMOOTH",
"150 570 OFFCURVE",
"49 508 OFFCURVE",
"45 370 CURVE"
);
},
{
closed = 1;
nodes = (
"394 334 LINE",
"394 397 LINE",
"199 320 LINE SMOOTH",
"99 281 OFFCURVE",
"40 232 OFFCURVE",
"40 142 CURVE SMOOTH",
"40 53 OFFCURVE",
"108 -10 OFFCURVE",
"212 -10 CURVE SMOOTH",
"326 -10 OFFCURVE",
"387 59 OFFCURVE",
"406 138 CURVE",
"398 213 LINE",
"394 222 LINE",
"394 282 LINE",
"394 116 OFFCURVE",
"307 54 OFFCURVE",
"216 54 CURVE SMOOTH",
"149 54 OFFCURVE",
"112 94 OFFCURVE",
"112 145 CURVE SMOOTH",
"112 197 OFFCURVE",
"138 231 OFFCURVE",
"219 263 CURVE SMOOTH"
);
},
{
closed = 1;
nodes = (
"394 203 LINE",
"394 194 LINE",
"394 122 LINE SMOOTH",
"394 36 OFFCURVE",
"439 -10 OFFCURVE",
"508 -10 CURVE SMOOTH",
"576 -10 OFFCURVE",
"614 37 OFFCURVE",
"614 116 CURVE SMOOTH",
"614 260 LINE",
"556 260 LINE",
"556 110 LINE SMOOTH",
"556 78 OFFCURVE",
"540 56 OFFCURVE",
"511 56 CURVE SMOOTH",
"482 56 OFFCURVE",
"466 77 OFFCURVE",
"466 110 CURVE SMOOTH",
"466 392 LINE",
"394 400 LINE"
);
}
);
width = 654;
},
{
associatedMasterId = "EA87A73E-C0FE-4015-8704-0B2406CC7903";
layerId = "83047C0D-FBB0-436A-92D3-9AE1AA93E220";
name = v2;
paths = (
{
closed = 1;
nodes = (
"115 370 LINE",
"122 464 OFFCURVE",
"176 510 OFFCURVE",
"264 510 CURVE SMOOTH",
"350 510 OFFCURVE",
"394 464 OFFCURVE",
"394 400 CURVE",
"466 392 LINE",
"466 508 OFFCURVE",
"382 570 OFFCURVE",
"266 570 CURVE SMOOTH",
"150 570 OFFCURVE",
"49 508 OFFCURVE",
"45 370 CURVE"
);
},
{
closed = 1;
nodes = (
"394 308 LINE",
"394 366 LINE",
"217 318 LINE SMOOTH",
"113 290 OFFCURVE",
"40 243 OFFCURVE",
"40 147 CURVE SMOOTH",
"40 50 OFFCURVE",
"116 -10 OFFCURVE",
"222 -10 CURVE SMOOTH",
"330 -10 OFFCURVE",
"387 53 OFFCURVE",
"404 138 CURVE",
"398 213 LINE",
"394 222 LINE",
"394 282 LINE",
"394 116 OFFCURVE",
"315 54 OFFCURVE",
"224 54 CURVE SMOOTH",
"157 54 OFFCURVE",
"116 93 OFFCURVE",
"116 148 CURVE SMOOTH",
"116 204 OFFCURVE",
"153 242 OFFCURVE",
"237 265 CURVE SMOOTH"
);
},
{
closed = 1;
nodes = (
"394 203 LINE",
"394 194 LINE",
"394 122 LINE SMOOTH",
"394 36 OFFCURVE",
"439 -10 OFFCURVE",
"508 -10 CURVE SMOOTH",
"576 -10 OFFCURVE",
"614 37 OFFCURVE",
"614 116 CURVE SMOOTH",
"614 260 LINE",
"556 260 LINE",
"556 110 LINE SMOOTH",
"556 78 OFFCURVE",
"540 56 OFFCURVE",
"511 56 CURVE SMOOTH",
"482 56 OFFCURVE",
"466 77 OFFCURVE",
"466 110 CURVE SMOOTH",
"466 392 LINE",
"394 400 LINE"
);
}
);
width = 654;
},
{
anchors = (
{
name = bottom;
position = "{316, 0}";
},
{
name = ogonek;
position = "{569, 10}";
},
{
name = top;
position = "{316, 560}";
}
);
associatedMasterId = "EA87A73E-C0FE-4015-8704-0B2406CC7903";
layerId = "FF6434AF-670D-41DF-BD06-C9700E6715D0";
name = v3;
paths = (
{
closed = 1;
nodes = (
"37 359 OFFCURVE",
"66 326 OFFCURVE",
"104 326 CURVE SMOOTH",
"137 326 OFFCURVE",
"155 345 OFFCURVE",
"155 372 CURVE SMOOTH",
"155 413 OFFCURVE",
"115 411 OFFCURVE",
"115 441 CURVE SMOOTH",
"115 481 OFFCURVE",
"163 516 OFFCURVE",
"248 516 CURVE SMOOTH",
"322 516 OFFCURVE",
"378 482 OFFCURVE",
"378 422 CURVE",
"450 405 LINE",
"450 519 OFFCURVE",
"368 570 OFFCURVE",
"252 570 CURVE SMOOTH",
"137 570 OFFCURVE",
"37 512 OFFCURVE",
"37 409 CURVE SMOOTH"
);
},
{
closed = 1;
nodes = (
"276 274 LINE SMOOTH",
"335 292 OFFCURVE",
"367 310 OFFCURVE",
"378 339 CURVE",
"378 422 LINE",
"378 361 OFFCURVE",
"329 346 OFFCURVE",
"262 326 CURVE SMOOTH",
"186 303 LINE SMOOTH",
"86 273 OFFCURVE",
"24 232 OFFCURVE",
"24 134 CURVE SMOOTH",
"24 44 OFFCURVE",
"104 -10 OFFCURVE",
"198 -10 CURVE SMOOTH",
"293 -10 OFFCURVE",
"362 44 OFFCURVE",
"378 128 CURVE",
"378 311 LINE",
"378 111 OFFCURVE",
"279 54 OFFCURVE",
"203 54 CURVE SMOOTH",
"138 54 OFFCURVE",
"100 93 OFFCURVE",
"100 138 CURVE SMOOTH",
"100 203 OFFCURVE",
"146 234 OFFCURVE",
"218 256 CURVE SMOOTH"
);
},
{
closed = 1;
nodes = (
"378 122 LINE",
"378 36 OFFCURVE",
"423 -10 OFFCURVE",
"492 -10 CURVE SMOOTH",
"560 -10 OFFCURVE",
"598 37 OFFCURVE",
"598 116 CURVE SMOOTH",
"598 260 LINE",
"540 260 LINE",
"540 110 LINE SMOOTH",
"540 78 OFFCURVE",
"524 56 OFFCURVE",
"495 56 CURVE SMOOTH",
"466 56 OFFCURVE",
"450 77 OFFCURVE",
"450 110 CURVE SMOOTH",
"450 405 LINE",
"378 422 LINE"
);
}
);
width = 632;
},
{
anchors = (
{
name = bottom;
position = "{316, 0}";
},
{
name = ogonek;
position = "{569, 10}";
},
{
name = top;
position = "{316, 560}";
}
);
associatedMasterId = "EA87A73E-C0FE-4015-8704-0B2406CC7903";
layerId = "BB043C62-772E-4863-AD4E-B908CB2E8D2F";
name = v4;
paths = (
{
closed = 1;
nodes = (
"106 369 LINE",
"110 482 OFFCURVE",
"180 516 OFFCURVE",
"252 516 CURVE SMOOTH",
"324 516 OFFCURVE",
"378 486 OFFCURVE",
"378 422 CURVE",
"450 405 LINE",
"450 519 OFFCURVE",
"368 570 OFFCURVE",
"252 570 CURVE SMOOTH",
"142 570 OFFCURVE",
"38 511 OFFCURVE",
"34 369 CURVE"
);
},
{
closed = 1;
nodes = (
"276 274 LINE SMOOTH",
"335 292 OFFCURVE",
"367 310 OFFCURVE",
"378 339 CURVE",
"378 422 LINE",
"378 361 OFFCURVE",
"329 346 OFFCURVE",
"262 326 CURVE SMOOTH",
"186 303 LINE SMOOTH",
"86 273 OFFCURVE",
"24 232 OFFCURVE",
"24 134 CURVE SMOOTH",
"24 44 OFFCURVE",
"104 -10 OFFCURVE",
"198 -10 CURVE SMOOTH",
"293 -10 OFFCURVE",
"362 44 OFFCURVE",
"378 128 CURVE",
"378 311 LINE",
"378 111 OFFCURVE",
"279 54 OFFCURVE",
"203 54 CURVE SMOOTH",
"138 54 OFFCURVE",
"100 93 OFFCURVE",
"100 138 CURVE SMOOTH",
"100 203 OFFCURVE",
"146 234 OFFCURVE",
"218 256 CURVE SMOOTH"
);
},
{
closed = 1;
nodes = (
"378 122 LINE",
"378 36 OFFCURVE",
"423 -10 OFFCURVE",
"492 -10 CURVE SMOOTH",
"560 -10 OFFCURVE",
"598 37 OFFCURVE",
"598 116 CURVE SMOOTH",
"598 260 LINE",
"540 260 LINE",
"540 110 LINE SMOOTH",
"540 78 OFFCURVE",
"524 56 OFFCURVE",
"495 56 CURVE SMOOTH",
"466 56 OFFCURVE",
"450 77 OFFCURVE",
"450 110 CURVE SMOOTH",
"450 405 LINE",
"378 422 LINE"
);
}
);
width = 632;
},
{
anchors = (
{
name = bottom;
position = "{376, 0}";
},
{
name = ogonek;
position = "{629, 0}";
},
{
name = top;
position = "{376, 560}";
}
);
layerId = "DBCC401B-C3AE-4436-9575-31462D2FF699";
paths = (
{
closed = 1;
nodes = (
"71 359 OFFCURVE",
"109 326 OFFCURVE",
"155 326 CURVE SMOOTH",
"189 326 OFFCURVE",
"215 348 OFFCURVE",
"215 380 CURVE SMOOTH",
"215 399 OFFCURVE",
"204 411 OFFCURVE",
"194 419 CURVE SMOOTH",
"183 428 OFFCURVE",
"175 435 OFFCURVE",
"175 450 CURVE SMOOTH",
"175 483 OFFCURVE",
"229 518 OFFCURVE",
"295 518 CURVE SMOOTH",
"365 518 OFFCURVE",
"408 482 OFFCURVE",
"408 422 CURVE",
"526 389 LINE",
"526 518 OFFCURVE",
"436 570 OFFCURVE",
"317 570 CURVE SMOOTH",
"195 570 OFFCURVE",
"71 508 OFFCURVE",
"71 406 CURVE SMOOTH"
);
},
{
closed = 1;
nodes = (
"329 284 LINE SMOOTH",
"369 298 OFFCURVE",
"396 314 OFFCURVE",
"408 334 CURVE",
"408 422 LINE",
"408 368 OFFCURVE",
"364 347 OFFCURVE",
"311 332 CURVE SMOOTH",
"234 310 LINE SMOOTH",
"142 284 OFFCURVE",
"62 235 OFFCURVE",
"62 136 CURVE SMOOTH",
"62 40 OFFCURVE",
"138 -10 OFFCURVE",
"230 -10 CURVE SMOOTH",
"337 -10 OFFCURVE",
"426 66 OFFCURVE",
"426 191 CURVE",
"408 281 LINE",
"408 115 OFFCURVE",
"336 72 OFFCURVE",
"277 72 CURVE SMOOTH",
"218 72 OFFCURVE",
"188 107 OFFCURVE",
"188 156 CURVE SMOOTH",
"188 211 OFFCURVE",
"228 249 OFFCURVE",
"294 272 CURVE SMOOTH"
);
},
{
closed = 1;
nodes = (
"408 194 LINE",
"410 194 LINE",
"410 132 LINE SMOOTH",
"410 48 OFFCURVE",
"464 -8 OFFCURVE",
"548 -8 CURVE SMOOTH",
"632 -8 OFFCURVE",
"684 44 OFFCURVE",
"684 132 CURVE SMOOTH",
"684 300 LINE",
"626 300 LINE",
"626 128 LINE SMOOTH",
"626 93 OFFCURVE",
"607 70 OFFCURVE",
"574 70 CURVE SMOOTH",
"541 70 OFFCURVE",
"526 93 OFFCURVE",
"526 128 CURVE SMOOTH",
"526 389 LINE",
"408 422 LINE"
);
}
);
width = 726;
},
{
associatedMasterId = "DBCC401B-C3AE-4436-9575-31462D2FF699";
layerId = "6AEA9548-3389-42AB-AC15-7E4558F422B5";
name = v1;
paths = (
{
closed = 1;
nodes = (
"115 370 LINE",
"122 464 OFFCURVE",
"176 510 OFFCURVE",
"264 510 CURVE SMOOTH",
"350 510 OFFCURVE",
"394 464 OFFCURVE",
"394 400 CURVE",
"466 392 LINE",
"466 508 OFFCURVE",
"382 570 OFFCURVE",
"266 570 CURVE SMOOTH",
"150 570 OFFCURVE",
"49 508 OFFCURVE",
"45 370 CURVE"
);
},
{
closed = 1;
nodes = (
"394 334 LINE",
"394 397 LINE",
"199 320 LINE SMOOTH",
"99 281 OFFCURVE",
"40 232 OFFCURVE",
"40 142 CURVE SMOOTH",
"40 53 OFFCURVE",
"108 -10 OFFCURVE",
"212 -10 CURVE SMOOTH",
"326 -10 OFFCURVE",
"387 59 OFFCURVE",
"406 138 CURVE",
"398 213 LINE",
"394 222 LINE",
"394 282 LINE",
"394 116 OFFCURVE",
"307 54 OFFCURVE",
"216 54 CURVE SMOOTH",
"149 54 OFFCURVE",
"112 94 OFFCURVE",
"112 145 CURVE SMOOTH",
"112 197 OFFCURVE",
"138 231 OFFCURVE",
"219 263 CURVE SMOOTH"
);
},
{
closed = 1;
nodes = (
"394 203 LINE",
"394 194 LINE",
"394 122 LINE SMOOTH",
"394 36 OFFCURVE",
"439 -10 OFFCURVE",
"508 -10 CURVE SMOOTH",
"576 -10 OFFCURVE",
"614 37 OFFCURVE",
"614 116 CURVE SMOOTH",
"614 260 LINE",
"556 260 LINE",
"556 110 LINE SMOOTH",
"556 78 OFFCURVE",
"540 56 OFFCURVE",
"511 56 CURVE SMOOTH",
"482 56 OFFCURVE",
"466 77 OFFCURVE",
"466 110 CURVE SMOOTH",
"466 392 LINE",
"394 400 LINE"
);
}
);
width = 654;
},
{
associatedMasterId = "DBCC401B-C3AE-4436-9575-31462D2FF699";
layerId = "90F418DB-6A5A-437F-9183-366F0B6E6F6D";
name = v2;
paths = (
{
closed = 1;
nodes = (
"115 370 LINE",
"122 464 OFFCURVE",
"176 510 OFFCURVE",
"264 510 CURVE SMOOTH",
"350 510 OFFCURVE",
"394 464 OFFCURVE",
"394 400 CURVE",
"466 392 LINE",
"466 508 OFFCURVE",
"382 570 OFFCURVE",
"266 570 CURVE SMOOTH",
"150 570 OFFCURVE",
"49 508 OFFCURVE",
"45 370 CURVE"
);
},
{
closed = 1;
nodes = (
"394 308 LINE",
"394 366 LINE",
"217 318 LINE SMOOTH",
"113 290 OFFCURVE",
"40 243 OFFCURVE",
"40 147 CURVE SMOOTH",
"40 50 OFFCURVE",
"116 -10 OFFCURVE",
"222 -10 CURVE SMOOTH",
"330 -10 OFFCURVE",
"387 53 OFFCURVE",
"404 138 CURVE",
"398 213 LINE",
"394 222 LINE",
"394 282 LINE",
"394 116 OFFCURVE",
"315 54 OFFCURVE",
"224 54 CURVE SMOOTH",
"157 54 OFFCURVE",
"116 93 OFFCURVE",
"116 148 CURVE SMOOTH",
"116 204 OFFCURVE",
"153 242 OFFCURVE",
"237 265 CURVE SMOOTH"
);
},
{
closed = 1;
nodes = (
"394 203 LINE",
"394 194 LINE",
"394 122 LINE SMOOTH",
"394 36 OFFCURVE",
"439 -10 OFFCURVE",
"508 -10 CURVE SMOOTH",
"576 -10 OFFCURVE",
"614 37 OFFCURVE",
"614 116 CURVE SMOOTH",
"614 260 LINE",
"556 260 LINE",
"556 110 LINE SMOOTH",
"556 78 OFFCURVE",
"540 56 OFFCURVE",
"511 56 CURVE SMOOTH",
"482 56 OFFCURVE",
"466 77 OFFCURVE",
"466 110 CURVE SMOOTH",
"466 392 LINE",
"394 400 LINE"
);
}
);
width = 654;
},
{
anchors = (
{
name = bottom;
position = "{316, 0}";
},
{
name = ogonek;
position = "{569, 10}";
},
{
name = top;
position = "{316, 560}";
}
);
associatedMasterId = "DBCC401B-C3AE-4436-9575-31462D2FF699";
layerId = "CAF53192-3F70-4543-AF79-1A544674554D";
name = v3;
paths = (
{
closed = 1;
nodes = (
"37 359 OFFCURVE",
"66 326 OFFCURVE",
"104 326 CURVE SMOOTH",
"137 326 OFFCURVE",
"155 345 OFFCURVE",
"155 372 CURVE SMOOTH",
"155 413 OFFCURVE",
"115 411 OFFCURVE",
"115 441 CURVE SMOOTH",
"115 481 OFFCURVE",
"163 516 OFFCURVE",
"248 516 CURVE SMOOTH",
"322 516 OFFCURVE",
"378 482 OFFCURVE",
"378 422 CURVE",
"450 405 LINE",
"450 519 OFFCURVE",
"368 570 OFFCURVE",
"252 570 CURVE SMOOTH",
"137 570 OFFCURVE",
"37 512 OFFCURVE",
"37 409 CURVE SMOOTH"
);
},
{
closed = 1;
nodes = (
"276 274 LINE SMOOTH",
"335 292 OFFCURVE",
"367 310 OFFCURVE",
"378 339 CURVE",
"378 422 LINE",
"378 361 OFFCURVE",
"329 346 OFFCURVE",
"262 326 CURVE SMOOTH",
"186 303 LINE SMOOTH",
"86 273 OFFCURVE",
"24 232 OFFCURVE",
"24 134 CURVE SMOOTH",
"24 44 OFFCURVE",
"104 -10 OFFCURVE",
"198 -10 CURVE SMOOTH",
"293 -10 OFFCURVE",
"362 44 OFFCURVE",
"378 128 CURVE",
"378 311 LINE",
"378 111 OFFCURVE",
"279 54 OFFCURVE",
"203 54 CURVE SMOOTH",
"138 54 OFFCURVE",
"100 93 OFFCURVE",
"100 138 CURVE SMOOTH",
"100 203 OFFCURVE",
"146 234 OFFCURVE",
"218 256 CURVE SMOOTH"
);
},
{
closed = 1;
nodes = (
"378 122 LINE",
"378 36 OFFCURVE",
"423 -10 OFFCURVE",
"492 -10 CURVE SMOOTH",
"560 -10 OFFCURVE",
"598 37 OFFCURVE",
"598 116 CURVE SMOOTH",
"598 260 LINE",
"540 260 LINE",
"540 110 LINE SMOOTH",
"540 78 OFFCURVE",
"524 56 OFFCURVE",
"495 56 CURVE SMOOTH",
"466 56 OFFCURVE",
"450 77 OFFCURVE",
"450 110 CURVE SMOOTH",
"450 405 LINE",
"378 422 LINE"
);
}
);
width = 632;
},
{
anchors = (
{
name = bottom;
position = "{316, 0}";
},
{
name = ogonek;
position = "{569, 10}";
},
{
name = top;
position = "{316, 560}";
}
);
associatedMasterId = "DBCC401B-C3AE-4436-9575-31462D2FF699";
layerId = "9C68E722-53DC-4F49-B717-7E9ACF64FB97";
name = v4;
paths = (
{
closed = 1;
nodes = (
"106 369 LINE",
"110 482 OFFCURVE",
"180 516 OFFCURVE",
"252 516 CURVE SMOOTH",
"324 516 OFFCURVE",
"378 486 OFFCURVE",
"378 422 CURVE",
"450 405 LINE",
"450 519 OFFCURVE",
"368 570 OFFCURVE",
"252 570 CURVE SMOOTH",
"142 570 OFFCURVE",
"38 511 OFFCURVE",
"34 369 CURVE"
);
},
{
closed = 1;
nodes = (
"276 274 LINE SMOOTH",
"335 292 OFFCURVE",
"367 310 OFFCURVE",
"378 339 CURVE",
"378 422 LINE",
"378 361 OFFCURVE",
"329 346 OFFCURVE",
"262 326 CURVE SMOOTH",
"186 303 LINE SMOOTH",
"86 273 OFFCURVE",
"24 232 OFFCURVE",
"24 134 CURVE SMOOTH",
"24 44 OFFCURVE",
"104 -10 OFFCURVE",
"198 -10 CURVE SMOOTH",
"293 -10 OFFCURVE",
"362 44 OFFCURVE",
"378 128 CURVE",
"378 311 LINE",
"378 111 OFFCURVE",
"279 54 OFFCURVE",
"203 54 CURVE SMOOTH",
"138 54 OFFCURVE",
"100 93 OFFCURVE",
"100 138 CURVE SMOOTH",
"100 203 OFFCURVE",
"146 234 OFFCURVE",
"218 256 CURVE SMOOTH"
);
},
{
closed = 1;
nodes = (
"378 122 LINE",
"378 36 OFFCURVE",
"423 -10 OFFCURVE",
"492 -10 CURVE SMOOTH",
"560 -10 OFFCURVE",
"598 37 OFFCURVE",
"598 116 CURVE SMOOTH",
"598 260 LINE",
"540 260 LINE",
"540 110 LINE SMOOTH",
"540 78 OFFCURVE",
"524 56 OFFCURVE",
"495 56 CURVE SMOOTH",
"466 56 OFFCURVE",
"450 77 OFFCURVE",
"450 110 CURVE SMOOTH",
"450 405 LINE",
"378 422 LINE"
);
}
);
width = 632;
},
{
anchors = (
{
name = bottom;
position = "{351, 0}";
},
{
name = ogonek;
position = "{604, 10}";
},
{
name = top;
position = "{351, 560}";
}
);
layerId = "46ED8887-C39F-4CE4-BD5B-7A231A6BF840";
paths = (
{
closed = 1;
nodes = (
"80 365 OFFCURVE",
"109 332 OFFCURVE",
"143 332 CURVE SMOOTH",
"172 332 OFFCURVE",
"188 350 OFFCURVE",
"188 371 CURVE SMOOTH",
"188 389 OFFCURVE",
"179 399 OFFCURVE",
"170 407 CURVE SMOOTH",
"159 416 OFFCURVE",
"152 425 OFFCURVE",
"152 440 CURVE SMOOTH",
"152 481 OFFCURVE",
"204 520 OFFCURVE",
"286 520 CURVE SMOOTH",
"361 520 OFFCURVE",
"421 485 OFFCURVE",
"421 424 CURVE",
"478 409 LINE",
"478 521 OFFCURVE",
"395 570 OFFCURVE",
"290 570 CURVE SMOOTH",
"173 570 OFFCURVE",
"80 498 OFFCURVE",
"80 410 CURVE SMOOTH"
);
},
{
closed = 1;
nodes = (
"308 274 LINE SMOOTH",
"368 293 OFFCURVE",
"404 309 OFFCURVE",
"421 341 CURVE",
"421 424 LINE",
"421 361 OFFCURVE",
"368 344 OFFCURVE",
"297 322 CURVE SMOOTH",
"229 301 LINE SMOOTH",
"135 272 OFFCURVE",
"68 225 OFFCURVE",
"68 135 CURVE SMOOTH",
"68 45 OFFCURVE",
"139 -10 OFFCURVE",
"235 -10 CURVE SMOOTH",
"348 -10 OFFCURVE",
"433 68 OFFCURVE",
"433 191 CURVE",
"421 311 LINE",
"421 105 OFFCURVE",
"321 42 OFFCURVE",
"240 42 CURVE SMOOTH",
"174 42 OFFCURVE",
"126 76 OFFCURVE",
"126 137 CURVE SMOOTH",
"126 197 OFFCURVE",
"176 232 OFFCURVE",
"254 257 CURVE SMOOTH"
);
},
{
closed = 1;
nodes = (
"421 194 LINE",
"424 194 LINE",
"422 116 LINE SMOOTH",
"420 39 OFFCURVE",
"462 -6 OFFCURVE",
"533 -6 CURVE SMOOTH",
"600 -6 OFFCURVE",
"642 40 OFFCURVE",
"642 116 CURVE SMOOTH",
"642 310 LINE",
"588 310 LINE",
"588 110 LINE SMOOTH",
"588 73 OFFCURVE",
"570 46 OFFCURVE",
"536 46 CURVE SMOOTH",
"498 46 OFFCURVE",
"478 72 OFFCURVE",
"478 112 CURVE SMOOTH",
"478 409 LINE",
"421 424 LINE"
);
}
);
width = 696;
},
{
associatedMasterId = "46ED8887-C39F-4CE4-BD5B-7A231A6BF840";
layerId = "EE4B1698-DC51-490B-BF78-D73FF6829776";
name = v1;
paths = (
{
closed = 1;
nodes = (
"115 370 LINE",
"122 464 OFFCURVE",
"176 510 OFFCURVE",
"264 510 CURVE SMOOTH",
"350 510 OFFCURVE",
"394 464 OFFCURVE",
"394 400 CURVE",
"466 392 LINE",
"466 508 OFFCURVE",
"382 570 OFFCURVE",
"266 570 CURVE SMOOTH",
"150 570 OFFCURVE",
"49 508 OFFCURVE",
"45 370 CURVE"
);
},
{
closed = 1;
nodes = (
"394 334 LINE",
"394 397 LINE",
"199 320 LINE SMOOTH",
"99 281 OFFCURVE",
"40 232 OFFCURVE",
"40 142 CURVE SMOOTH",
"40 53 OFFCURVE",
"108 -10 OFFCURVE",
"212 -10 CURVE SMOOTH",
"326 -10 OFFCURVE",
"387 59 OFFCURVE",
"406 138 CURVE",
"398 213 LINE",
"394 222 LINE",
"394 282 LINE",
"394 116 OFFCURVE",
"307 54 OFFCURVE",
"216 54 CURVE SMOOTH",
"149 54 OFFCURVE",
"112 94 OFFCURVE",
"112 145 CURVE SMOOTH",
"112 197 OFFCURVE",
"138 231 OFFCURVE",
"219 263 CURVE SMOOTH"
);
},
{
closed = 1;
nodes = (
"394 203 LINE",
"394 194 LINE",
"394 122 LINE SMOOTH",
"394 36 OFFCURVE",
"439 -10 OFFCURVE",
"508 -10 CURVE SMOOTH",
"576 -10 OFFCURVE",
"614 37 OFFCURVE",
"614 116 CURVE SMOOTH",
"614 260 LINE",
"556 260 LINE",
"556 110 LINE SMOOTH",
"556 78 OFFCURVE",
"540 56 OFFCURVE",
"511 56 CURVE SMOOTH",
"482 56 OFFCURVE",
"466 77 OFFCURVE",
"466 110 CURVE SMOOTH",
"466 392 LINE",
"394 400 LINE"
);
}
);
width = 654;
},
{
associatedMasterId = "46ED8887-C39F-4CE4-BD5B-7A231A6BF840";
layerId = "FE7C6FFE-1C0B-46E8-B7A8-B1BB5BD28F43";
name = v2;
paths = (
{
closed = 1;
nodes = (
"115 370 LINE",
"122 464 OFFCURVE",
"176 510 OFFCURVE",
"264 510 CURVE SMOOTH",
"350 510 OFFCURVE",
"394 464 OFFCURVE",
"394 400 CURVE",
"466 392 LINE",
"466 508 OFFCURVE",
"382 570 OFFCURVE",
"266 570 CURVE SMOOTH",
"150 570 OFFCURVE",
"49 508 OFFCURVE",
"45 370 CURVE"
);
},
{
closed = 1;
nodes = (
"394 308 LINE",
"394 366 LINE",
"217 318 LINE SMOOTH",
"113 290 OFFCURVE",
"40 243 OFFCURVE",
"40 147 CURVE SMOOTH",
"40 50 OFFCURVE",
"116 -10 OFFCURVE",
"222 -10 CURVE SMOOTH",
"330 -10 OFFCURVE",
"387 53 OFFCURVE",
"404 138 CURVE",
"398 213 LINE",
"394 222 LINE",
"394 282 LINE",
"394 116 OFFCURVE",
"315 54 OFFCURVE",
"224 54 CURVE SMOOTH",
"157 54 OFFCURVE",
"116 93 OFFCURVE",
"116 148 CURVE SMOOTH",
"116 204 OFFCURVE",
"153 242 OFFCURVE",
"237 265 CURVE SMOOTH"
);
},
{
closed = 1;
nodes = (
"394 203 LINE",
"394 194 LINE",
"394 122 LINE SMOOTH",
"394 36 OFFCURVE",
"439 -10 OFFCURVE",
"508 -10 CURVE SMOOTH",
"576 -10 OFFCURVE",
"614 37 OFFCURVE",
"614 116 CURVE SMOOTH",
"614 260 LINE",
"556 260 LINE",
"556 110 LINE SMOOTH",
"556 78 OFFCURVE",
"540 56 OFFCURVE",
"511 56 CURVE SMOOTH",
"482 56 OFFCURVE",
"466 77 OFFCURVE",
"466 110 CURVE SMOOTH",
"466 392 LINE",
"394 400 LINE"
);
}
);
width = 654;
},
{
anchors = (
{
name = bottom;
position = "{316, 0}";
},
{
name = ogonek;
position = "{569, 10}";
},
{
name = top;
position = "{316, 560}";
}
);
associatedMasterId = "46ED8887-C39F-4CE4-BD5B-7A231A6BF840";
layerId = "033AAC60-05DA-4275-829D-BA14DB529CCE";
name = v3;
paths = (
{
closed = 1;
nodes = (
"37 359 OFFCURVE",
"66 326 OFFCURVE",
"104 326 CURVE SMOOTH",
"137 326 OFFCURVE",
"155 345 OFFCURVE",
"155 372 CURVE SMOOTH",
"155 413 OFFCURVE",
"115 411 OFFCURVE",
"115 441 CURVE SMOOTH",
"115 481 OFFCURVE",
"163 516 OFFCURVE",
"248 516 CURVE SMOOTH",
"322 516 OFFCURVE",
"378 482 OFFCURVE",
"378 422 CURVE",
"450 405 LINE",
"450 519 OFFCURVE",
"368 570 OFFCURVE",
"252 570 CURVE SMOOTH",
"137 570 OFFCURVE",
"37 512 OFFCURVE",
"37 409 CURVE SMOOTH"
);
},
{
closed = 1;
nodes = (
"276 274 LINE SMOOTH",
"335 292 OFFCURVE",
"367 310 OFFCURVE",
"378 339 CURVE",
"378 422 LINE",
"378 361 OFFCURVE",
"329 346 OFFCURVE",
"262 326 CURVE SMOOTH",
"186 303 LINE SMOOTH",
"86 273 OFFCURVE",
"24 232 OFFCURVE",
"24 134 CURVE SMOOTH",
"24 44 OFFCURVE",
"104 -10 OFFCURVE",
"198 -10 CURVE SMOOTH",
"293 -10 OFFCURVE",
"362 44 OFFCURVE",
"378 128 CURVE",
"378 311 LINE",
"378 111 OFFCURVE",
"279 54 OFFCURVE",
"203 54 CURVE SMOOTH",
"138 54 OFFCURVE",
"100 93 OFFCURVE",
"100 138 CURVE SMOOTH",
"100 203 OFFCURVE",
"146 234 OFFCURVE",
"218 256 CURVE SMOOTH"
);
},
{
closed = 1;
nodes = (
"378 122 LINE",
"378 36 OFFCURVE",
"423 -10 OFFCURVE",
"492 -10 CURVE SMOOTH",
"560 -10 OFFCURVE",
"598 37 OFFCURVE",
"598 116 CURVE SMOOTH",
"598 260 LINE",
"540 260 LINE",
"540 110 LINE SMOOTH",
"540 78 OFFCURVE",
"524 56 OFFCURVE",
"495 56 CURVE SMOOTH",
"466 56 OFFCURVE",
"450 77 OFFCURVE",
"450 110 CURVE SMOOTH",
"450 405 LINE",
"378 422 LINE"
);
}
);
width = 632;
},
{
anchors = (
{
name = bottom;
position = "{316, 0}";
},
{
name = ogonek;
position = "{569, 10}";
},
{
name = top;
position = "{316, 560}";
}
);
associatedMasterId = "46ED8887-C39F-4CE4-BD5B-7A231A6BF840";
layerId = "CD8EE002-5490-4777-A2C6-C6DB91A260F4";
name = v4;
paths = (
{
closed = 1;
nodes = (
"106 369 LINE",
"110 482 OFFCURVE",
"180 516 OFFCURVE",
"252 516 CURVE SMOOTH",
"324 516 OFFCURVE",
"378 486 OFFCURVE",
"378 422 CURVE",
"450 405 LINE",
"450 519 OFFCURVE",
"368 570 OFFCURVE",
"252 570 CURVE SMOOTH",
"142 570 OFFCURVE",
"38 511 OFFCURVE",
"34 369 CURVE"
);
},
{
closed = 1;
nodes = (
"276 274 LINE SMOOTH",
"335 292 OFFCURVE",
"367 310 OFFCURVE",
"378 339 CURVE",
"378 422 LINE",
"378 361 OFFCURVE",
"329 346 OFFCURVE",
"262 326 CURVE SMOOTH",
"186 303 LINE SMOOTH",
"86 273 OFFCURVE",
"24 232 OFFCURVE",
"24 134 CURVE SMOOTH",
"24 44 OFFCURVE",
"104 -10 OFFCURVE",
"198 -10 CURVE SMOOTH",
"293 -10 OFFCURVE",
"362 44 OFFCURVE",
"378 128 CURVE",
"378 311 LINE",
"378 111 OFFCURVE",
"279 54 OFFCURVE",
"203 54 CURVE SMOOTH",
"138 54 OFFCURVE",
"100 93 OFFCURVE",
"100 138 CURVE SMOOTH",
"100 203 OFFCURVE",
"146 234 OFFCURVE",
"218 256 CURVE SMOOTH"
);
},
{
closed = 1;
nodes = (
"378 122 LINE",
"378 36 OFFCURVE",
"423 -10 OFFCURVE",
"492 -10 CURVE SMOOTH",
"560 -10 OFFCURVE",
"598 37 OFFCURVE",
"598 116 CURVE SMOOTH",
"598 260 LINE",
"540 260 LINE",
"540 110 LINE SMOOTH",
"540 78 OFFCURVE",
"524 56 OFFCURVE",
"495 56 CURVE SMOOTH",
"466 56 OFFCURVE",
"450 77 OFFCURVE",
"450 110 CURVE SMOOTH",
"450 405 LINE",
"378 422 LINE"
);
}
);
width = 632;
}
);
leftKerningGroup = a;
rightKerningGroup = a;
unicode = 0061;
},
{
glyphname = b;
lastChange = "2020-06-09 15:08:19 +0000";
layers = (
{
layerId = "D79F8ED9-6C56-4538-8DF1-62DD23430BF9";
paths = (
{
closed = 1;
nodes = (
"212 160 LINE",
"198 294 LINE",
"218 438 LINE",
"218 760 LINE",
"160 760 LINE",
"160 0 LINE",
"212 0 LINE"
);
},
{
closed = 1;
nodes = (
"40 708 LINE",
"218 708 LINE",
"218 760 LINE",
"40 760 LINE"
);
},
{
closed = 1;
nodes = (
"278 570 OFFCURVE",
"182 478 OFFCURVE",
"182 280 CURVE SMOOTH",
"182 82 OFFCURVE",
"278 -10 OFFCURVE",
"418 -10 CURVE SMOOTH",
"574 -10 OFFCURVE",
"674 102 OFFCURVE",
"674 280 CURVE SMOOTH",
"674 458 OFFCURVE",
"574 570 OFFCURVE",
"418 570 CURVE SMOOTH"
);
},
{
closed = 1;
nodes = (
"536 518 OFFCURVE",
"616 425 OFFCURVE",
"616 280 CURVE SMOOTH",
"616 135 OFFCURVE",
"536 42 OFFCURVE",
"416 42 CURVE SMOOTH",
"296 42 OFFCURVE",
"216 135 OFFCURVE",
"216 280 CURVE SMOOTH",
"216 425 OFFCURVE",
"296 518 OFFCURVE",
"416 518 CURVE SMOOTH"
);
}
);
width = 740;
},
{
layerId = "EA87A73E-C0FE-4015-8704-0B2406CC7903";
paths = (
{
closed = 1;
nodes = (
"260 160 LINE",
"248 294 LINE",
"268 438 LINE",
"268 760 LINE",
"140 760 LINE",
"140 0 LINE",
"260 0 LINE"
);
},
{
closed = 1;
nodes = (
"35 706 LINE",
"268 706 LINE",
"268 760 LINE",
"35 760 LINE"
);
},
{
closed = 1;
nodes = (
"306 570 OFFCURVE",
"214 476 OFFCURVE",
"214 280 CURVE SMOOTH",
"214 85 OFFCURVE",
"305 -10 OFFCURVE",
"443 -10 CURVE SMOOTH",
"594 -10 OFFCURVE",
"700 104 OFFCURVE",
"700 280 CURVE SMOOTH",
"700 460 OFFCURVE",
"590 570 OFFCURVE",
"442 570 CURVE SMOOTH"
);
},
{
closed = 1;
nodes = (
"503 506 OFFCURVE",
"564 418 OFFCURVE",
"564 278 CURVE SMOOTH",
"564 141 OFFCURVE",
"505 54 OFFCURVE",
"415 54 CURVE SMOOTH",
"325 54 OFFCURVE",
"264 142 OFFCURVE",
"264 282 CURVE SMOOTH",
"264 419 OFFCURVE",
"323 506 OFFCURVE",
"413 506 CURVE SMOOTH"
);
}
);
width = 756;
},
{
layerId = "DBCC401B-C3AE-4436-9575-31462D2FF699";
paths = (
{
closed = 1;
nodes = (
"260 160 LINE",
"248 294 LINE",
"268 438 LINE",
"268 760 LINE",
"140 760 LINE",
"140 0 LINE",
"260 0 LINE"
);
},
{
closed = 1;
nodes = (
"35 706 LINE",
"268 706 LINE",
"268 760 LINE",
"35 760 LINE"
);
},
{
closed = 1;
nodes = (
"306 570 OFFCURVE",
"214 476 OFFCURVE",
"214 280 CURVE SMOOTH",
"214 85 OFFCURVE",
"305 -10 OFFCURVE",
"443 -10 CURVE SMOOTH",
"594 -10 OFFCURVE",
"700 104 OFFCURVE",
"700 280 CURVE SMOOTH",
"700 460 OFFCURVE",
"590 570 OFFCURVE",
"442 570 CURVE SMOOTH"
);
},
{
closed = 1;
nodes = (
"503 506 OFFCURVE",
"564 418 OFFCURVE",
"564 278 CURVE SMOOTH",
"564 141 OFFCURVE",
"505 54 OFFCURVE",
"415 54 CURVE SMOOTH",
"325 54 OFFCURVE",
"264 142 OFFCURVE",
"264 282 CURVE SMOOTH",
"264 419 OFFCURVE",
"323 506 OFFCURVE",
"413 506 CURVE SMOOTH"
);
}
);
width = 756;
},
{
layerId = "46ED8887-C39F-4CE4-BD5B-7A231A6BF840";
paths = (
{
closed = 1;
nodes = (
"212 160 LINE",
"198 294 LINE",
"218 438 LINE",
"218 760 LINE",
"160 760 LINE",
"160 0 LINE",
"212 0 LINE"
);
},
{
closed = 1;
nodes = (
"40 708 LINE",
"218 708 LINE",
"218 760 LINE",
"40 760 LINE"
);
},
{
closed = 1;
nodes = (
"278 570 OFFCURVE",
"182 478 OFFCURVE",
"182 280 CURVE SMOOTH",
"182 82 OFFCURVE",
"278 -10 OFFCURVE",
"418 -10 CURVE SMOOTH",
"574 -10 OFFCURVE",
"674 102 OFFCURVE",
"674 280 CURVE SMOOTH",
"674 458 OFFCURVE",
"574 570 OFFCURVE",
"418 570 CURVE SMOOTH"
);
},
{
closed = 1;
nodes = (
"536 518 OFFCURVE",
"616 425 OFFCURVE",
"616 280 CURVE SMOOTH",
"616 135 OFFCURVE",
"536 42 OFFCURVE",
"416 42 CURVE SMOOTH",
"296 42 OFFCURVE",
"216 135 OFFCURVE",
"216 280 CURVE SMOOTH",
"216 425 OFFCURVE",
"296 518 OFFCURVE",
"416 518 CURVE SMOOTH"
);
}
);
width = 740;
}
);
leftKerningGroup = l;
leftMetricsKey = l;
rightKerningGroup = o;
rightMetricsKey = o;
unicode = 0062;
},
{
glyphname = c;
lastChange = "2020-02-18 14:25:32 +0000";
layers = (
{
layerId = "D79F8ED9-6C56-4538-8DF1-62DD23430BF9";
paths = (
{
closed = 1;
nodes = (
"66 98 OFFCURVE",
"182 -10 OFFCURVE",
"329 -10 CURVE SMOOTH",
"462 -10 OFFCURVE",
"533 71 OFFCURVE",
"556 178 CURVE",
"506 189 LINE",
"486 106 OFFCURVE",
"437 42 OFFCURVE",
"329 42 CURVE SMOOTH",
"213 42 OFFCURVE",
"124 139 OFFCURVE",
"124 280 CURVE SMOOTH",
"124 427 OFFCURVE",
"213 518 OFFCURVE",
"339 518 CURVE SMOOTH",
"436 518 OFFCURVE",
"476 472 OFFCURVE",
"474 416 CURVE SMOOTH",
"473 383 OFFCURVE",
"488 361 OFFCURVE",
"515 361 CURVE SMOOTH",
"542 361 OFFCURVE",
"557 381 OFFCURVE",
"557 407 CURVE SMOOTH",
"557 490 OFFCURVE",
"474 570 OFFCURVE",
"340 570 CURVE SMOOTH",
"182 570 OFFCURVE",
"66 462 OFFCURVE",
"66 280 CURVE SMOOTH"
);
}
);
width = 630;
},
{
associatedMasterId = "D79F8ED9-6C56-4538-8DF1-62DD23430BF9";
layerId = "AB85B1E6-F748-4D3E-BF0C-182BD4EAA83F";
name = v1;
paths = (
{
closed = 1;
nodes = (
"36 104 OFFCURVE",
"146 -10 OFFCURVE",
"297 -10 CURVE SMOOTH",
"434 -10 OFFCURVE",
"518 78 OFFCURVE",
"532 208 CURVE",
"479 214 LINE",
"465 117 OFFCURVE",
"409 56 OFFCURVE",
"305 56 CURVE SMOOTH",
"185 56 OFFCURVE",
"106 153 OFFCURVE",
"106 290 CURVE SMOOTH",
"106 416 OFFCURVE",
"190 516 OFFCURVE",
"309 516 CURVE SMOOTH",
"395 516 OFFCURVE",
"432 470 OFFCURVE",
"430 398 CURVE SMOOTH",
"429 361 OFFCURVE",
"444 337 OFFCURVE",
"474 337 CURVE SMOOTH",
"503 337 OFFCURVE",
"521 361 OFFCURVE",
"521 391 CURVE SMOOTH",
"521 499 OFFCURVE",
"438 570 OFFCURVE",
"312 570 CURVE SMOOTH",
"152 570 OFFCURVE",
"36 448 OFFCURVE",
"36 276 CURVE SMOOTH"
);
}
);
width = 560;
},
{
associatedMasterId = "D79F8ED9-6C56-4538-8DF1-62DD23430BF9";
layerId = "4DE9B24F-8AC4-4F29-9972-25CB8ABFAD45";
name = v2;
paths = (
{
closed = 1;
nodes = (
"36 104 OFFCURVE",
"146 -10 OFFCURVE",
"297 -10 CURVE SMOOTH",
"434 -10 OFFCURVE",
"518 78 OFFCURVE",
"532 208 CURVE",
"479 214 LINE",
"465 119 OFFCURVE",
"409 56 OFFCURVE",
"305 56 CURVE SMOOTH",
"185 56 OFFCURVE",
"110 153 OFFCURVE",
"110 290 CURVE SMOOTH",
"110 416 OFFCURVE",
"190 516 OFFCURVE",
"309 516 CURVE SMOOTH",
"395 516 OFFCURVE",
"436 473 OFFCURVE",
"436 425 CURVE SMOOTH",
"436 408 OFFCURVE",
"432 395 OFFCURVE",
"425 383 CURVE SMOOTH",
"417 369 OFFCURVE",
"409 354 OFFCURVE",
"409 337 CURVE SMOOTH",
"409 312 OFFCURVE",
"427 296 OFFCURVE",
"452 296 CURVE SMOOTH",
"492 296 OFFCURVE",
"519 332 OFFCURVE",
"519 389 CURVE SMOOTH",
"519 496 OFFCURVE",
"438 570 OFFCURVE",
"312 570 CURVE SMOOTH",
"152 570 OFFCURVE",
"36 448 OFFCURVE",
"36 276 CURVE SMOOTH"
);
}
);
width = 560;
},
{
layerId = "EA87A73E-C0FE-4015-8704-0B2406CC7903";
paths = (
{
closed = 1;
nodes = (
"56 104 OFFCURVE",
"177 -10 OFFCURVE",
"327 -10 CURVE SMOOTH",
"467 -10 OFFCURVE",
"539 73 OFFCURVE",
"561 176 CURVE",
"509 190 LINE",
"490 130 OFFCURVE",
"443 84 OFFCURVE",
"357 84 CURVE SMOOTH",
"255 84 OFFCURVE",
"178 171 OFFCURVE",
"178 302 CURVE SMOOTH",
"178 427 OFFCURVE",
"239 516 OFFCURVE",
"343 516 CURVE SMOOTH",
"414 516 OFFCURVE",
"442 479 OFFCURVE",
"440 417 CURVE SMOOTH",
"439 375 OFFCURVE",
"461 347 OFFCURVE",
"503 347 CURVE SMOOTH",
"537 347 OFFCURVE",
"561 372 OFFCURVE",
"561 411 CURVE SMOOTH",
"561 501 OFFCURVE",
"474 570 OFFCURVE",
"342 570 CURVE SMOOTH",
"177 570 OFFCURVE",
"56 456 OFFCURVE",
"56 276 CURVE SMOOTH"
);
}
);
width = 624;
},
{
associatedMasterId = "EA87A73E-C0FE-4015-8704-0B2406CC7903";
layerId = "3CB3F496-A4BD-416C-9408-7567B1349479";
name = v1;
paths = (
{
closed = 1;
nodes = (
"36 104 OFFCURVE",
"146 -10 OFFCURVE",
"297 -10 CURVE SMOOTH",
"434 -10 OFFCURVE",
"518 78 OFFCURVE",
"532 208 CURVE",
"479 214 LINE",
"465 117 OFFCURVE",
"409 56 OFFCURVE",
"305 56 CURVE SMOOTH",
"185 56 OFFCURVE",
"106 153 OFFCURVE",
"106 290 CURVE SMOOTH",
"106 416 OFFCURVE",
"190 516 OFFCURVE",
"309 516 CURVE SMOOTH",
"395 516 OFFCURVE",
"432 470 OFFCURVE",
"430 398 CURVE SMOOTH",
"429 361 OFFCURVE",
"444 337 OFFCURVE",
"474 337 CURVE SMOOTH",
"503 337 OFFCURVE",
"521 361 OFFCURVE",
"521 391 CURVE SMOOTH",
"521 499 OFFCURVE",
"438 570 OFFCURVE",
"312 570 CURVE SMOOTH",
"152 570 OFFCURVE",
"36 448 OFFCURVE",
"36 276 CURVE SMOOTH"
);
}
);
width = 560;
},
{
associatedMasterId = "EA87A73E-C0FE-4015-8704-0B2406CC7903";
layerId = "DA8E679A-D641-4DF8-BA12-2FD359B57D0B";
name = v2;
paths = (
{
closed = 1;
nodes = (
"36 104 OFFCURVE",
"146 -10 OFFCURVE",
"297 -10 CURVE SMOOTH",
"434 -10 OFFCURVE",
"518 78 OFFCURVE",
"532 208 CURVE",
"479 214 LINE",
"465 119 OFFCURVE",
"409 56 OFFCURVE",
"305 56 CURVE SMOOTH",
"185 56 OFFCURVE",
"110 153 OFFCURVE",
"110 290 CURVE SMOOTH",
"110 416 OFFCURVE",
"190 516 OFFCURVE",
"309 516 CURVE SMOOTH",
"395 516 OFFCURVE",
"436 473 OFFCURVE",
"436 425 CURVE SMOOTH",
"436 408 OFFCURVE",
"432 395 OFFCURVE",
"425 383 CURVE SMOOTH",
"417 369 OFFCURVE",
"409 354 OFFCURVE",
"409 337 CURVE SMOOTH",
"409 312 OFFCURVE",
"427 296 OFFCURVE",
"452 296 CURVE SMOOTH",
"492 296 OFFCURVE",
"519 332 OFFCURVE",
"519 389 CURVE SMOOTH",
"519 496 OFFCURVE",
"438 570 OFFCURVE",
"312 570 CURVE SMOOTH",
"152 570 OFFCURVE",
"36 448 OFFCURVE",
"36 276 CURVE SMOOTH"
);
}
);
width = 560;
},
{
layerId = "DBCC401B-C3AE-4436-9575-31462D2FF699";
paths = (
{
closed = 1;
nodes = (
"56 104 OFFCURVE",
"177 -10 OFFCURVE",
"327 -10 CURVE SMOOTH",
"479 -10 OFFCURVE",
"550 88 OFFCURVE",
"566 202 CURVE",
"513 212 LINE",
"499 142 OFFCURVE",
"452 84 OFFCURVE",
"357 84 CURVE SMOOTH",
"255 84 OFFCURVE",
"178 171 OFFCURVE",
"178 302 CURVE SMOOTH",
"178 427 OFFCURVE",
"239 516 OFFCURVE",
"343 516 CURVE SMOOTH",
"414 516 OFFCURVE",
"442 472 OFFCURVE",
"440 400 CURVE SMOOTH",
"439 356 OFFCURVE",
"459 327 OFFCURVE",
"499 327 CURVE SMOOTH",
"537 327 OFFCURVE",
"561 358 OFFCURVE",
"561 397 CURVE SMOOTH",
"561 497 OFFCURVE",
"474 570 OFFCURVE",
"342 570 CURVE SMOOTH",
"177 570 OFFCURVE",
"56 456 OFFCURVE",
"56 276 CURVE SMOOTH"
);
}
);
width = 624;
},
{
associatedMasterId = "DBCC401B-C3AE-4436-9575-31462D2FF699";
layerId = "5772D609-0475-4173-A355-723CA340F382";
name = v1;
paths = (
{
closed = 1;
nodes = (
"36 104 OFFCURVE",
"146 -10 OFFCURVE",
"297 -10 CURVE SMOOTH",
"434 -10 OFFCURVE",
"518 78 OFFCURVE",
"532 208 CURVE",
"479 214 LINE",
"465 117 OFFCURVE",
"409 56 OFFCURVE",
"305 56 CURVE SMOOTH",
"185 56 OFFCURVE",
"106 153 OFFCURVE",
"106 290 CURVE SMOOTH",
"106 416 OFFCURVE",
"190 516 OFFCURVE",
"309 516 CURVE SMOOTH",
"395 516 OFFCURVE",
"432 470 OFFCURVE",
"430 398 CURVE SMOOTH",
"429 361 OFFCURVE",
"444 337 OFFCURVE",
"474 337 CURVE SMOOTH",
"503 337 OFFCURVE",
"521 361 OFFCURVE",
"521 391 CURVE SMOOTH",
"521 499 OFFCURVE",
"438 570 OFFCURVE",
"312 570 CURVE SMOOTH",
"152 570 OFFCURVE",
"36 448 OFFCURVE",
"36 276 CURVE SMOOTH"
);
}
);
width = 560;
},
{
associatedMasterId = "DBCC401B-C3AE-4436-9575-31462D2FF699";
layerId = "46D20D71-A530-4A05-A66F-2D628C8A61BF";
name = v2;
paths = (
{
closed = 1;
nodes = (
"36 104 OFFCURVE",
"146 -10 OFFCURVE",
"297 -10 CURVE SMOOTH",
"434 -10 OFFCURVE",
"518 78 OFFCURVE",
"532 208 CURVE",
"479 214 LINE",
"465 119 OFFCURVE",
"409 56 OFFCURVE",
"305 56 CURVE SMOOTH",
"185 56 OFFCURVE",
"110 153 OFFCURVE",
"110 290 CURVE SMOOTH",
"110 416 OFFCURVE",
"190 516 OFFCURVE",
"309 516 CURVE SMOOTH",
"395 516 OFFCURVE",
"436 473 OFFCURVE",
"436 425 CURVE SMOOTH",
"436 408 OFFCURVE",
"432 395 OFFCURVE",
"425 383 CURVE SMOOTH",
"417 369 OFFCURVE",
"409 354 OFFCURVE",
"409 337 CURVE SMOOTH",
"409 312 OFFCURVE",
"427 296 OFFCURVE",
"452 296 CURVE SMOOTH",
"492 296 OFFCURVE",
"519 332 OFFCURVE",
"519 389 CURVE SMOOTH",
"519 496 OFFCURVE",
"438 570 OFFCURVE",
"312 570 CURVE SMOOTH",
"152 570 OFFCURVE",
"36 448 OFFCURVE",
"36 276 CURVE SMOOTH"
);
}
);
width = 560;
},
{
layerId = "46ED8887-C39F-4CE4-BD5B-7A231A6BF840";
paths = (
{
closed = 1;
nodes = (
"66 98 OFFCURVE",
"182 -10 OFFCURVE",
"329 -10 CURVE SMOOTH",
"466 -10 OFFCURVE",
"545 79 OFFCURVE",
"564 206 CURVE",
"513 214 LINE",
"497 112 OFFCURVE",
"441 42 OFFCURVE",
"329 42 CURVE SMOOTH",
"213 42 OFFCURVE",
"124 139 OFFCURVE",
"124 280 CURVE SMOOTH",
"124 427 OFFCURVE",
"213 518 OFFCURVE",
"339 518 CURVE SMOOTH",
"436 518 OFFCURVE",
"476 464 OFFCURVE",
"474 396 CURVE SMOOTH",
"473 363 OFFCURVE",
"488 341 OFFCURVE",
"515 341 CURVE SMOOTH",
"542 341 OFFCURVE",
"557 362 OFFCURVE",
"557 389 CURVE SMOOTH",
"557 483 OFFCURVE",
"474 570 OFFCURVE",
"340 570 CURVE SMOOTH",
"182 570 OFFCURVE",
"66 462 OFFCURVE",
"66 280 CURVE SMOOTH"
);
}
);
width = 630;
},
{
associatedMasterId = "46ED8887-C39F-4CE4-BD5B-7A231A6BF840";
layerId = "B8B8DFA2-0290-432E-93D2-32928975D2E2";
name = v1;
paths = (
{
closed = 1;
nodes = (
"36 104 OFFCURVE",
"146 -10 OFFCURVE",
"297 -10 CURVE SMOOTH",
"434 -10 OFFCURVE",
"518 78 OFFCURVE",
"532 208 CURVE",
"479 214 LINE",
"465 117 OFFCURVE",
"409 56 OFFCURVE",
"305 56 CURVE SMOOTH",
"185 56 OFFCURVE",
"106 153 OFFCURVE",
"106 290 CURVE SMOOTH",
"106 416 OFFCURVE",
"190 516 OFFCURVE",
"309 516 CURVE SMOOTH",
"395 516 OFFCURVE",
"432 470 OFFCURVE",
"430 398 CURVE SMOOTH",
"429 361 OFFCURVE",
"444 337 OFFCURVE",
"474 337 CURVE SMOOTH",
"503 337 OFFCURVE",
"521 361 OFFCURVE",
"521 391 CURVE SMOOTH",
"521 499 OFFCURVE",
"438 570 OFFCURVE",
"312 570 CURVE SMOOTH",
"152 570 OFFCURVE",
"36 448 OFFCURVE",
"36 276 CURVE SMOOTH"
);
}
);
width = 560;
},
{
associatedMasterId = "46ED8887-C39F-4CE4-BD5B-7A231A6BF840";
layerId = "5B8933C3-63BF-447F-8FF1-1F23B04EE73C";
name = v2;
paths = (
{
closed = 1;
nodes = (
"36 104 OFFCURVE",
"146 -10 OFFCURVE",
"297 -10 CURVE SMOOTH",
"434 -10 OFFCURVE",
"518 78 OFFCURVE",
"532 208 CURVE",
"479 214 LINE",
"465 119 OFFCURVE",
"409 56 OFFCURVE",
"305 56 CURVE SMOOTH",
"185 56 OFFCURVE",
"110 153 OFFCURVE",
"110 290 CURVE SMOOTH",
"110 416 OFFCURVE",
"190 516 OFFCURVE",
"309 516 CURVE SMOOTH",
"395 516 OFFCURVE",
"436 473 OFFCURVE",
"436 425 CURVE SMOOTH",
"436 408 OFFCURVE",
"432 395 OFFCURVE",
"425 383 CURVE SMOOTH",
"417 369 OFFCURVE",
"409 354 OFFCURVE",
"409 337 CURVE SMOOTH",
"409 312 OFFCURVE",
"427 296 OFFCURVE",
"452 296 CURVE SMOOTH",
"492 296 OFFCURVE",
"519 332 OFFCURVE",
"519 389 CURVE SMOOTH",
"519 496 OFFCURVE",
"438 570 OFFCURVE",
"312 570 CURVE SMOOTH",
"152 570 OFFCURVE",
"36 448 OFFCURVE",
"36 276 CURVE SMOOTH"
);
}
);
width = 560;
}
);
leftKerningGroup = o;
leftMetricsKey = o;
rightKerningGroup = c;
unicode = 0063;
},
{
glyphname = d;
lastChange = "2020-02-18 12:14:45 +0000";
layers = (
{
layerId = "D79F8ED9-6C56-4538-8DF1-62DD23430BF9";
paths = (
{
closed = 1;
nodes = (
"402 708 LINE",
"580 708 LINE",
"580 760 LINE",
"402 760 LINE"
);
},
{
closed = 1;
nodes = (
"522 432 LINE",
"536 282 LINE",
"528 194 LINE",
"528 0 LINE",
"580 0 LINE",
"580 760 LINE",
"522 760 LINE"
);
},
{
closed = 1;
nodes = (
"528 0 LINE",
"685 0 LINE",
"685 52 LINE",
"528 52 LINE"
);
},
{
closed = 1;
nodes = (
"166 570 OFFCURVE",
"66 458 OFFCURVE",
"66 280 CURVE SMOOTH",
"66 102 OFFCURVE",
"166 -10 OFFCURVE",
"322 -10 CURVE SMOOTH",
"462 -10 OFFCURVE",
"558 82 OFFCURVE",
"558 280 CURVE SMOOTH",
"558 478 OFFCURVE",
"462 570 OFFCURVE",
"322 570 CURVE SMOOTH"
);
},
{
closed = 1;
nodes = (
"444 518 OFFCURVE",
"524 425 OFFCURVE",
"524 280 CURVE SMOOTH",
"524 135 OFFCURVE",
"444 42 OFFCURVE",
"324 42 CURVE SMOOTH",
"204 42 OFFCURVE",
"124 135 OFFCURVE",
"124 280 CURVE SMOOTH",
"124 425 OFFCURVE",
"204 518 OFFCURVE",
"324 518 CURVE SMOOTH"
);
}
);
width = 715;
},
{
associatedMasterId = "D79F8ED9-6C56-4538-8DF1-62DD23430BF9";
layerId = "13447B95-6B19-4BBA-9A8D-4A3DA65370C8";
name = v1;
paths = (
{
closed = 1;
nodes = (
"452 -10 OFFCURVE",
"542 82 OFFCURVE",
"542 280 CURVE SMOOTH",
"542 478 OFFCURVE",
"452 570 OFFCURVE",
"306 570 CURVE SMOOTH",
"160 570 OFFCURVE",
"50 460 OFFCURVE",
"50 280 CURVE SMOOTH",
"50 100 OFFCURVE",
"160 -10 OFFCURVE",
"306 -10 CURVE SMOOTH"
);
},
{
closed = 1;
nodes = (
"200 48 OFFCURVE",
"124 138 OFFCURVE",
"124 282 CURVE SMOOTH",
"124 422 OFFCURVE",
"200 512 OFFCURVE",
"314 512 CURVE SMOOTH",
"432 512 OFFCURVE",
"508 422 OFFCURVE",
"508 278 CURVE SMOOTH",
"508 138 OFFCURVE",
"432 48 OFFCURVE",
"318 48 CURVE SMOOTH"
);
},
{
closed = 1;
nodes = (
"376 716 LINE",
"578 716 LINE",
"578 770 LINE",
"376 770 LINE"
);
},
{
closed = 1;
nodes = (
"506 432 LINE",
"520 282 LINE",
"510 194 LINE",
"510 118 LINE SMOOTH",
"510 40 OFFCURVE",
"549 -6 OFFCURVE",
"620 -6 CURVE SMOOTH",
"686 -6 OFFCURVE",
"726 41 OFFCURVE",
"726 120 CURVE SMOOTH",
"726 240 LINE",
"668 240 LINE",
"668 114 LINE SMOOTH",
"668 82 OFFCURVE",
"652 60 OFFCURVE",
"623 60 CURVE SMOOTH",
"594 60 OFFCURVE",
"578 81 OFFCURVE",
"578 114 CURVE SMOOTH",
"578 770 LINE",
"506 770 LINE"
);
}
);
width = 766;
},
{
associatedMasterId = "D79F8ED9-6C56-4538-8DF1-62DD23430BF9";
layerId = "41DF11DE-CF33-419E-A575-52FBFA8E99F1";
name = v2;
paths = (
{
closed = 1;
nodes = (
"452 -10 OFFCURVE",
"542 82 OFFCURVE",
"542 280 CURVE SMOOTH",
"542 478 OFFCURVE",
"452 570 OFFCURVE",
"306 570 CURVE SMOOTH",
"160 570 OFFCURVE",
"50 460 OFFCURVE",
"50 280 CURVE SMOOTH",
"50 100 OFFCURVE",
"160 -10 OFFCURVE",
"306 -10 CURVE SMOOTH"
);
},
{
closed = 1;
nodes = (
"200 48 OFFCURVE",
"124 138 OFFCURVE",
"124 282 CURVE SMOOTH",
"124 422 OFFCURVE",
"200 512 OFFCURVE",
"314 512 CURVE SMOOTH",
"432 512 OFFCURVE",
"508 422 OFFCURVE",
"508 278 CURVE SMOOTH",
"508 138 OFFCURVE",
"432 48 OFFCURVE",
"318 48 CURVE SMOOTH"
);
},
{
closed = 1;
nodes = (
"376 716 LINE",
"578 716 LINE",
"578 770 LINE",
"376 770 LINE"
);
},
{
closed = 1;
nodes = (
"506 432 LINE",
"520 282 LINE",
"510 194 LINE",
"510 0 LINE",
"578 0 LINE",
"578 770 LINE",
"506 770 LINE"
);
},
{
closed = 1;
nodes = (
"510 0 LINE",
"678 0 LINE",
"678 54 LINE",
"510 54 LINE"
);
}
);
width = 698;
},
{
layerId = "EA87A73E-C0FE-4015-8704-0B2406CC7903";
paths = (
{
closed = 1;
nodes = (
"383 706 LINE",
"616 706 LINE",
"616 760 LINE",
"383 760 LINE"
);
},
{
closed = 1;
nodes = (
"488 432 LINE",
"502 282 LINE",
"496 158 LINE",
"496 0 LINE",
"616 0 LINE",
"616 760 LINE",
"488 760 LINE"
);
},
{
closed = 1;
nodes = (
"496 0 LINE",
"706 0 LINE",
"706 54 LINE",
"496 54 LINE"
);
},
{
closed = 1;
nodes = (
"166 570 OFFCURVE",
"56 460 OFFCURVE",
"56 280 CURVE SMOOTH",
"56 104 OFFCURVE",
"162 -10 OFFCURVE",
"313 -10 CURVE SMOOTH",
"451 -10 OFFCURVE",
"542 85 OFFCURVE",
"542 280 CURVE SMOOTH",
"542 476 OFFCURVE",
"450 570 OFFCURVE",
"314 570 CURVE SMOOTH"
);
},
{
closed = 1;
nodes = (
"433 506 OFFCURVE",
"492 419 OFFCURVE",
"492 282 CURVE SMOOTH",
"492 142 OFFCURVE",
"431 54 OFFCURVE",
"341 54 CURVE SMOOTH",
"251 54 OFFCURVE",
"192 141 OFFCURVE",
"192 278 CURVE SMOOTH",
"192 418 OFFCURVE",
"253 506 OFFCURVE",
"343 506 CURVE SMOOTH"
);
}
);
width = 736;
},
{
associatedMasterId = "EA87A73E-C0FE-4015-8704-0B2406CC7903";
layerId = "8B42BD0B-2FD7-43C2-85A7-0A2B9F65243C";
name = v1;
paths = (
{
closed = 1;
nodes = (
"452 -10 OFFCURVE",
"542 82 OFFCURVE",
"542 280 CURVE SMOOTH",
"542 478 OFFCURVE",
"452 570 OFFCURVE",
"306 570 CURVE SMOOTH",
"160 570 OFFCURVE",
"50 460 OFFCURVE",
"50 280 CURVE SMOOTH",
"50 100 OFFCURVE",
"160 -10 OFFCURVE",
"306 -10 CURVE SMOOTH"
);
},
{
closed = 1;
nodes = (
"200 48 OFFCURVE",
"124 138 OFFCURVE",
"124 282 CURVE SMOOTH",
"124 422 OFFCURVE",
"200 512 OFFCURVE",
"314 512 CURVE SMOOTH",
"432 512 OFFCURVE",
"508 422 OFFCURVE",
"508 278 CURVE SMOOTH",
"508 138 OFFCURVE",
"432 48 OFFCURVE",
"318 48 CURVE SMOOTH"
);
},
{
closed = 1;
nodes = (
"376 716 LINE",
"578 716 LINE",
"578 770 LINE",
"376 770 LINE"
);
},
{
closed = 1;
nodes = (
"506 432 LINE",
"520 282 LINE",
"510 194 LINE",
"510 118 LINE SMOOTH",
"510 40 OFFCURVE",
"549 -6 OFFCURVE",
"620 -6 CURVE SMOOTH",
"686 -6 OFFCURVE",
"726 41 OFFCURVE",
"726 120 CURVE SMOOTH",
"726 240 LINE",
"668 240 LINE",
"668 114 LINE SMOOTH",
"668 82 OFFCURVE",
"652 60 OFFCURVE",
"623 60 CURVE SMOOTH",
"594 60 OFFCURVE",
"578 81 OFFCURVE",
"578 114 CURVE SMOOTH",
"578 770 LINE",
"506 770 LINE"
);
}
);
width = 766;
},
{
associatedMasterId = "EA87A73E-C0FE-4015-8704-0B2406CC7903";
layerId = "767A6425-E358-4C8E-9810-1AFAF0080D8B";
name = v2;
paths = (
{
closed = 1;
nodes = (
"452 -10 OFFCURVE",
"542 82 OFFCURVE",
"542 280 CURVE SMOOTH",
"542 478 OFFCURVE",
"452 570 OFFCURVE",
"306 570 CURVE SMOOTH",
"160 570 OFFCURVE",
"50 460 OFFCURVE",
"50 280 CURVE SMOOTH",
"50 100 OFFCURVE",
"160 -10 OFFCURVE",
"306 -10 CURVE SMOOTH"
);
},
{
closed = 1;
nodes = (
"200 48 OFFCURVE",
"124 138 OFFCURVE",
"124 282 CURVE SMOOTH",
"124 422 OFFCURVE",
"200 512 OFFCURVE",
"314 512 CURVE SMOOTH",
"432 512 OFFCURVE",
"508 422 OFFCURVE",
"508 278 CURVE SMOOTH",
"508 138 OFFCURVE",
"432 48 OFFCURVE",
"318 48 CURVE SMOOTH"
);
},
{
closed = 1;
nodes = (
"376 716 LINE",
"578 716 LINE",
"578 770 LINE",
"376 770 LINE"
);
},
{
closed = 1;
nodes = (
"506 432 LINE",
"520 282 LINE",
"510 194 LINE",
"510 0 LINE",
"578 0 LINE",
"578 770 LINE",
"506 770 LINE"
);
},
{
closed = 1;
nodes = (
"510 0 LINE",
"678 0 LINE",
"678 54 LINE",
"510 54 LINE"
);
}
);
width = 698;
},
{
layerId = "DBCC401B-C3AE-4436-9575-31462D2FF699";
paths = (
{
closed = 1;
nodes = (
"383 706 LINE",
"616 706 LINE",
"616 760 LINE",
"383 760 LINE"
);
},
{
closed = 1;
nodes = (
"488 432 LINE",
"502 282 LINE",
"496 158 LINE",
"496 0 LINE",
"616 0 LINE",
"616 760 LINE",
"488 760 LINE"
);
},
{
closed = 1;
nodes = (
"496 0 LINE",
"706 0 LINE",
"706 54 LINE",
"496 54 LINE"
);
},
{
closed = 1;
nodes = (
"166 570 OFFCURVE",
"56 460 OFFCURVE",
"56 280 CURVE SMOOTH",
"56 104 OFFCURVE",
"162 -10 OFFCURVE",
"313 -10 CURVE SMOOTH",
"451 -10 OFFCURVE",
"542 85 OFFCURVE",
"542 280 CURVE SMOOTH",
"542 476 OFFCURVE",
"450 570 OFFCURVE",
"314 570 CURVE SMOOTH"
);
},
{
closed = 1;
nodes = (
"433 506 OFFCURVE",
"492 419 OFFCURVE",
"492 282 CURVE SMOOTH",
"492 142 OFFCURVE",
"431 54 OFFCURVE",
"341 54 CURVE SMOOTH",
"251 54 OFFCURVE",
"192 141 OFFCURVE",
"192 278 CURVE SMOOTH",
"192 418 OFFCURVE",
"253 506 OFFCURVE",
"343 506 CURVE SMOOTH"
);
}
);
width = 736;
},
{
associatedMasterId = "DBCC401B-C3AE-4436-9575-31462D2FF699";
layerId = "A2EC3C44-7BD6-4B87-8E53-23F3850DC5B0";
name = v1;
paths = (
{
closed = 1;
nodes = (
"452 -10 OFFCURVE",
"542 82 OFFCURVE",
"542 280 CURVE SMOOTH",
"542 478 OFFCURVE",
"452 570 OFFCURVE",
"306 570 CURVE SMOOTH",
"160 570 OFFCURVE",
"50 460 OFFCURVE",
"50 280 CURVE SMOOTH",
"50 100 OFFCURVE",
"160 -10 OFFCURVE",
"306 -10 CURVE SMOOTH"
);
},
{
closed = 1;
nodes = (
"200 48 OFFCURVE",
"124 138 OFFCURVE",
"124 282 CURVE SMOOTH",
"124 422 OFFCURVE",
"200 512 OFFCURVE",
"314 512 CURVE SMOOTH",
"432 512 OFFCURVE",
"508 422 OFFCURVE",
"508 278 CURVE SMOOTH",
"508 138 OFFCURVE",
"432 48 OFFCURVE",
"318 48 CURVE SMOOTH"
);
},
{
closed = 1;
nodes = (
"376 716 LINE",
"578 716 LINE",
"578 770 LINE",
"376 770 LINE"
);
},
{
closed = 1;
nodes = (
"506 432 LINE",
"520 282 LINE",
"510 194 LINE",
"510 118 LINE SMOOTH",
"510 40 OFFCURVE",
"549 -6 OFFCURVE",
"620 -6 CURVE SMOOTH",
"686 -6 OFFCURVE",
"726 41 OFFCURVE",
"726 120 CURVE SMOOTH",
"726 240 LINE",
"668 240 LINE",
"668 114 LINE SMOOTH",
"668 82 OFFCURVE",
"652 60 OFFCURVE",
"623 60 CURVE SMOOTH",
"594 60 OFFCURVE",
"578 81 OFFCURVE",
"578 114 CURVE SMOOTH",
"578 770 LINE",
"506 770 LINE"
);
}
);
width = 766;
},
{
associatedMasterId = "DBCC401B-C3AE-4436-9575-31462D2FF699";
layerId = "0FE86C51-3C4E-4EDF-9ECF-5DD948387043";
name = v2;
paths = (
{
closed = 1;
nodes = (
"452 -10 OFFCURVE",
"542 82 OFFCURVE",
"542 280 CURVE SMOOTH",
"542 478 OFFCURVE",
"452 570 OFFCURVE",
"306 570 CURVE SMOOTH",
"160 570 OFFCURVE",
"50 460 OFFCURVE",
"50 280 CURVE SMOOTH",
"50 100 OFFCURVE",
"160 -10 OFFCURVE",
"306 -10 CURVE SMOOTH"
);
},
{
closed = 1;
nodes = (
"200 48 OFFCURVE",
"124 138 OFFCURVE",
"124 282 CURVE SMOOTH",
"124 422 OFFCURVE",
"200 512 OFFCURVE",
"314 512 CURVE SMOOTH",
"432 512 OFFCURVE",
"508 422 OFFCURVE",
"508 278 CURVE SMOOTH",
"508 138 OFFCURVE",
"432 48 OFFCURVE",
"318 48 CURVE SMOOTH"
);
},
{
closed = 1;
nodes = (
"376 716 LINE",
"578 716 LINE",
"578 770 LINE",
"376 770 LINE"
);
},
{
closed = 1;
nodes = (
"506 432 LINE",
"520 282 LINE",
"510 194 LINE",
"510 0 LINE",
"578 0 LINE",
"578 770 LINE",
"506 770 LINE"
);
},
{
closed = 1;
nodes = (
"510 0 LINE",
"678 0 LINE",
"678 54 LINE",
"510 54 LINE"
);
}
);
width = 698;
},
{
layerId = "46ED8887-C39F-4CE4-BD5B-7A231A6BF840";
paths = (
{
closed = 1;
nodes = (
"402 708 LINE",
"580 708 LINE",
"580 760 LINE",
"402 760 LINE"
);
},
{
closed = 1;
nodes = (
"522 432 LINE",
"536 282 LINE",
"528 194 LINE",
"528 0 LINE",
"580 0 LINE",
"580 760 LINE",
"522 760 LINE"
);
},
{
closed = 1;
nodes = (
"528 0 LINE",
"685 0 LINE",
"685 52 LINE",
"528 52 LINE"
);
},
{
closed = 1;
nodes = (
"166 570 OFFCURVE",
"66 458 OFFCURVE",
"66 280 CURVE SMOOTH",
"66 102 OFFCURVE",
"166 -10 OFFCURVE",
"322 -10 CURVE SMOOTH",
"462 -10 OFFCURVE",
"558 82 OFFCURVE",
"558 280 CURVE SMOOTH",
"558 478 OFFCURVE",
"462 570 OFFCURVE",
"322 570 CURVE SMOOTH"
);
},
{
closed = 1;
nodes = (
"444 518 OFFCURVE",
"524 425 OFFCURVE",
"524 280 CURVE SMOOTH",
"524 135 OFFCURVE",
"444 42 OFFCURVE",
"324 42 CURVE SMOOTH",
"204 42 OFFCURVE",
"124 135 OFFCURVE",
"124 280 CURVE SMOOTH",
"124 425 OFFCURVE",
"204 518 OFFCURVE",
"324 518 CURVE SMOOTH"
);
}
);
width = 715;
},
{
associatedMasterId = "46ED8887-C39F-4CE4-BD5B-7A231A6BF840";
layerId = "5E6F56C3-47F3-4E98-A503-2710E889229A";
name = v1;
paths = (
{
closed = 1;
nodes = (
"452 -10 OFFCURVE",
"542 82 OFFCURVE",
"542 280 CURVE SMOOTH",
"542 478 OFFCURVE",
"452 570 OFFCURVE",
"306 570 CURVE SMOOTH",
"160 570 OFFCURVE",
"50 460 OFFCURVE",
"50 280 CURVE SMOOTH",
"50 100 OFFCURVE",
"160 -10 OFFCURVE",
"306 -10 CURVE SMOOTH"
);
},
{
closed = 1;
nodes = (
"200 48 OFFCURVE",
"124 138 OFFCURVE",
"124 282 CURVE SMOOTH",
"124 422 OFFCURVE",
"200 512 OFFCURVE",
"314 512 CURVE SMOOTH",
"432 512 OFFCURVE",
"508 422 OFFCURVE",
"508 278 CURVE SMOOTH",
"508 138 OFFCURVE",
"432 48 OFFCURVE",
"318 48 CURVE SMOOTH"
);
},
{
closed = 1;
nodes = (
"376 716 LINE",
"578 716 LINE",
"578 770 LINE",
"376 770 LINE"
);
},
{
closed = 1;
nodes = (
"506 432 LINE",
"520 282 LINE",
"510 194 LINE",
"510 118 LINE SMOOTH",
"510 40 OFFCURVE",
"549 -6 OFFCURVE",
"620 -6 CURVE SMOOTH",
"686 -6 OFFCURVE",
"726 41 OFFCURVE",
"726 120 CURVE SMOOTH",
"726 240 LINE",
"668 240 LINE",
"668 114 LINE SMOOTH",
"668 82 OFFCURVE",
"652 60 OFFCURVE",
"623 60 CURVE SMOOTH",
"594 60 OFFCURVE",
"578 81 OFFCURVE",
"578 114 CURVE SMOOTH",
"578 770 LINE",
"506 770 LINE"
);
}
);
width = 766;
},
{
associatedMasterId = "46ED8887-C39F-4CE4-BD5B-7A231A6BF840";
layerId = "98202612-3D53-459D-8D0A-0C7A233AA0C4";
name = v2;
paths = (
{
closed = 1;
nodes = (
"452 -10 OFFCURVE",
"542 82 OFFCURVE",
"542 280 CURVE SMOOTH",
"542 478 OFFCURVE",
"452 570 OFFCURVE",
"306 570 CURVE SMOOTH",
"160 570 OFFCURVE",
"50 460 OFFCURVE",
"50 280 CURVE SMOOTH",
"50 100 OFFCURVE",
"160 -10 OFFCURVE",
"306 -10 CURVE SMOOTH"
);
},
{
closed = 1;
nodes = (
"200 48 OFFCURVE",
"124 138 OFFCURVE",
"124 282 CURVE SMOOTH",
"124 422 OFFCURVE",
"200 512 OFFCURVE",
"314 512 CURVE SMOOTH",
"432 512 OFFCURVE",
"508 422 OFFCURVE",
"508 278 CURVE SMOOTH",
"508 138 OFFCURVE",
"432 48 OFFCURVE",
"318 48 CURVE SMOOTH"
);
},
{
closed = 1;
nodes = (
"376 716 LINE",
"578 716 LINE",
"578 770 LINE",
"376 770 LINE"
);
},
{
closed = 1;
nodes = (
"506 432 LINE",
"520 282 LINE",
"510 194 LINE",
"510 0 LINE",
"578 0 LINE",
"578 770 LINE",
"506 770 LINE"
);
},
{
closed = 1;
nodes = (
"510 0 LINE",
"678 0 LINE",
"678 54 LINE",
"510 54 LINE"
);
}
);
width = 698;
}
);
leftKerningGroup = o;
leftMetricsKey = o;
rightKerningGroup = d;
rightMetricsKey = n;
unicode = 0064;
},
{
glyphname = e;
lastChange = "2020-02-18 14:25:44 +0000";
layers = (
{
layerId = "D79F8ED9-6C56-4538-8DF1-62DD23430BF9";
paths = (
{
closed = 1;
nodes = (
"126 280 LINE",
"126 298 OFFCURVE",
"125 316 OFFCURVE",
"126 333 CURVE",
"131 352 LINE",
"155 454 OFFCURVE",
"222 518 OFFCURVE",
"326 518 CURVE SMOOTH",
"431 518 OFFCURVE",
"489 452 OFFCURVE",
"498 352 CURVE",
"558 327 LINE",
"558 473 OFFCURVE",
"464 570 OFFCURVE",
"325 570 CURVE SMOOTH",
"179 570 OFFCURVE",
"66 461 OFFCURVE",
"66 280 CURVE"
);
},
{
closed = 1;
nodes = (
"117 300 LINE",
"558 300 LINE",
"558 327 LINE",
"498 352 LINE",
"117 352 LINE"
);
},
{
closed = 1;
nodes = (
"66 106 OFFCURVE",
"180 -10 OFFCURVE",
"326 -10 CURVE SMOOTH",
"461 -10 OFFCURVE",
"531 71 OFFCURVE",
"554 169 CURVE",
"504 183 LINE",
"484 107 OFFCURVE",
"433 42 OFFCURVE",
"326 42 CURVE SMOOTH",
"213 42 OFFCURVE",
"126 140 OFFCURVE",
"126 280 CURVE",
"66 280 LINE"
);
}
);
width = 624;
},
{
associatedMasterId = "D79F8ED9-6C56-4538-8DF1-62DD23430BF9";
layerId = "41B580D3-3732-47D4-B62D-B164D16CA85B";
name = v1;
paths = (
{
closed = 1;
nodes = (
"108 290 LINE",
"108 305 OFFCURVE",
"109 319 OFFCURVE",
"110 333 CURVE",
"114 362 LINE",
"135 464 OFFCURVE",
"209 518 OFFCURVE",
"308 518 CURVE SMOOTH",
"408 518 OFFCURVE",
"458 454 OFFCURVE",
"458 368 CURVE",
"532 344 LINE",
"532 480 OFFCURVE",
"454 570 OFFCURVE",
"308 570 CURVE SMOOTH",
"152 570 OFFCURVE",
"36 460 OFFCURVE",
"36 276 CURVE"
);
},
{
closed = 1;
nodes = (
"101 314 LINE",
"532 314 LINE",
"532 344 LINE",
"458 368 LINE",
"101 368 LINE"
);
},
{
closed = 1;
nodes = (
"36 104 OFFCURVE",
"148 -10 OFFCURVE",
"299 -10 CURVE SMOOTH",
"442 -10 OFFCURVE",
"522 82 OFFCURVE",
"538 218 CURVE",
"485 224 LINE",
"470 123 OFFCURVE",
"413 60 OFFCURVE",
"305 60 CURVE SMOOTH",
"184 60 OFFCURVE",
"108 155 OFFCURVE",
"108 290 CURVE",
"36 276 LINE"
);
}
);
width = 570;
},
{
associatedMasterId = "D79F8ED9-6C56-4538-8DF1-62DD23430BF9";
layerId = "3C02CDF4-DB88-44F9-95E9-55B23021C66B";
name = v2;
paths = (
{
closed = 1;
nodes = (
"108 290 LINE",
"108 305 OFFCURVE",
"109 319 OFFCURVE",
"110 333 CURVE",
"114 362 LINE",
"135 464 OFFCURVE",
"209 518 OFFCURVE",
"308 518 CURVE SMOOTH",
"408 518 OFFCURVE",
"458 454 OFFCURVE",
"458 368 CURVE",
"532 344 LINE",
"532 480 OFFCURVE",
"454 570 OFFCURVE",
"308 570 CURVE SMOOTH",
"152 570 OFFCURVE",
"36 460 OFFCURVE",
"36 276 CURVE"
);
},
{
closed = 1;
nodes = (
"101 314 LINE",
"532 314 LINE",
"532 344 LINE",
"458 368 LINE",
"101 368 LINE"
);
},
{
closed = 1;
nodes = (
"36 104 OFFCURVE",
"148 -10 OFFCURVE",
"299 -10 CURVE SMOOTH",
"442 -10 OFFCURVE",
"522 82 OFFCURVE",
"538 218 CURVE",
"485 224 LINE",
"470 129 OFFCURVE",
"413 70 OFFCURVE",
"305 70 CURVE SMOOTH",
"184 70 OFFCURVE",
"108 161 OFFCURVE",
"108 290 CURVE",
"36 276 LINE"
);
}
);
width = 570;
},
{
layerId = "EA87A73E-C0FE-4015-8704-0B2406CC7903";
paths = (
{
closed = 1;
nodes = (
"184 290 LINE",
"184 305 OFFCURVE",
"185 319 OFFCURVE",
"186 333 CURVE",
"188 358 LINE",
"202 463 OFFCURVE",
"257 516 OFFCURVE",
"332 516 CURVE SMOOTH",
"405 516 OFFCURVE",
"448 456 OFFCURVE",
"448 362 CURVE",
"578 334 LINE",
"578 475 OFFCURVE",
"487 570 OFFCURVE",
"334 570 CURVE SMOOTH",
"175 570 OFFCURVE",
"56 460 OFFCURVE",
"56 276 CURVE"
);
},
{
closed = 1;
nodes = (
"145 308 LINE",
"578 308 LINE",
"578 334 LINE",
"448 362 LINE",
"145 362 LINE"
);
},
{
closed = 1;
nodes = (
"56 104 OFFCURVE",
"174 -10 OFFCURVE",
"332 -10 CURVE SMOOTH",
"469 -10 OFFCURVE",
"546 69 OFFCURVE",
"574 179 CURVE",
"519 196 LINE",
"491 130 OFFCURVE",
"447 82 OFFCURVE",
"354 82 CURVE SMOOTH",
"251 82 OFFCURVE",
"184 168 OFFCURVE",
"184 290 CURVE",
"56 276 LINE"
);
}
);
width = 634;
},
{
associatedMasterId = "EA87A73E-C0FE-4015-8704-0B2406CC7903";
layerId = "0F620102-2DCA-4461-A4BA-BDB95C92F2C9";
name = v1;
paths = (
{
closed = 1;
nodes = (
"108 290 LINE",
"108 305 OFFCURVE",
"109 319 OFFCURVE",
"110 333 CURVE",
"114 362 LINE",
"135 464 OFFCURVE",
"209 518 OFFCURVE",
"308 518 CURVE SMOOTH",
"408 518 OFFCURVE",
"458 454 OFFCURVE",
"458 368 CURVE",
"532 344 LINE",
"532 480 OFFCURVE",
"454 570 OFFCURVE",
"308 570 CURVE SMOOTH",
"152 570 OFFCURVE",
"36 460 OFFCURVE",
"36 276 CURVE"
);
},
{
closed = 1;
nodes = (
"101 314 LINE",
"532 314 LINE",
"532 344 LINE",
"458 368 LINE",
"101 368 LINE"
);
},
{
closed = 1;
nodes = (
"36 104 OFFCURVE",
"148 -10 OFFCURVE",
"299 -10 CURVE SMOOTH",
"442 -10 OFFCURVE",
"522 82 OFFCURVE",
"538 218 CURVE",
"485 224 LINE",
"470 123 OFFCURVE",
"413 60 OFFCURVE",
"305 60 CURVE SMOOTH",
"184 60 OFFCURVE",
"108 155 OFFCURVE",
"108 290 CURVE",
"36 276 LINE"
);
}
);
width = 570;
},
{
associatedMasterId = "EA87A73E-C0FE-4015-8704-0B2406CC7903";
layerId = "FEEBC8A0-F095-4A19-865F-491EDEA1699D";
name = v2;
paths = (
{
closed = 1;
nodes = (
"108 290 LINE",
"108 305 OFFCURVE",
"109 319 OFFCURVE",
"110 333 CURVE",
"114 362 LINE",
"135 464 OFFCURVE",
"209 518 OFFCURVE",
"308 518 CURVE SMOOTH",
"408 518 OFFCURVE",
"458 454 OFFCURVE",
"458 368 CURVE",
"532 344 LINE",
"532 480 OFFCURVE",
"454 570 OFFCURVE",
"308 570 CURVE SMOOTH",
"152 570 OFFCURVE",
"36 460 OFFCURVE",
"36 276 CURVE"
);
},
{
closed = 1;
nodes = (
"101 314 LINE",
"532 314 LINE",
"532 344 LINE",
"458 368 LINE",
"101 368 LINE"
);
},
{
closed = 1;
nodes = (
"36 104 OFFCURVE",
"148 -10 OFFCURVE",
"299 -10 CURVE SMOOTH",
"442 -10 OFFCURVE",
"522 82 OFFCURVE",
"538 218 CURVE",
"485 224 LINE",
"470 129 OFFCURVE",
"413 70 OFFCURVE",
"305 70 CURVE SMOOTH",
"184 70 OFFCURVE",
"108 161 OFFCURVE",
"108 290 CURVE",
"36 276 LINE"
);
}
);
width = 570;
},
{
layerId = "DBCC401B-C3AE-4436-9575-31462D2FF699";
paths = (
{
closed = 1;
nodes = (
"184 290 LINE",
"184 305 OFFCURVE",
"185 319 OFFCURVE",
"186 333 CURVE",
"188 358 LINE",
"202 463 OFFCURVE",
"257 516 OFFCURVE",
"332 516 CURVE SMOOTH",
"405 516 OFFCURVE",
"448 456 OFFCURVE",
"448 362 CURVE",
"578 334 LINE",
"578 475 OFFCURVE",
"487 570 OFFCURVE",
"334 570 CURVE SMOOTH",
"175 570 OFFCURVE",
"56 460 OFFCURVE",
"56 276 CURVE"
);
},
{
closed = 1;
nodes = (
"145 308 LINE",
"578 308 LINE",
"578 334 LINE",
"448 362 LINE",
"145 362 LINE"
);
},
{
closed = 1;
nodes = (
"56 104 OFFCURVE",
"174 -10 OFFCURVE",
"332 -10 CURVE SMOOTH",
"478 -10 OFFCURVE",
"555 81 OFFCURVE",
"577 204 CURVE",
"525 216 LINE",
"497 140 OFFCURVE",
"455 82 OFFCURVE",
"354 82 CURVE SMOOTH",
"251 82 OFFCURVE",
"184 168 OFFCURVE",
"184 290 CURVE",
"56 276 LINE"
);
}
);
width = 634;
},
{
associatedMasterId = "DBCC401B-C3AE-4436-9575-31462D2FF699";
layerId = "B5F37E8B-E922-4314-9ED8-628E9E40C880";
name = v1;
paths = (
{
closed = 1;
nodes = (
"108 290 LINE",
"108 305 OFFCURVE",
"109 319 OFFCURVE",
"110 333 CURVE",
"114 362 LINE",
"135 464 OFFCURVE",
"209 518 OFFCURVE",
"308 518 CURVE SMOOTH",
"408 518 OFFCURVE",
"458 454 OFFCURVE",
"458 368 CURVE",
"532 344 LINE",
"532 480 OFFCURVE",
"454 570 OFFCURVE",
"308 570 CURVE SMOOTH",
"152 570 OFFCURVE",
"36 460 OFFCURVE",
"36 276 CURVE"
);
},
{
closed = 1;
nodes = (
"101 314 LINE",
"532 314 LINE",
"532 344 LINE",
"458 368 LINE",
"101 368 LINE"
);
},
{
closed = 1;
nodes = (
"36 104 OFFCURVE",
"148 -10 OFFCURVE",
"299 -10 CURVE SMOOTH",
"442 -10 OFFCURVE",
"522 82 OFFCURVE",
"538 218 CURVE",
"485 224 LINE",
"470 123 OFFCURVE",
"413 60 OFFCURVE",
"305 60 CURVE SMOOTH",
"184 60 OFFCURVE",
"108 155 OFFCURVE",
"108 290 CURVE",
"36 276 LINE"
);
}
);
width = 570;
},
{
associatedMasterId = "DBCC401B-C3AE-4436-9575-31462D2FF699";
layerId = "FA9CBBDC-2DE4-43F2-9B89-51D13498E05A";
name = v2;
paths = (
{
closed = 1;
nodes = (
"108 290 LINE",
"108 305 OFFCURVE",
"109 319 OFFCURVE",
"110 333 CURVE",
"114 362 LINE",
"135 464 OFFCURVE",
"209 518 OFFCURVE",
"308 518 CURVE SMOOTH",
"408 518 OFFCURVE",
"458 454 OFFCURVE",
"458 368 CURVE",
"532 344 LINE",
"532 480 OFFCURVE",
"454 570 OFFCURVE",
"308 570 CURVE SMOOTH",
"152 570 OFFCURVE",
"36 460 OFFCURVE",
"36 276 CURVE"
);
},
{
closed = 1;
nodes = (
"101 314 LINE",
"532 314 LINE",
"532 344 LINE",
"458 368 LINE",
"101 368 LINE"
);
},
{
closed = 1;
nodes = (
"36 104 OFFCURVE",
"148 -10 OFFCURVE",
"299 -10 CURVE SMOOTH",
"442 -10 OFFCURVE",
"522 82 OFFCURVE",
"538 218 CURVE",
"485 224 LINE",
"470 129 OFFCURVE",
"413 70 OFFCURVE",
"305 70 CURVE SMOOTH",
"184 70 OFFCURVE",
"108 161 OFFCURVE",
"108 290 CURVE",
"36 276 LINE"
);
}
);
width = 570;
},
{
layerId = "46ED8887-C39F-4CE4-BD5B-7A231A6BF840";
paths = (
{
closed = 1;
nodes = (
"126 280 LINE",
"126 298 OFFCURVE",
"125 316 OFFCURVE",
"126 333 CURVE",
"131 352 LINE",
"155 454 OFFCURVE",
"222 518 OFFCURVE",
"326 518 CURVE SMOOTH",
"431 518 OFFCURVE",
"489 452 OFFCURVE",
"498 352 CURVE",
"558 327 LINE",
"558 473 OFFCURVE",
"464 570 OFFCURVE",
"325 570 CURVE SMOOTH",
"179 570 OFFCURVE",
"66 461 OFFCURVE",
"66 280 CURVE"
);
},
{
closed = 1;
nodes = (
"117 300 LINE",
"558 300 LINE",
"558 327 LINE",
"498 352 LINE",
"117 352 LINE"
);
},
{
closed = 1;
nodes = (
"66 106 OFFCURVE",
"180 -10 OFFCURVE",
"326 -10 CURVE SMOOTH",
"464 -10 OFFCURVE",
"539 84 OFFCURVE",
"560 194 CURVE",
"508 204 LINE",
"490 114 OFFCURVE",
"436 42 OFFCURVE",
"326 42 CURVE SMOOTH",
"213 42 OFFCURVE",
"126 140 OFFCURVE",
"126 280 CURVE",
"66 280 LINE"
);
}
);
width = 624;
},
{
associatedMasterId = "46ED8887-C39F-4CE4-BD5B-7A231A6BF840";
layerId = "6D1CEEE2-41F9-451F-B886-A102A95F023A";
name = v1;
paths = (
{
closed = 1;
nodes = (
"108 290 LINE",
"108 305 OFFCURVE",
"109 319 OFFCURVE",
"110 333 CURVE",
"114 362 LINE",
"135 464 OFFCURVE",
"209 518 OFFCURVE",
"308 518 CURVE SMOOTH",
"408 518 OFFCURVE",
"458 454 OFFCURVE",
"458 368 CURVE",
"532 344 LINE",
"532 480 OFFCURVE",
"454 570 OFFCURVE",
"308 570 CURVE SMOOTH",
"152 570 OFFCURVE",
"36 460 OFFCURVE",
"36 276 CURVE"
);
},
{
closed = 1;
nodes = (
"101 314 LINE",
"532 314 LINE",
"532 344 LINE",
"458 368 LINE",
"101 368 LINE"
);
},
{
closed = 1;
nodes = (
"36 104 OFFCURVE",
"148 -10 OFFCURVE",
"299 -10 CURVE SMOOTH",
"442 -10 OFFCURVE",
"522 82 OFFCURVE",
"538 218 CURVE",
"485 224 LINE",
"470 123 OFFCURVE",
"413 60 OFFCURVE",
"305 60 CURVE SMOOTH",
"184 60 OFFCURVE",
"108 155 OFFCURVE",
"108 290 CURVE",
"36 276 LINE"
);
}
);
width = 570;
},
{
associatedMasterId = "46ED8887-C39F-4CE4-BD5B-7A231A6BF840";
layerId = "5D2F8DF5-081F-4328-8096-2F47AAA69896";
name = v2;
paths = (
{
closed = 1;
nodes = (
"108 290 LINE",
"108 305 OFFCURVE",
"109 319 OFFCURVE",
"110 333 CURVE",
"114 362 LINE",
"135 464 OFFCURVE",
"209 518 OFFCURVE",
"308 518 CURVE SMOOTH",
"408 518 OFFCURVE",
"458 454 OFFCURVE",
"458 368 CURVE",
"532 344 LINE",
"532 480 OFFCURVE",
"454 570 OFFCURVE",
"308 570 CURVE SMOOTH",
"152 570 OFFCURVE",
"36 460 OFFCURVE",
"36 276 CURVE"
);
},
{
closed = 1;
nodes = (
"101 314 LINE",
"532 314 LINE",
"532 344 LINE",
"458 368 LINE",
"101 368 LINE"
);
},
{
closed = 1;
nodes = (
"36 104 OFFCURVE",
"148 -10 OFFCURVE",
"299 -10 CURVE SMOOTH",
"442 -10 OFFCURVE",
"522 82 OFFCURVE",
"538 218 CURVE",
"485 224 LINE",
"470 129 OFFCURVE",
"413 70 OFFCURVE",
"305 70 CURVE SMOOTH",
"184 70 OFFCURVE",
"108 161 OFFCURVE",
"108 290 CURVE",
"36 276 LINE"
);
}
);
width = 570;
}
);
leftKerningGroup = o;
leftMetricsKey = o;
rightKerningGroup = o;
unicode = 0065;
},
{
glyphname = f;
lastChange = "2020-02-18 13:45:44 +0000";
layers = (
{
layerId = "D79F8ED9-6C56-4538-8DF1-62DD23430BF9";
paths = (
{
closed = 1;
nodes = (
"185 0 LINE",
"243 0 LINE",
"243 644 LINE",
"185 618 LINE"
);
},
{
closed = 1;
nodes = (
"15 508 LINE",
"473 508 LINE",
"473 560 LINE",
"15 560 LINE"
);
},
{
closed = 1;
nodes = (
"70 0 LINE",
"383 0 LINE",
"383 52 LINE",
"70 52 LINE"
);
},
{
closed = 1;
nodes = (
"508 776 OFFCURVE",
"454 824 OFFCURVE",
"373 824 CURVE SMOOTH",
"281 824 OFFCURVE",
"185 766 OFFCURVE",
"185 618 CURVE",
"243 624 LINE",
"243 737 OFFCURVE",
"305 776 OFFCURVE",
"370 776 CURVE SMOOTH",
"413 776 OFFCURVE",
"434 758 OFFCURVE",
"434 735 CURVE SMOOTH",
"434 709 OFFCURVE",
"418 699 OFFCURVE",
"418 677 CURVE SMOOTH",
"418 660 OFFCURVE",
"431 644 OFFCURVE",
"453 644 CURVE SMOOTH",
"488 644 OFFCURVE",
"508 674 OFFCURVE",
"508 714 CURVE SMOOTH"
);
}
);
width = 533;
},
{
associatedMasterId = "D79F8ED9-6C56-4538-8DF1-62DD23430BF9";
layerId = "3647855C-372A-4774-AC74-CB3B795516C9";
name = v1;
paths = (
{
closed = 1;
nodes = (
"180 0 LINE",
"252 0 LINE",
"252 520 LINE",
"180 510 LINE"
);
},
{
closed = 1;
nodes = (
"10 456 LINE",
"452 456 LINE",
"452 510 LINE",
"10 510 LINE"
);
},
{
closed = 1;
nodes = (
"60 0 LINE",
"432 0 LINE",
"432 54 LINE",
"60 54 LINE"
);
},
{
closed = 1;
nodes = (
"535 727 OFFCURVE",
"485 770 OFFCURVE",
"388 770 CURVE SMOOTH",
"303 770 OFFCURVE",
"180 709 OFFCURVE",
"180 510 CURVE",
"252 520 LINE",
"252 692 OFFCURVE",
"331 727 OFFCURVE",
"389 727 CURVE SMOOTH",
"430 727 OFFCURVE",
"453 712 OFFCURVE",
"453 686 CURVE SMOOTH",
"453 672 OFFCURVE",
"447 662 OFFCURVE",
"439 651 CURVE SMOOTH",
"432 642 OFFCURVE",
"426 632 OFFCURVE",
"426 618 CURVE SMOOTH",
"426 600 OFFCURVE",
"438 583 OFFCURVE",
"466 583 CURVE SMOOTH",
"508 583 OFFCURVE",
"535 625 OFFCURVE",
"535 666 CURVE SMOOTH"
);
}
);
width = 492;
},
{
associatedMasterId = "D79F8ED9-6C56-4538-8DF1-62DD23430BF9";
layerId = "57423085-023B-4E6C-9D37-6D2DE901F59F";
name = v2;
paths = (
{
closed = 1;
nodes = (
"180 0 LINE",
"252 0 LINE",
"252 619 LINE",
"180 609 LINE"
);
},
{
closed = 1;
nodes = (
"10 456 LINE",
"472 456 LINE",
"472 510 LINE",
"10 510 LINE"
);
},
{
closed = 1;
nodes = (
"60 0 LINE",
"442 0 LINE",
"442 54 LINE",
"60 54 LINE"
);
},
{
closed = 1;
nodes = (
"180 609 LINE",
"180 684 OFFCURVE",
"218 720 OFFCURVE",
"302 720 CURVE SMOOTH",
"492 720 LINE",
"492 666 LINE",
"304 666 LINE SMOOTH",
"266 666 OFFCURVE",
"252 650 OFFCURVE",
"252 619 CURVE"
);
}
);
width = 492;
},
{
layerId = "EA87A73E-C0FE-4015-8704-0B2406CC7903";
paths = (
{
closed = 1;
nodes = (
"150 0 LINE",
"278 0 LINE",
"278 673 LINE",
"150 626 LINE"
);
},
{
closed = 1;
nodes = (
"0 506 LINE",
"468 506 LINE",
"468 560 LINE",
"0 560 LINE"
);
},
{
closed = 1;
nodes = (
"55 0 LINE",
"398 0 LINE",
"398 54 LINE",
"55 54 LINE"
);
},
{
closed = 1;
nodes = (
"528 771 OFFCURVE",
"460 826 OFFCURVE",
"366 826 CURVE SMOOTH",
"253 826 OFFCURVE",
"150 770 OFFCURVE",
"150 626 CURVE",
"278 653 LINE",
"278 731 OFFCURVE",
"314 776 OFFCURVE",
"367 776 CURVE SMOOTH",
"395 776 OFFCURVE",
"414 763 OFFCURVE",
"414 742 CURVE SMOOTH",
"414 712 OFFCURVE",
"386 707 OFFCURVE",
"386 668 CURVE SMOOTH",
"386 645 OFFCURVE",
"408 621 OFFCURVE",
"450 621 CURVE SMOOTH",
"502 621 OFFCURVE",
"528 657 OFFCURVE",
"528 702 CURVE SMOOTH"
);
}
);
width = 508;
},
{
associatedMasterId = "EA87A73E-C0FE-4015-8704-0B2406CC7903";
layerId = "CC9D4596-05DF-4297-98BF-194A70C1EB29";
name = v1;
paths = (
{
closed = 1;
nodes = (
"180 0 LINE",
"252 0 LINE",
"252 520 LINE",
"180 510 LINE"
);
},
{
closed = 1;
nodes = (
"10 456 LINE",
"452 456 LINE",
"452 510 LINE",
"10 510 LINE"
);
},
{
closed = 1;
nodes = (
"60 0 LINE",
"432 0 LINE",
"432 54 LINE",
"60 54 LINE"
);
},
{
closed = 1;
nodes = (
"535 727 OFFCURVE",
"485 770 OFFCURVE",
"388 770 CURVE SMOOTH",
"303 770 OFFCURVE",
"180 709 OFFCURVE",
"180 510 CURVE",
"252 520 LINE",
"252 692 OFFCURVE",
"331 727 OFFCURVE",
"389 727 CURVE SMOOTH",
"430 727 OFFCURVE",
"453 712 OFFCURVE",
"453 686 CURVE SMOOTH",
"453 672 OFFCURVE",
"447 662 OFFCURVE",
"439 651 CURVE SMOOTH",
"432 642 OFFCURVE",
"426 632 OFFCURVE",
"426 618 CURVE SMOOTH",
"426 600 OFFCURVE",
"438 583 OFFCURVE",
"466 583 CURVE SMOOTH",
"508 583 OFFCURVE",
"535 625 OFFCURVE",
"535 666 CURVE SMOOTH"
);
}
);
width = 492;
},
{
associatedMasterId = "EA87A73E-C0FE-4015-8704-0B2406CC7903";
layerId = "9D765399-D547-456C-B506-4DBCC628B903";
name = v2;
paths = (
{
closed = 1;
nodes = (
"180 0 LINE",
"252 0 LINE",
"252 619 LINE",
"180 609 LINE"
);
},
{
closed = 1;
nodes = (
"10 456 LINE",
"472 456 LINE",
"472 510 LINE",
"10 510 LINE"
);
},
{
closed = 1;
nodes = (
"60 0 LINE",
"442 0 LINE",
"442 54 LINE",
"60 54 LINE"
);
},
{
closed = 1;
nodes = (
"180 609 LINE",
"180 684 OFFCURVE",
"218 720 OFFCURVE",
"302 720 CURVE SMOOTH",
"492 720 LINE",
"492 666 LINE",
"304 666 LINE SMOOTH",
"266 666 OFFCURVE",
"252 650 OFFCURVE",
"252 619 CURVE"
);
}
);
width = 492;
},
{
layerId = "DBCC401B-C3AE-4436-9575-31462D2FF699";
paths = (
{
closed = 1;
nodes = (
"150 0 LINE",
"278 0 LINE",
"278 673 LINE",
"150 626 LINE"
);
},
{
closed = 1;
nodes = (
"0 506 LINE",
"468 506 LINE",
"468 560 LINE",
"0 560 LINE"
);
},
{
closed = 1;
nodes = (
"55 0 LINE",
"438 0 LINE",
"438 54 LINE",
"55 54 LINE"
);
},
{
closed = 1;
nodes = (
"528 771 OFFCURVE",
"460 826 OFFCURVE",
"366 826 CURVE SMOOTH",
"253 826 OFFCURVE",
"150 770 OFFCURVE",
"150 626 CURVE",
"278 653 LINE",
"278 731 OFFCURVE",
"314 776 OFFCURVE",
"367 776 CURVE SMOOTH",
"395 776 OFFCURVE",
"414 763 OFFCURVE",
"414 742 CURVE SMOOTH",
"414 712 OFFCURVE",
"386 707 OFFCURVE",
"386 668 CURVE SMOOTH",
"386 645 OFFCURVE",
"408 621 OFFCURVE",
"450 621 CURVE SMOOTH",
"502 621 OFFCURVE",
"528 657 OFFCURVE",
"528 702 CURVE SMOOTH"
);
}
);
width = 508;
},
{
associatedMasterId = "DBCC401B-C3AE-4436-9575-31462D2FF699";
layerId = "9381EAD7-5F2D-4D25-AB72-3B50E95927CE";
name = v1;
paths = (
{
closed = 1;
nodes = (
"180 0 LINE",
"252 0 LINE",
"252 520 LINE",
"180 510 LINE"
);
},
{
closed = 1;
nodes = (
"10 456 LINE",
"452 456 LINE",
"452 510 LINE",
"10 510 LINE"
);
},
{
closed = 1;
nodes = (
"60 0 LINE",
"432 0 LINE",
"432 54 LINE",
"60 54 LINE"
);
},
{
closed = 1;
nodes = (
"535 727 OFFCURVE",
"485 770 OFFCURVE",
"388 770 CURVE SMOOTH",
"303 770 OFFCURVE",
"180 709 OFFCURVE",
"180 510 CURVE",
"252 520 LINE",
"252 692 OFFCURVE",
"331 727 OFFCURVE",
"389 727 CURVE SMOOTH",
"430 727 OFFCURVE",
"453 712 OFFCURVE",
"453 686 CURVE SMOOTH",
"453 672 OFFCURVE",
"447 662 OFFCURVE",
"439 651 CURVE SMOOTH",
"432 642 OFFCURVE",
"426 632 OFFCURVE",
"426 618 CURVE SMOOTH",
"426 600 OFFCURVE",
"438 583 OFFCURVE",
"466 583 CURVE SMOOTH",
"508 583 OFFCURVE",
"535 625 OFFCURVE",
"535 666 CURVE SMOOTH"
);
}
);
width = 492;
},
{
associatedMasterId = "DBCC401B-C3AE-4436-9575-31462D2FF699";
layerId = "2149254A-04EF-47F9-8C13-1AD6C847CDCB";
name = v2;
paths = (
{
closed = 1;
nodes = (
"180 0 LINE",
"252 0 LINE",
"252 619 LINE",
"180 609 LINE"
);
},
{
closed = 1;
nodes = (
"10 456 LINE",
"472 456 LINE",
"472 510 LINE",
"10 510 LINE"
);
},
{
closed = 1;
nodes = (
"60 0 LINE",
"442 0 LINE",
"442 54 LINE",
"60 54 LINE"
);
},
{
closed = 1;
nodes = (
"180 609 LINE",
"180 684 OFFCURVE",
"218 720 OFFCURVE",
"302 720 CURVE SMOOTH",
"492 720 LINE",
"492 666 LINE",
"304 666 LINE SMOOTH",
"266 666 OFFCURVE",
"252 650 OFFCURVE",
"252 619 CURVE"
);
}
);
width = 492;
},
{
layerId = "46ED8887-C39F-4CE4-BD5B-7A231A6BF840";
paths = (
{
closed = 1;
nodes = (
"185 0 LINE",
"243 0 LINE",
"243 644 LINE",
"185 618 LINE"
);
},
{
closed = 1;
nodes = (
"15 508 LINE",
"473 508 LINE",
"473 560 LINE",
"15 560 LINE"
);
},
{
closed = 1;
nodes = (
"70 0 LINE",
"443 0 LINE",
"443 52 LINE",
"70 52 LINE"
);
},
{
closed = 1;
nodes = (
"508 776 OFFCURVE",
"454 824 OFFCURVE",
"373 824 CURVE SMOOTH",
"281 824 OFFCURVE",
"185 766 OFFCURVE",
"185 618 CURVE",
"243 624 LINE",
"243 737 OFFCURVE",
"305 776 OFFCURVE",
"370 776 CURVE SMOOTH",
"413 776 OFFCURVE",
"434 758 OFFCURVE",
"434 735 CURVE SMOOTH",
"434 709 OFFCURVE",
"418 699 OFFCURVE",
"418 677 CURVE SMOOTH",
"418 660 OFFCURVE",
"431 644 OFFCURVE",
"453 644 CURVE SMOOTH",
"488 644 OFFCURVE",
"508 674 OFFCURVE",
"508 714 CURVE SMOOTH"
);
}
);
width = 533;
},
{
associatedMasterId = "46ED8887-C39F-4CE4-BD5B-7A231A6BF840";
layerId = "1338F269-E7B1-46D3-AD90-2AF653C961F0";
name = v1;
paths = (
{
closed = 1;
nodes = (
"180 0 LINE",
"252 0 LINE",
"252 520 LINE",
"180 510 LINE"
);
},
{
closed = 1;
nodes = (
"10 456 LINE",
"452 456 LINE",
"452 510 LINE",
"10 510 LINE"
);
},
{
closed = 1;
nodes = (
"60 0 LINE",
"432 0 LINE",
"432 54 LINE",
"60 54 LINE"
);
},
{
closed = 1;
nodes = (
"535 727 OFFCURVE",
"485 770 OFFCURVE",
"388 770 CURVE SMOOTH",
"303 770 OFFCURVE",
"180 709 OFFCURVE",
"180 510 CURVE",
"252 520 LINE",
"252 692 OFFCURVE",
"331 727 OFFCURVE",
"389 727 CURVE SMOOTH",
"430 727 OFFCURVE",
"453 712 OFFCURVE",
"453 686 CURVE SMOOTH",
"453 672 OFFCURVE",
"447 662 OFFCURVE",
"439 651 CURVE SMOOTH",
"432 642 OFFCURVE",
"426 632 OFFCURVE",
"426 618 CURVE SMOOTH",
"426 600 OFFCURVE",
"438 583 OFFCURVE",
"466 583 CURVE SMOOTH",
"508 583 OFFCURVE",
"535 625 OFFCURVE",
"535 666 CURVE SMOOTH"
);
}
);
width = 492;
},
{
associatedMasterId = "46ED8887-C39F-4CE4-BD5B-7A231A6BF840";
layerId = "740C37B1-9E31-44D9-B18B-AD6C286D1A6C";
name = v2;
paths = (
{
closed = 1;
nodes = (
"180 0 LINE",
"252 0 LINE",
"252 619 LINE",
"180 609 LINE"
);
},
{
closed = 1;
nodes = (
"10 456 LINE",
"472 456 LINE",
"472 510 LINE",
"10 510 LINE"
);
},
{
closed = 1;
nodes = (
"60 0 LINE",
"442 0 LINE",
"442 54 LINE",
"60 54 LINE"
);
},
{
closed = 1;
nodes = (
"180 609 LINE",
"180 684 OFFCURVE",
"218 720 OFFCURVE",
"302 720 CURVE SMOOTH",
"492 720 LINE",
"492 666 LINE",
"304 666 LINE SMOOTH",
"266 666 OFFCURVE",
"252 650 OFFCURVE",
"252 619 CURVE"
);
}
);
width = 492;
}
);
leftKerningGroup = f;
rightKerningGroup = f;
unicode = 0066;
},
{
glyphname = g;
lastChange = "2020-02-18 12:14:45 +0000";
layers = (
{
layerId = "D79F8ED9-6C56-4538-8DF1-62DD23430BF9";
paths = (
{
closed = 1;
nodes = (
"426 176 OFFCURVE",
"519 250 OFFCURVE",
"519 368 CURVE SMOOTH",
"519 445 OFFCURVE",
"480 490 OFFCURVE",
"442 508 CURVE",
"323 560 LINE",
"172 560 OFFCURVE",
"95 477 OFFCURVE",
"95 369 CURVE SMOOTH",
"95 248 OFFCURVE",
"190 176 OFFCURVE",
"307 176 CURVE SMOOTH"
);
},
{
closed = 1;
nodes = (
"221 228 OFFCURVE",
"151 280 OFFCURVE",
"151 368 CURVE SMOOTH",
"151 452 OFFCURVE",
"217 508 OFFCURVE",
"307 508 CURVE SMOOTH",
"393 508 OFFCURVE",
"463 456 OFFCURVE",
"463 368 CURVE SMOOTH",
"463 284 OFFCURVE",
"397 228 OFFCURVE",
"307 228 CURVE SMOOTH"
);
},
{
closed = 1;
nodes = (
"140 250 OFFCURVE",
"55 217 OFFCURVE",
"55 133 CURVE SMOOTH",
"55 60 OFFCURVE",
"117 24 OFFCURVE",
"205 24 CURVE SMOOTH",
"477 24 LINE SMOOTH",
"505 24 OFFCURVE",
"538 13 OFFCURVE",
"538 -28 CURVE SMOOTH",
"538 -92 OFFCURVE",
"451 -148 OFFCURVE",
"308 -148 CURVE SMOOTH",
"193 -148 OFFCURVE",
"143 -116 OFFCURVE",
"143 -61 CURVE SMOOTH",
"143 -22 OFFCURVE",
"166 2 OFFCURVE",
"205 25 CURVE",
"190 52 LINE",
"146 32 OFFCURVE",
"85 -2 OFFCURVE",
"85 -73 CURVE SMOOTH",
"85 -149 OFFCURVE",
"153 -200 OFFCURVE",
"307 -200 CURVE SMOOTH",
"478 -200 OFFCURVE",
"594 -129 OFFCURVE",
"594 -26 CURVE SMOOTH",
"594 40 OFFCURVE",
"553 78 OFFCURVE",
"472 78 CURVE SMOOTH",
"200 78 LINE SMOOTH",
"141 78 OFFCURVE",
"111 99 OFFCURVE",
"111 139 CURVE SMOOTH",
"111 183 OFFCURVE",
"148 210 OFFCURVE",
"201 219 CURVE",
"191 261 LINE"
);
},
{
closed = 1;
nodes = (
"442 508 LINE",
"604 508 LINE",
"604 560 LINE",
"323 560 LINE"
);
}
);
width = 659;
},
{
associatedMasterId = "D79F8ED9-6C56-4538-8DF1-62DD23430BF9";
layerId = "94AF58B6-3103-43FD-B530-8A224B080CBA";
name = v1;
paths = (
{
closed = 1;
nodes = (
"429 156 OFFCURVE",
"530 234 OFFCURVE",
"530 358 CURVE SMOOTH",
"530 443 OFFCURVE",
"483 487 OFFCURVE",
"436 506 CURVE",
"386 546 LINE",
"359 555 OFFCURVE",
"334 560 OFFCURVE",
"301 560 CURVE SMOOTH",
"161 560 OFFCURVE",
"60 482 OFFCURVE",
"60 358 CURVE SMOOTH",
"60 234 OFFCURVE",
"161 156 OFFCURVE",
"295 156 CURVE SMOOTH"
);
},
{
closed = 1;
nodes = (
"203 208 OFFCURVE",
"136 266 OFFCURVE",
"136 363 CURVE SMOOTH",
"136 450 OFFCURVE",
"201 508 OFFCURVE",
"291 508 CURVE SMOOTH",
"387 508 OFFCURVE",
"454 450 OFFCURVE",
"454 353 CURVE SMOOTH",
"454 266 OFFCURVE",
"389 208 OFFCURVE",
"299 208 CURVE SMOOTH"
);
},
{
closed = 1;
nodes = (
"140 203 OFFCURVE",
"84 176 OFFCURVE",
"84 115 CURVE SMOOTH",
"84 72 OFFCURVE",
"108 47 OFFCURVE",
"139 27 CURVE",
"139 20 LINE",
"481 20 LINE SMOOTH",
"519 20 OFFCURVE",
"534 6 OFFCURVE",
"534 -24 CURVE SMOOTH",
"534 -72 OFFCURVE",
"469 -150 OFFCURVE",
"280 -150 CURVE SMOOTH",
"167 -150 OFFCURVE",
"108 -117 OFFCURVE",
"108 -59 CURVE SMOOTH",
"108 -3 OFFCURVE",
"162 19 OFFCURVE",
"201 32 CURVE",
"189 63 LINE",
"151 53 OFFCURVE",
"40 29 OFFCURVE",
"40 -63 CURVE SMOOTH",
"40 -147 OFFCURVE",
"125 -200 OFFCURVE",
"280 -200 CURVE SMOOTH",
"515 -200 OFFCURVE",
"610 -104 OFFCURVE",
"610 -3 CURVE SMOOTH",
"610 57 OFFCURVE",
"575 92 OFFCURVE",
"503 92 CURVE SMOOTH",
"202 92 LINE SMOOTH",
"164 92 OFFCURVE",
"146 109 OFFCURVE",
"146 136 CURVE SMOOTH",
"146 160 OFFCURVE",
"166 176 OFFCURVE",
"188 185 CURVE",
"167 216 LINE"
);
},
{
closed = 1;
nodes = (
"436 506 LINE",
"620 506 LINE",
"620 560 LINE",
"301 560 LINE"
);
}
);
width = 640;
},
{
associatedMasterId = "D79F8ED9-6C56-4538-8DF1-62DD23430BF9";
layerId = "5DB25ABD-A8FB-47B2-BCF0-2AD2B9F08AC0";
name = v2;
paths = (
{
closed = 1;
nodes = (
"438 176 OFFCURVE",
"530 250 OFFCURVE",
"530 368 CURVE SMOOTH",
"530 447 OFFCURVE",
"493 488 OFFCURVE",
"456 506 CURVE",
"321 560 LINE",
"193 560 OFFCURVE",
"100 486 OFFCURVE",
"100 368 CURVE SMOOTH",
"100 250 OFFCURVE",
"192 176 OFFCURVE",
"315 176 CURVE SMOOTH"
);
},
{
closed = 1;
nodes = (
"235 228 OFFCURVE",
"176 282 OFFCURVE",
"176 373 CURVE SMOOTH",
"176 454 OFFCURVE",
"233 508 OFFCURVE",
"311 508 CURVE SMOOTH",
"395 508 OFFCURVE",
"454 454 OFFCURVE",
"454 363 CURVE SMOOTH",
"454 282 OFFCURVE",
"397 228 OFFCURVE",
"319 228 CURVE SMOOTH"
);
},
{
closed = 1;
nodes = (
"127 256 OFFCURVE",
"50 214 OFFCURVE",
"50 136 CURVE SMOOTH",
"50 59 OFFCURVE",
"107 16 OFFCURVE",
"206 16 CURVE SMOOTH",
"473 16 LINE SMOOTH",
"511 16 OFFCURVE",
"526 0 OFFCURVE",
"526 -29 CURVE SMOOTH",
"526 -84 OFFCURVE",
"462 -148 OFFCURVE",
"314 -148 CURVE SMOOTH",
"230 -148 OFFCURVE",
"156 -122 OFFCURVE",
"156 -56 CURVE SMOOTH",
"156 -15 OFFCURVE",
"180 7 OFFCURVE",
"210 29 CURVE",
"188 47 LINE",
"153 31 OFFCURVE",
"90 0 OFFCURVE",
"90 -71 CURVE SMOOTH",
"90 -153 OFFCURVE",
"175 -200 OFFCURVE",
"310 -200 CURVE SMOOTH",
"518 -200 OFFCURVE",
"600 -104 OFFCURVE",
"600 -12 CURVE SMOOTH",
"600 50 OFFCURVE",
"563 88 OFFCURVE",
"493 88 CURVE SMOOTH",
"199 88 LINE SMOOTH",
"144 88 OFFCURVE",
"114 111 OFFCURVE",
"114 150 CURVE SMOOTH",
"114 189 OFFCURVE",
"146 218 OFFCURVE",
"190 236 CURVE",
"169 274 LINE"
);
},
{
closed = 1;
nodes = (
"456 506 LINE",
"640 506 LINE",
"640 560 LINE",
"321 560 LINE"
);
}
);
width = 670;
},
{
layerId = "EA87A73E-C0FE-4015-8704-0B2406CC7903";
paths = (
{
closed = 1;
nodes = (
"465 188 OFFCURVE",
"573 256 OFFCURVE",
"573 374 CURVE SMOOTH",
"573 450 OFFCURVE",
"528 488 OFFCURVE",
"484 506 CURVE",
"345 560 LINE",
"173 560 OFFCURVE",
"85 483 OFFCURVE",
"85 375 CURVE SMOOTH",
"85 256 OFFCURVE",
"193 188 OFFCURVE",
"329 188 CURVE SMOOTH"
);
},
{
closed = 1;
nodes = (
"262 240 OFFCURVE",
"215 299 OFFCURVE",
"215 379 CURVE SMOOTH",
"215 461 OFFCURVE",
"265 508 OFFCURVE",
"328 508 CURVE SMOOTH",
"396 508 OFFCURVE",
"443 449 OFFCURVE",
"443 369 CURVE SMOOTH",
"443 287 OFFCURVE",
"393 240 OFFCURVE",
"330 240 CURVE SMOOTH"
);
},
{
closed = 1;
nodes = (
"132 249 OFFCURVE",
"45 212 OFFCURVE",
"45 121 CURVE SMOOTH",
"45 47 OFFCURVE",
"108 12 OFFCURVE",
"203 12 CURVE SMOOTH",
"469 12 LINE SMOOTH",
"510 12 OFFCURVE",
"530 -5 OFFCURVE",
"530 -36 CURVE SMOOTH",
"530 -97 OFFCURVE",
"456 -148 OFFCURVE",
"343 -148 CURVE SMOOTH",
"263 -148 OFFCURVE",
"196 -121 OFFCURVE",
"196 -51 CURVE SMOOTH",
"196 -15 OFFCURVE",
"211 8 OFFCURVE",
"238 31 CURVE",
"215 51 LINE",
"162 38 OFFCURVE",
"80 3 OFFCURVE",
"80 -74 CURVE SMOOTH",
"80 -156 OFFCURVE",
"176 -200 OFFCURVE",
"327 -200 CURVE SMOOTH",
"548 -200 OFFCURVE",
"638 -98 OFFCURVE",
"638 0 CURVE SMOOTH",
"638 74 OFFCURVE",
"584 112 OFFCURVE",
"481 112 CURVE SMOOTH",
"198 112 LINE SMOOTH",
"158 112 OFFCURVE",
"137 127 OFFCURVE",
"137 158 CURVE SMOOTH",
"137 193 OFFCURVE",
"162 215 OFFCURVE",
"197 223 CURVE",
"188 262 LINE"
);
},
{
closed = 1;
nodes = (
"484 506 LINE",
"643 506 LINE",
"643 560 LINE",
"345 560 LINE"
);
}
);
width = 693;
},
{
associatedMasterId = "EA87A73E-C0FE-4015-8704-0B2406CC7903";
layerId = "8306EBA4-40E5-41DC-8D68-DCF0D7F0606B";
name = v1;
paths = (
{
closed = 1;
nodes = (
"429 156 OFFCURVE",
"530 234 OFFCURVE",
"530 358 CURVE SMOOTH",
"530 443 OFFCURVE",
"483 487 OFFCURVE",
"436 506 CURVE",
"386 546 LINE",
"359 555 OFFCURVE",
"334 560 OFFCURVE",
"301 560 CURVE SMOOTH",
"161 560 OFFCURVE",
"60 482 OFFCURVE",
"60 358 CURVE SMOOTH",
"60 234 OFFCURVE",
"161 156 OFFCURVE",
"295 156 CURVE SMOOTH"
);
},
{
closed = 1;
nodes = (
"203 208 OFFCURVE",
"136 266 OFFCURVE",
"136 363 CURVE SMOOTH",
"136 450 OFFCURVE",
"201 508 OFFCURVE",
"291 508 CURVE SMOOTH",
"387 508 OFFCURVE",
"454 450 OFFCURVE",
"454 353 CURVE SMOOTH",
"454 266 OFFCURVE",
"389 208 OFFCURVE",
"299 208 CURVE SMOOTH"
);
},
{
closed = 1;
nodes = (
"140 203 OFFCURVE",
"84 176 OFFCURVE",
"84 115 CURVE SMOOTH",
"84 72 OFFCURVE",
"108 47 OFFCURVE",
"139 27 CURVE",
"139 20 LINE",
"481 20 LINE SMOOTH",
"519 20 OFFCURVE",
"534 6 OFFCURVE",
"534 -24 CURVE SMOOTH",
"534 -72 OFFCURVE",
"469 -150 OFFCURVE",
"280 -150 CURVE SMOOTH",
"167 -150 OFFCURVE",
"108 -117 OFFCURVE",
"108 -59 CURVE SMOOTH",
"108 -3 OFFCURVE",
"162 19 OFFCURVE",
"201 32 CURVE",
"189 63 LINE",
"151 53 OFFCURVE",
"40 29 OFFCURVE",
"40 -63 CURVE SMOOTH",
"40 -147 OFFCURVE",
"125 -200 OFFCURVE",
"280 -200 CURVE SMOOTH",
"515 -200 OFFCURVE",
"610 -104 OFFCURVE",
"610 -3 CURVE SMOOTH",
"610 57 OFFCURVE",
"575 92 OFFCURVE",
"503 92 CURVE SMOOTH",
"202 92 LINE SMOOTH",
"164 92 OFFCURVE",
"146 109 OFFCURVE",
"146 136 CURVE SMOOTH",
"146 160 OFFCURVE",
"166 176 OFFCURVE",
"188 185 CURVE",
"167 216 LINE"
);
},
{
closed = 1;
nodes = (
"436 506 LINE",
"620 506 LINE",
"620 560 LINE",
"301 560 LINE"
);
}
);
width = 640;
},
{
associatedMasterId = "EA87A73E-C0FE-4015-8704-0B2406CC7903";
layerId = "1F32C860-602D-48B3-A5B7-164AD7051C20";
name = v2;
paths = (
{
closed = 1;
nodes = (
"438 176 OFFCURVE",
"530 250 OFFCURVE",
"530 368 CURVE SMOOTH",
"530 447 OFFCURVE",
"493 488 OFFCURVE",
"456 506 CURVE",
"321 560 LINE",
"193 560 OFFCURVE",
"100 486 OFFCURVE",
"100 368 CURVE SMOOTH",
"100 250 OFFCURVE",
"192 176 OFFCURVE",
"315 176 CURVE SMOOTH"
);
},
{
closed = 1;
nodes = (
"235 228 OFFCURVE",
"176 282 OFFCURVE",
"176 373 CURVE SMOOTH",
"176 454 OFFCURVE",
"233 508 OFFCURVE",
"311 508 CURVE SMOOTH",
"395 508 OFFCURVE",
"454 454 OFFCURVE",
"454 363 CURVE SMOOTH",
"454 282 OFFCURVE",
"397 228 OFFCURVE",
"319 228 CURVE SMOOTH"
);
},
{
closed = 1;
nodes = (
"127 256 OFFCURVE",
"50 214 OFFCURVE",
"50 136 CURVE SMOOTH",
"50 59 OFFCURVE",
"107 16 OFFCURVE",
"206 16 CURVE SMOOTH",
"473 16 LINE SMOOTH",
"511 16 OFFCURVE",
"526 0 OFFCURVE",
"526 -29 CURVE SMOOTH",
"526 -84 OFFCURVE",
"462 -148 OFFCURVE",
"314 -148 CURVE SMOOTH",
"230 -148 OFFCURVE",
"156 -122 OFFCURVE",
"156 -56 CURVE SMOOTH",
"156 -15 OFFCURVE",
"180 7 OFFCURVE",
"210 29 CURVE",
"188 47 LINE",
"153 31 OFFCURVE",
"90 0 OFFCURVE",
"90 -71 CURVE SMOOTH",
"90 -153 OFFCURVE",
"175 -200 OFFCURVE",
"310 -200 CURVE SMOOTH",
"518 -200 OFFCURVE",
"600 -104 OFFCURVE",
"600 -12 CURVE SMOOTH",
"600 50 OFFCURVE",
"563 88 OFFCURVE",
"493 88 CURVE SMOOTH",
"199 88 LINE SMOOTH",
"144 88 OFFCURVE",
"114 111 OFFCURVE",
"114 150 CURVE SMOOTH",
"114 189 OFFCURVE",
"146 218 OFFCURVE",
"190 236 CURVE",
"169 274 LINE"
);
},
{
closed = 1;
nodes = (
"456 506 LINE",
"640 506 LINE",
"640 560 LINE",
"321 560 LINE"
);
}
);
width = 670;
},
{
layerId = "DBCC401B-C3AE-4436-9575-31462D2FF699";
paths = (
{
closed = 1;
nodes = (
"465 188 OFFCURVE",
"573 256 OFFCURVE",
"573 374 CURVE SMOOTH",
"573 450 OFFCURVE",
"528 488 OFFCURVE",
"484 506 CURVE",
"345 560 LINE",
"173 560 OFFCURVE",
"85 483 OFFCURVE",
"85 375 CURVE SMOOTH",
"85 256 OFFCURVE",
"193 188 OFFCURVE",
"329 188 CURVE SMOOTH"
);
},
{
closed = 1;
nodes = (
"262 240 OFFCURVE",
"215 299 OFFCURVE",
"215 379 CURVE SMOOTH",
"215 461 OFFCURVE",
"265 508 OFFCURVE",
"328 508 CURVE SMOOTH",
"396 508 OFFCURVE",
"443 449 OFFCURVE",
"443 369 CURVE SMOOTH",
"443 287 OFFCURVE",
"393 240 OFFCURVE",
"330 240 CURVE SMOOTH"
);
},
{
closed = 1;
nodes = (
"132 249 OFFCURVE",
"45 212 OFFCURVE",
"45 121 CURVE SMOOTH",
"45 47 OFFCURVE",
"108 12 OFFCURVE",
"203 12 CURVE SMOOTH",
"469 12 LINE SMOOTH",
"510 12 OFFCURVE",
"530 -5 OFFCURVE",
"530 -36 CURVE SMOOTH",
"530 -97 OFFCURVE",
"456 -148 OFFCURVE",
"343 -148 CURVE SMOOTH",
"263 -148 OFFCURVE",
"196 -121 OFFCURVE",
"196 -51 CURVE SMOOTH",
"196 -15 OFFCURVE",
"211 8 OFFCURVE",
"238 31 CURVE",
"215 51 LINE",
"162 38 OFFCURVE",
"80 3 OFFCURVE",
"80 -74 CURVE SMOOTH",
"80 -156 OFFCURVE",
"176 -200 OFFCURVE",
"327 -200 CURVE SMOOTH",
"548 -200 OFFCURVE",
"638 -98 OFFCURVE",
"638 0 CURVE SMOOTH",
"638 74 OFFCURVE",
"584 112 OFFCURVE",
"481 112 CURVE SMOOTH",
"198 112 LINE SMOOTH",
"158 112 OFFCURVE",
"137 127 OFFCURVE",
"137 158 CURVE SMOOTH",
"137 193 OFFCURVE",
"162 215 OFFCURVE",
"197 223 CURVE",
"188 262 LINE"
);
},
{
closed = 1;
nodes = (
"484 506 LINE",
"643 506 LINE",
"643 560 LINE",
"345 560 LINE"
);
}
);
width = 693;
},
{
associatedMasterId = "DBCC401B-C3AE-4436-9575-31462D2FF699";
layerId = "90A1E107-1DD0-4A22-AFCF-984B37CD2C6F";
name = v1;
paths = (
{
closed = 1;
nodes = (
"429 156 OFFCURVE",
"530 234 OFFCURVE",
"530 358 CURVE SMOOTH",
"530 443 OFFCURVE",
"483 487 OFFCURVE",
"436 506 CURVE",
"386 546 LINE",
"359 555 OFFCURVE",
"334 560 OFFCURVE",
"301 560 CURVE SMOOTH",
"161 560 OFFCURVE",
"60 482 OFFCURVE",
"60 358 CURVE SMOOTH",
"60 234 OFFCURVE",
"161 156 OFFCURVE",
"295 156 CURVE SMOOTH"
);
},
{
closed = 1;
nodes = (
"203 208 OFFCURVE",
"136 266 OFFCURVE",
"136 363 CURVE SMOOTH",
"136 450 OFFCURVE",
"201 508 OFFCURVE",
"291 508 CURVE SMOOTH",
"387 508 OFFCURVE",
"454 450 OFFCURVE",
"454 353 CURVE SMOOTH",
"454 266 OFFCURVE",
"389 208 OFFCURVE",
"299 208 CURVE SMOOTH"
);
},
{
closed = 1;
nodes = (
"140 203 OFFCURVE",
"84 176 OFFCURVE",
"84 115 CURVE SMOOTH",
"84 72 OFFCURVE",
"108 47 OFFCURVE",
"139 27 CURVE",
"139 20 LINE",
"481 20 LINE SMOOTH",
"519 20 OFFCURVE",
"534 6 OFFCURVE",
"534 -24 CURVE SMOOTH",
"534 -72 OFFCURVE",
"469 -150 OFFCURVE",
"280 -150 CURVE SMOOTH",
"167 -150 OFFCURVE",
"108 -117 OFFCURVE",
"108 -59 CURVE SMOOTH",
"108 -3 OFFCURVE",
"162 19 OFFCURVE",
"201 32 CURVE",
"189 63 LINE",
"151 53 OFFCURVE",
"40 29 OFFCURVE",
"40 -63 CURVE SMOOTH",
"40 -147 OFFCURVE",
"125 -200 OFFCURVE",
"280 -200 CURVE SMOOTH",
"515 -200 OFFCURVE",
"610 -104 OFFCURVE",
"610 -3 CURVE SMOOTH",
"610 57 OFFCURVE",
"575 92 OFFCURVE",
"503 92 CURVE SMOOTH",
"202 92 LINE SMOOTH",
"164 92 OFFCURVE",
"146 109 OFFCURVE",
"146 136 CURVE SMOOTH",
"146 160 OFFCURVE",
"166 176 OFFCURVE",
"188 185 CURVE",
"167 216 LINE"
);
},
{
closed = 1;
nodes = (
"436 506 LINE",
"620 506 LINE",
"620 560 LINE",
"301 560 LINE"
);
}
);
width = 640;
},
{
associatedMasterId = "DBCC401B-C3AE-4436-9575-31462D2FF699";
layerId = "381BF11F-35D4-4D30-93AC-5DA224D477E0";
name = v2;
paths = (
{
closed = 1;
nodes = (
"438 176 OFFCURVE",
"530 250 OFFCURVE",
"530 368 CURVE SMOOTH",
"530 447 OFFCURVE",
"493 488 OFFCURVE",
"456 506 CURVE",
"321 560 LINE",
"193 560 OFFCURVE",
"100 486 OFFCURVE",
"100 368 CURVE SMOOTH",
"100 250 OFFCURVE",
"192 176 OFFCURVE",
"315 176 CURVE SMOOTH"
);
},
{
closed = 1;
nodes = (
"235 228 OFFCURVE",
"176 282 OFFCURVE",
"176 373 CURVE SMOOTH",
"176 454 OFFCURVE",
"233 508 OFFCURVE",
"311 508 CURVE SMOOTH",
"395 508 OFFCURVE",
"454 454 OFFCURVE",
"454 363 CURVE SMOOTH",
"454 282 OFFCURVE",
"397 228 OFFCURVE",
"319 228 CURVE SMOOTH"
);
},
{
closed = 1;
nodes = (
"127 256 OFFCURVE",
"50 214 OFFCURVE",
"50 136 CURVE SMOOTH",
"50 59 OFFCURVE",
"107 16 OFFCURVE",
"206 16 CURVE SMOOTH",
"473 16 LINE SMOOTH",
"511 16 OFFCURVE",
"526 0 OFFCURVE",
"526 -29 CURVE SMOOTH",
"526 -84 OFFCURVE",
"462 -148 OFFCURVE",
"314 -148 CURVE SMOOTH",
"230 -148 OFFCURVE",
"156 -122 OFFCURVE",
"156 -56 CURVE SMOOTH",
"156 -15 OFFCURVE",
"180 7 OFFCURVE",
"210 29 CURVE",
"188 47 LINE",
"153 31 OFFCURVE",
"90 0 OFFCURVE",
"90 -71 CURVE SMOOTH",
"90 -153 OFFCURVE",
"175 -200 OFFCURVE",
"310 -200 CURVE SMOOTH",
"518 -200 OFFCURVE",
"600 -104 OFFCURVE",
"600 -12 CURVE SMOOTH",
"600 50 OFFCURVE",
"563 88 OFFCURVE",
"493 88 CURVE SMOOTH",
"199 88 LINE SMOOTH",
"144 88 OFFCURVE",
"114 111 OFFCURVE",
"114 150 CURVE SMOOTH",
"114 189 OFFCURVE",
"146 218 OFFCURVE",
"190 236 CURVE",
"169 274 LINE"
);
},
{
closed = 1;
nodes = (
"456 506 LINE",
"640 506 LINE",
"640 560 LINE",
"321 560 LINE"
);
}
);
width = 670;
},
{
layerId = "46ED8887-C39F-4CE4-BD5B-7A231A6BF840";
paths = (
{
closed = 1;
nodes = (
"426 176 OFFCURVE",
"519 250 OFFCURVE",
"519 368 CURVE SMOOTH",
"519 445 OFFCURVE",
"480 490 OFFCURVE",
"442 508 CURVE",
"323 560 LINE",
"172 560 OFFCURVE",
"95 477 OFFCURVE",
"95 369 CURVE SMOOTH",
"95 248 OFFCURVE",
"190 176 OFFCURVE",
"307 176 CURVE SMOOTH"
);
},
{
closed = 1;
nodes = (
"221 228 OFFCURVE",
"151 280 OFFCURVE",
"151 368 CURVE SMOOTH",
"151 452 OFFCURVE",
"217 508 OFFCURVE",
"307 508 CURVE SMOOTH",
"393 508 OFFCURVE",
"463 456 OFFCURVE",
"463 368 CURVE SMOOTH",
"463 284 OFFCURVE",
"397 228 OFFCURVE",
"307 228 CURVE SMOOTH"
);
},
{
closed = 1;
nodes = (
"140 250 OFFCURVE",
"55 217 OFFCURVE",
"55 133 CURVE SMOOTH",
"55 60 OFFCURVE",
"117 24 OFFCURVE",
"205 24 CURVE SMOOTH",
"477 24 LINE SMOOTH",
"505 24 OFFCURVE",
"538 13 OFFCURVE",
"538 -28 CURVE SMOOTH",
"538 -92 OFFCURVE",
"451 -148 OFFCURVE",
"308 -148 CURVE SMOOTH",
"193 -148 OFFCURVE",
"143 -116 OFFCURVE",
"143 -61 CURVE SMOOTH",
"143 -22 OFFCURVE",
"166 2 OFFCURVE",
"205 25 CURVE",
"190 52 LINE",
"146 32 OFFCURVE",
"85 -2 OFFCURVE",
"85 -73 CURVE SMOOTH",
"85 -149 OFFCURVE",
"153 -200 OFFCURVE",
"307 -200 CURVE SMOOTH",
"478 -200 OFFCURVE",
"594 -129 OFFCURVE",
"594 -26 CURVE SMOOTH",
"594 40 OFFCURVE",
"553 78 OFFCURVE",
"472 78 CURVE SMOOTH",
"200 78 LINE SMOOTH",
"141 78 OFFCURVE",
"111 99 OFFCURVE",
"111 139 CURVE SMOOTH",
"111 183 OFFCURVE",
"148 210 OFFCURVE",
"201 219 CURVE",
"191 261 LINE"
);
},
{
closed = 1;
nodes = (
"442 508 LINE",
"604 508 LINE",
"604 560 LINE",
"323 560 LINE"
);
}
);
width = 659;
},
{
associatedMasterId = "46ED8887-C39F-4CE4-BD5B-7A231A6BF840";
layerId = "AB8D764A-17E9-4981-AB3F-86EA547DFA0D";
name = v1;
paths = (
{
closed = 1;
nodes = (
"429 156 OFFCURVE",
"530 234 OFFCURVE",
"530 358 CURVE SMOOTH",
"530 443 OFFCURVE",
"483 487 OFFCURVE",
"436 506 CURVE",
"386 546 LINE",
"359 555 OFFCURVE",
"334 560 OFFCURVE",
"301 560 CURVE SMOOTH",
"161 560 OFFCURVE",
"60 482 OFFCURVE",
"60 358 CURVE SMOOTH",
"60 234 OFFCURVE",
"161 156 OFFCURVE",
"295 156 CURVE SMOOTH"
);
},
{
closed = 1;
nodes = (
"203 208 OFFCURVE",
"136 266 OFFCURVE",
"136 363 CURVE SMOOTH",
"136 450 OFFCURVE",
"201 508 OFFCURVE",
"291 508 CURVE SMOOTH",
"387 508 OFFCURVE",
"454 450 OFFCURVE",
"454 353 CURVE SMOOTH",
"454 266 OFFCURVE",
"389 208 OFFCURVE",
"299 208 CURVE SMOOTH"
);
},
{
closed = 1;
nodes = (
"140 203 OFFCURVE",
"84 176 OFFCURVE",
"84 115 CURVE SMOOTH",
"84 72 OFFCURVE",
"108 47 OFFCURVE",
"139 27 CURVE",
"139 20 LINE",
"481 20 LINE SMOOTH",
"519 20 OFFCURVE",
"534 6 OFFCURVE",
"534 -24 CURVE SMOOTH",
"534 -72 OFFCURVE",
"469 -150 OFFCURVE",
"280 -150 CURVE SMOOTH",
"167 -150 OFFCURVE",
"108 -117 OFFCURVE",
"108 -59 CURVE SMOOTH",
"108 -3 OFFCURVE",
"162 19 OFFCURVE",
"201 32 CURVE",
"189 63 LINE",
"151 53 OFFCURVE",
"40 29 OFFCURVE",
"40 -63 CURVE SMOOTH",
"40 -147 OFFCURVE",
"125 -200 OFFCURVE",
"280 -200 CURVE SMOOTH",
"515 -200 OFFCURVE",
"610 -104 OFFCURVE",
"610 -3 CURVE SMOOTH",
"610 57 OFFCURVE",
"575 92 OFFCURVE",
"503 92 CURVE SMOOTH",
"202 92 LINE SMOOTH",
"164 92 OFFCURVE",
"146 109 OFFCURVE",
"146 136 CURVE SMOOTH",
"146 160 OFFCURVE",
"166 176 OFFCURVE",
"188 185 CURVE",
"167 216 LINE"
);
},
{
closed = 1;
nodes = (
"436 506 LINE",
"620 506 LINE",
"620 560 LINE",
"301 560 LINE"
);
}
);
width = 640;
},
{
associatedMasterId = "46ED8887-C39F-4CE4-BD5B-7A231A6BF840";
layerId = "B696DE59-2C61-40CC-A05F-9BCAAF3CDB38";
name = v2;
paths = (
{
closed = 1;
nodes = (
"438 176 OFFCURVE",
"530 250 OFFCURVE",
"530 368 CURVE SMOOTH",
"530 447 OFFCURVE",
"493 488 OFFCURVE",
"456 506 CURVE",
"321 560 LINE",
"193 560 OFFCURVE",
"100 486 OFFCURVE",
"100 368 CURVE SMOOTH",
"100 250 OFFCURVE",
"192 176 OFFCURVE",
"315 176 CURVE SMOOTH"
);
},
{
closed = 1;
nodes = (
"235 228 OFFCURVE",
"176 282 OFFCURVE",
"176 373 CURVE SMOOTH",
"176 454 OFFCURVE",
"233 508 OFFCURVE",
"311 508 CURVE SMOOTH",
"395 508 OFFCURVE",
"454 454 OFFCURVE",
"454 363 CURVE SMOOTH",
"454 282 OFFCURVE",
"397 228 OFFCURVE",
"319 228 CURVE SMOOTH"
);
},
{
closed = 1;
nodes = (
"127 256 OFFCURVE",
"50 214 OFFCURVE",
"50 136 CURVE SMOOTH",
"50 59 OFFCURVE",
"107 16 OFFCURVE",
"206 16 CURVE SMOOTH",
"473 16 LINE SMOOTH",
"511 16 OFFCURVE",
"526 0 OFFCURVE",
"526 -29 CURVE SMOOTH",
"526 -84 OFFCURVE",
"462 -148 OFFCURVE",
"314 -148 CURVE SMOOTH",
"230 -148 OFFCURVE",
"156 -122 OFFCURVE",
"156 -56 CURVE SMOOTH",
"156 -15 OFFCURVE",
"180 7 OFFCURVE",
"210 29 CURVE",
"188 47 LINE",
"153 31 OFFCURVE",
"90 0 OFFCURVE",
"90 -71 CURVE SMOOTH",
"90 -153 OFFCURVE",
"175 -200 OFFCURVE",
"310 -200 CURVE SMOOTH",
"518 -200 OFFCURVE",
"600 -104 OFFCURVE",
"600 -12 CURVE SMOOTH",
"600 50 OFFCURVE",
"563 88 OFFCURVE",
"493 88 CURVE SMOOTH",
"199 88 LINE SMOOTH",
"144 88 OFFCURVE",
"114 111 OFFCURVE",
"114 150 CURVE SMOOTH",
"114 189 OFFCURVE",
"146 218 OFFCURVE",
"190 236 CURVE",
"169 274 LINE"
);
},
{
closed = 1;
nodes = (
"456 506 LINE",
"640 506 LINE",
"640 560 LINE",
"321 560 LINE"
);
}
);
width = 670;
}
);
leftKerningGroup = g;
rightKerningGroup = g;
unicode = 0067;
},
{
glyphname = h;
lastChange = "2020-02-18 12:14:45 +0000";
layers = (
{
layerId = "D79F8ED9-6C56-4538-8DF1-62DD23430BF9";
paths = (
{
closed = 1;
nodes = (
"155 0 LINE",
"213 0 LINE",
"213 760 LINE",
"155 760 LINE"
);
},
{
closed = 1;
nodes = (
"40 0 LINE",
"328 0 LINE",
"328 52 LINE",
"40 52 LINE"
);
},
{
closed = 1;
nodes = (
"45 708 LINE",
"213 708 LINE",
"213 760 LINE",
"45 760 LINE"
);
},
{
closed = 1;
nodes = (
"213 318 LINE",
"213 477 OFFCURVE",
"311 520 OFFCURVE",
"390 520 CURVE SMOOTH",
"460 520 OFFCURVE",
"503 481 OFFCURVE",
"503 410 CURVE SMOOTH",
"503 0 LINE",
"561 0 LINE",
"561 412 LINE SMOOTH",
"561 520 OFFCURVE",
"497 570 OFFCURVE",
"396 570 CURVE SMOOTH",
"289 570 OFFCURVE",
"180 514 OFFCURVE",
"180 318 CURVE"
);
},
{
closed = 1;
nodes = (
"388 0 LINE",
"666 0 LINE",
"666 52 LINE",
"388 52 LINE"
);
}
);
width = 696;
},
{
layerId = "EA87A73E-C0FE-4015-8704-0B2406CC7903";
paths = (
{
closed = 1;
nodes = (
"130 0 LINE",
"258 0 LINE",
"258 760 LINE",
"130 760 LINE"
);
},
{
closed = 1;
nodes = (
"35 0 LINE",
"348 0 LINE",
"348 54 LINE",
"35 54 LINE"
);
},
{
closed = 1;
nodes = (
"40 706 LINE",
"258 706 LINE",
"258 760 LINE",
"40 760 LINE"
);
},
{
closed = 1;
nodes = (
"258 328 LINE",
"258 456 OFFCURVE",
"329 502 OFFCURVE",
"386 502 CURVE SMOOTH",
"440 502 OFFCURVE",
"474 469 OFFCURVE",
"474 410 CURVE SMOOTH",
"474 0 LINE",
"602 0 LINE",
"602 410 LINE SMOOTH",
"602 521 OFFCURVE",
"538 570 OFFCURVE",
"436 570 CURVE SMOOTH",
"325 570 OFFCURVE",
"224 510 OFFCURVE",
"224 328 CURVE"
);
},
{
closed = 1;
nodes = (
"384 0 LINE",
"692 0 LINE",
"692 54 LINE",
"384 54 LINE"
);
}
);
width = 722;
},
{
layerId = "DBCC401B-C3AE-4436-9575-31462D2FF699";
paths = (
{
closed = 1;
nodes = (
"130 0 LINE",
"258 0 LINE",
"258 760 LINE",
"130 760 LINE"
);
},
{
closed = 1;
nodes = (
"35 0 LINE",
"348 0 LINE",
"348 54 LINE",
"35 54 LINE"
);
},
{
closed = 1;
nodes = (
"40 706 LINE",
"258 706 LINE",
"258 760 LINE",
"40 760 LINE"
);
},
{
closed = 1;
nodes = (
"258 328 LINE",
"258 456 OFFCURVE",
"329 502 OFFCURVE",
"386 502 CURVE SMOOTH",
"440 502 OFFCURVE",
"474 469 OFFCURVE",
"474 410 CURVE SMOOTH",
"474 0 LINE",
"602 0 LINE",
"602 410 LINE SMOOTH",
"602 521 OFFCURVE",
"538 570 OFFCURVE",
"436 570 CURVE SMOOTH",
"325 570 OFFCURVE",
"224 510 OFFCURVE",
"224 328 CURVE"
);
},
{
closed = 1;
nodes = (
"384 0 LINE",
"692 0 LINE",
"692 54 LINE",
"384 54 LINE"
);
}
);
width = 722;
},
{
layerId = "46ED8887-C39F-4CE4-BD5B-7A231A6BF840";
paths = (
{
closed = 1;
nodes = (
"155 0 LINE",
"213 0 LINE",
"213 760 LINE",
"155 760 LINE"
);
},
{
closed = 1;
nodes = (
"40 0 LINE",
"328 0 LINE",
"328 52 LINE",
"40 52 LINE"
);
},
{
closed = 1;
nodes = (
"45 708 LINE",
"213 708 LINE",
"213 760 LINE",
"45 760 LINE"
);
},
{
closed = 1;
nodes = (
"213 318 LINE",
"213 477 OFFCURVE",
"311 520 OFFCURVE",
"390 520 CURVE SMOOTH",
"460 520 OFFCURVE",
"503 481 OFFCURVE",
"503 410 CURVE SMOOTH",
"503 0 LINE",
"561 0 LINE",
"561 412 LINE SMOOTH",
"561 520 OFFCURVE",
"497 570 OFFCURVE",
"396 570 CURVE SMOOTH",
"289 570 OFFCURVE",
"180 514 OFFCURVE",
"180 318 CURVE"
);
},
{
closed = 1;
nodes = (
"388 0 LINE",
"666 0 LINE",
"666 52 LINE",
"388 52 LINE"
);
}
);
width = 696;
}
);
leftKerningGroup = h;
leftMetricsKey = n;
rightKerningGroup = n;
rightMetricsKey = n;
unicode = 0068;
},
